<svg width="58" height="58" viewBox="0 0 58 58" fill="none" xmlns="http://www.w3.org/2000/svg">
<path d="M42.7868 43.5H15.2135C14.8195 43.5 14.5 43.2012 14.5 42.8334V40.6993C14.5 34.1825 19.9037 29.9718 28.266 29.9718H29.734C38.0961 29.9718 43.5 34.1824 43.5 40.6993V42.8331C43.5002 43.2012 43.1807 43.5 42.7868 43.5H42.7868ZM15.9271 42.1665H42.0733V40.6991C42.0733 33.7728 35.6997 31.3049 29.7344 31.3049H28.2663C22.3014 31.3049 15.9275 33.7727 15.9275 40.6991L15.9271 42.1665ZM29.0005 28.4092C25.3682 28.4092 22.4134 25.6485 22.4134 22.2549V20.6543C22.4134 17.2604 25.3685 14.5 29.0005 14.5C32.6324 14.5 35.5875 17.2607 35.5875 20.6543V22.2549C35.5875 25.6483 32.6324 28.4092 29.0005 28.4092ZM29.0005 15.8328C26.1552 15.8328 23.8404 17.9955 23.8404 20.6538V22.2545C23.8404 24.9129 26.1552 27.0755 29.0005 27.0755C31.8458 27.0755 34.1605 24.9129 34.1605 22.2545V20.6538C34.1605 17.9955 31.8458 15.8328 29.0005 15.8328Z" fill="#00061A"/>
<path fill-rule="evenodd" clip-rule="evenodd" d="M29 56.0667C43.9485 56.0667 56.0667 43.9485 56.0667 29C56.0667 14.0515 43.9485 1.93333 29 1.93333C14.0515 1.93333 1.93333 14.0515 1.93333 29C1.93333 43.9485 14.0515 56.0667 29 56.0667ZM29 58C45.0163 58 58 45.0163 58 29C58 12.9837 45.0163 0 29 0C12.9837 0 0 12.9837 0 29C0 45.0163 12.9837 58 29 58Z" fill="black"/>
</svg>
