<svg width="356" height="98" viewBox="0 0 356 98" fill="none" xmlns="http://www.w3.org/2000/svg">
<path fill-rule="evenodd" clip-rule="evenodd" d="M20 56.5L22.5 58.5C24.3333 49 32.5 27.8 48.5 21C64.5 14.2 75.5 13.5 79 14C82.3333 10.3333 89.3 3.5 90.5 5.5C90.5 7.11625 90.1734 9.14066 89.8502 11.1444L89.8502 11.1445L89.8502 11.1447C89.3735 14.0999 88.9041 17.0102 89.5 18.5C90.5 21 95.5 29 99.5 34.5C102.7 38.9 106.5 44.6667 108 47C109 49.3333 110.2 54.5 107 56.5C103 59 99.5 57.5 98.5 56.5C98.246 56.246 97.7984 55.508 97.2064 54.532C95.4679 51.6657 92.4839 46.746 89.5 46C88.2062 45.6765 86.3892 45.51 84.4383 45.3312L84.4382 45.3312C80.3577 44.9572 75.6913 44.5296 74 42.5C71.5 39.5 71 36.5 72.5 30.5C67.5 34.5 63.5 46 68 53.5C70.2094 57.1823 74.1061 60.3825 77.5599 63.2189C81.1407 66.1596 84.2455 68.7094 84.5 71C83.3333 70.5 80.8 69.4 80 69C79 68.5 80.5 73.5 85.5 78C89.5 81.6 91.1666 84.1667 91.5 85C92.8333 81.5 93.5 72.7 85.5 65.5C83.2737 63.4963 81.0474 61.8148 78.9701 60.2458C71.7165 54.7673 66.2792 50.6605 69 39C70.5 44 73.4844 48 81.5 48C89.1345 48 90.3152 49.6135 93.7371 54.2895C94.125 54.8196 94.5418 55.3891 95 56C99.5 62 104.5 61 108 58.5C111.5 56 112.5 50.5 109.5 45.5C108.569 43.9478 106.93 41.4922 105.097 38.7466C102.207 34.4167 98.8358 29.3658 97 26C97 26 99 26.5 100 30.5C101.5 29.5 101.5 28 101.5 25.5C102.5 28 102.5 28.5 102.5 32.5C104.167 30.5 107.4 25.3 103 20.5C101.949 19.2393 100.457 18.685 98.9692 18.1321C96.9158 17.3692 94.8697 16.609 94 14C93.1674 11.5022 93.4131 8.85026 93.6256 6.55738C93.796 4.71951 93.9449 3.1123 93.5 1.99999C92.5 -0.500011 86 1.49999 77.5 8.99999C76.856 8.5975 76.2379 8.20473 75.6393 7.82429C68.8009 3.47863 64.4938 0.741493 53 3.5C43 5.9 39.5 10.5 39 12.5C41.1666 11 45.7 8.19998 46.5 8.99999C47.5 10 42.5 13 32 18.5C21.5415 23.9782 20.012 30.4486 19.506 33.4642C19.502 33.4785 19.5 33.4904 19.5 33.5L19.506 33.4642C19.709 32.7354 25.0191 26.0479 26 28.5C26.3476 29.3691 24.8825 31.3259 22.9489 33.9082C19.3206 38.754 14.0429 45.8026 16 52C16 52 18.5 47 21.5 47.5L20 56.5ZM82.5 23C82.5 24.8333 82.9 28.7 84.5 29.5C86.1 30.3 89.8333 31.5 91.5 32C92.3333 29 91.7 23 82.5 23ZM104 49C106 49 108 52.5 105.5 53.5C103 54.5 101 49 104 49ZM11.5698 25.7897C12.1589 26.718 12.5 27.8192 12.5 29C12.5 32.2663 9.88999 34.923 6.64177 34.9984C4.85326 44.5324 11.1399 59.9814 51 76.5C100.236 96.9039 115.832 80.2903 119.594 71.0692C118.326 70.1622 117.5 68.6776 117.5 67C117.5 64.7934 118.929 62.9207 120.913 62.2572C120.579 57.4092 118.088 51.2873 109 41.5C113.651 44.5566 121.821 51.767 123.318 62.0666C125.69 62.4571 127.5 64.5172 127.5 67C127.5 69.7202 125.328 71.9331 122.623 71.9985C117.547 89.6711 91.3801 101.252 48.5787 84.2288C9.60196 68.7267 -0.308674 47.3101 3.12138 33.959C1.53884 32.8787 0.5 31.0607 0.5 29C0.5 25.6863 3.18629 23 6.5 23C7.63747 23 8.70101 23.3165 9.60736 23.8663C16.7774 17.6544 27.1921 16.0368 33.5 15.5C27.4656 16.8682 17.6278 19.5361 11.5698 25.7897ZM10.5 63L6.00004 57C-0.21686 68.9556 0.939593 86.9384 17.6235 93.2168C18.1858 95.9471 20.6032 98 23.5 98C25.5663 98 27.3887 96.9555 28.4678 95.3657C39.2031 96.0127 51.1902 93.31 57.8959 90.2836C58.5225 90.0326 59.0616 89.7708 59.5 89.5C59.0069 89.7623 58.4708 90.0242 57.8959 90.2836C52.2711 92.5367 39.5962 93.9171 29.4023 93.0841C29.4665 92.7325 29.5 92.3701 29.5 92C29.5 88.6863 26.8137 86 23.5 86C20.7423 86 18.4192 87.8604 17.7172 90.3946C5.20326 84.3773 6.75723 69.238 10.5 63ZM93.5 75V77C93.9136 76.6898 94.3632 76.3564 94.8439 76L94.8467 75.9979L94.8478 75.9971C95.3348 75.6361 95.8538 75.2513 96.3997 74.8428C97.0403 75.5533 97.968 76 99 76C100.933 76 102.5 74.433 102.5 72.5C102.5 71.7718 102.278 71.0956 101.897 70.5355C103.868 68.8997 105.946 67.0545 108 65C111.6 61.4 114.5 57.1667 115.5 55.5L115 53.5C113.333 56 110.5 60 104 66.5C102.91 67.5897 101.811 68.5778 100.75 69.4681C100.235 69.1704 99.6374 69 99 69C97.067 69 95.5 70.567 95.5 72.5C95.5 72.8096 95.5402 73.1098 95.6157 73.3957C94.6886 74.0645 93.9535 74.5969 93.5 75ZM96 5.99994V11.4999C100.713 11.4999 107.24 11.9533 112.528 14.997C112.509 15.1621 112.5 15.33 112.5 15.5C112.5 17.9853 114.515 20 117 20C117.339 20 117.668 19.9626 117.986 19.8917C118.346 20.3972 118.685 20.9327 119 21.4999C123.73 30.0148 120.333 42.9999 119 47.9999C121.939 42.9388 127.182 29.4863 120.908 17.733C121.285 17.075 121.5 16.3126 121.5 15.5C121.5 13.0147 119.485 11 117 11C116.445 11 115.913 11.1007 115.421 11.2847C109.513 6.84516 101.63 5.99994 96 5.99994ZM160.5 30.5C162.5 27.7 161.333 25 160.5 24C165.5 16 174.5 10 188 9.5C201.5 9 200.5 19 196.5 36.5C195.888 39.1757 194.903 41.828 193.634 44.4034C192.33 44.4611 190.797 44.4961 189 44.5C179 44.5214 173.167 42.1756 171.5 41C166 40 165 45.5 169 46.5C173 47.5 178 48.5 190 48C190.578 47.9759 191.145 47.9506 191.7 47.924C184.029 60.5803 170.152 70.6118 162 71C153.6 71.4 150.833 67.5 150.5 65.5C152.5 64.3333 150.5 61.5 149 61.5C141.483 61.5 136 72.5 149 75C162 77.5 174.5 73 184.5 65.5C189.348 61.8641 195.136 55.173 199.87 47.3066C205.745 46.6108 209 45.3866 209 43C209 40.8168 205.555 41.3288 202.694 42.2134C206.279 35.1547 208.793 27.5282 209 20.5C209.5 3.50001 186.5 3.00001 171.5 8.00001C156.5 13 142.5 29 149 35C154.509 40.0851 157.145 35.8325 159.342 32.2867C159.738 31.6487 160.119 31.0337 160.5 30.5ZM269.5 37.5C269.5 36.1667 268.7 33.8 265.5 35C262.273 36.2101 258.07 41.3253 253.678 46.67C252.626 47.9504 251.563 49.2439 250.5 50.5C245 57 245 64.5 250.5 67C256 69.5 264 67 270 60.5C274.8 55.3 278.333 50.6667 279.5 49C280.667 49.1667 282.6 48.2 281 43C279 36.5 274.5 34.5 269.5 37.5ZM216.5 48.0001C217.333 46.5001 218.5 43.2001 216.5 42.0001C214.485 40.7908 213.119 42.506 211.094 45.0501C210.607 45.6619 210.082 46.3216 209.5 47.0001C207.1 49.8001 202.167 56.1667 200 59C199 59.6667 197.5 61.5 199.5 63.5C202 66 204.5 65.5 206.5 63.5C208.5 61.5 236 37.0001 239.5 42.0001C239.5 43.6767 236.127 50.0757 233.603 54.8631L233.603 54.8634L233.603 54.8642L233.602 54.8657C232.363 57.2157 231.329 59.1769 231 60C230.959 60.1035 230.913 60.2163 230.864 60.3378C229.726 63.151 226.728 70.5621 232 72C236 73.091 243 67 241.5 64.5C240.355 62.591 239.27 63.4153 238.594 63.929L238.557 63.9567L238.5 64C242.833 56.5 249.327 40.3845 245 37.5C242 35.5 233 36.0001 216.5 48.0001ZM272.5 42C272.5 43.5 272.7 46.7 273.5 47.5C274.5 48.5 257.5 66 254.5 63C251.5 60 262.5 44.5 272.5 42ZM291.5 33C296.7 35 296.667 40.1666 296 42.5C305 30.5 309.5 29.5 311 32C312.347 34.2454 310.871 35.6842 309.107 37.4031L309.104 37.4061C308.905 37.6 308.703 37.7974 308.5 38C306.9 39.6 297.833 49.6667 293.5 54.5C292.833 56.8333 292.2 61.8 295 63C299.963 64.909 306.676 54.5731 311.799 46.6855L311.799 46.6852C313.385 44.2435 314.818 42.0365 316 40.5C321 34 329 29.5 334.5 34C338.9 37.6 335 43.1667 332.5 45.5C333.5 45.5 335.7 46 336.5 48C336.952 49.1295 335.975 51.4836 335.044 53.7253C333.916 56.4455 332.855 59 334.5 59C337.5 59 348 48 350 45.5C352 43 352.5 42.5 354.5 44C356.1 45.2 354.5 47.1667 353.5 48C353.167 48.8333 351.4 51.6 347 56C341.5 61.5 335 66.5 330 65C326 63.8 326.333 57.5 327 54.5C322.5 58.8333 312.5 68 308.5 70C304.5 72 303.167 67.5 303 65C302.333 66.1667 299.8 68.5 295 68.5C290.2 68.5 286.667 64.8333 285.5 63C284.5 64.3333 281.8 67.9 279 71.5C275.5 76 273.5 77 271.5 75.5C269.9 74.3 271.5 72.3333 272.5 71.5L285.5 56V39C285.5 38.6582 285.498 38.3235 285.495 37.9972C285.464 33.5496 285.444 30.6708 291.5 33ZM320.5 47.5C324.5 42.7 329.167 40.1667 331 39.5C329.667 41.1667 326.7 44.9 325.5 46.5C324.3 48.1 325 49.8333 325.5 50.5C320.5 55.3333 310.3 64.7 309.5 63.5C308.5 62 315.5 53.5 320.5 47.5Z" fill="#ca9a8e"/>
</svg>
