<svg width="180" height="77" viewBox="0 0 180 77" fill="none" xmlns="http://www.w3.org/2000/svg">
<path fill-rule="evenodd" clip-rule="evenodd" d="M141.715 76.5025H38.2513C17.1204 76.5025 0 59.3821 0 38.2513C0 17.1204 17.1204 0 38.2513 0H141.749C162.88 0 180 17.1204 180 38.2513C180 59.3821 162.846 76.5025 141.715 76.5025Z" fill="#FD1327"/>
<path fill-rule="evenodd" clip-rule="evenodd" d="M19.4208 49.1704C17.8368 42.329 27.071 33.3644 25.5208 35.2854C20.634 41.4865 17.2976 50.3163 23.802 53.9224C24.3412 54.192 24.9815 54.4616 25.6556 54.7312C24.9478 54.4953 24.3412 54.2257 23.802 53.9224C19.286 51.6981 19.4208 49.1704 19.4208 49.1704ZM27.1384 32.2186C26.9699 32.0163 26.6329 31.4771 26.8014 30.9042C27.071 29.9606 28.318 29.7583 28.318 29.7583C28.318 29.7583 27.3744 29.9268 27.0036 30.7694C26.8014 31.2075 27.0036 31.9152 27.1384 32.2186ZM45.0677 54.0235C44.5284 54.3268 43.8881 54.5964 43.2141 54.7986C43.8881 54.5627 44.4947 54.2931 45.0677 54.0235C51.5721 50.4511 48.2693 41.5876 43.4163 35.3865C41.8997 33.4655 51.0665 42.4301 49.4826 49.3052C49.4826 49.3052 49.6174 51.7992 45.0677 54.0235ZM41.8323 32.3197C41.8997 32.0163 42.1356 31.3086 41.9334 30.8705C41.5627 29.9943 40.6191 29.8594 40.6191 29.8594C40.6191 29.8594 41.866 30.0617 42.1356 31.0053C42.3041 31.5445 42.0008 32.1174 41.8323 32.3197ZM32.5644 27.1633C30.6771 30.7357 33.5417 32.5893 33.7102 33.5666C35.2268 29.5898 32.9351 29.1854 32.5644 27.1633ZM32.3959 32.3534C32.7666 34.3755 35.0583 34.7799 33.5417 38.7567C33.3732 37.813 30.5086 35.9257 32.3959 32.3534ZM31.587 37.0379C30.0705 41.2843 33.6091 43.239 33.9799 44.3511C34.9572 39.6329 32.3622 39.3296 31.587 37.0379ZM31.6882 42.2953C32.4633 44.7218 35.0583 44.8229 34.081 49.9793C33.7102 48.7997 30.1379 46.9798 31.6882 42.2953ZM30.3064 46.6765C29.1942 52.1025 33.4743 54.0235 34.0473 55.3378C34.4854 49.3726 31.4859 49.3727 30.3064 46.6765ZM36.4738 27.1633C38.3611 30.7357 35.4627 32.5893 35.2942 33.5666C33.8113 29.5898 36.1031 29.1854 36.4738 27.1633ZM36.6423 32.3871C38.5296 35.9594 35.6312 37.813 35.4627 38.7904C33.9799 34.7799 36.2379 34.3755 36.6423 32.3871ZM37.4174 37.0379C36.6423 39.3296 34.0473 39.6329 35.0246 44.3511C35.3616 43.239 38.934 41.2843 37.4174 37.0379ZM37.3163 42.2953C38.8329 46.9798 35.2605 48.7997 34.8898 49.9793C33.9125 44.8229 36.5412 44.7218 37.3163 42.2953ZM38.6644 46.6765C37.4511 49.4063 34.4854 49.3726 34.8898 55.3378C35.4964 54.0235 39.7765 52.1025 38.6644 46.6765ZM34.8898 63.898H34.0136V60.292H34.8898V63.898ZM152.609 38.9589C152.003 38.7567 151.43 38.6556 150.857 38.6556C150.014 38.6556 149.61 38.8915 149.61 39.3633L149.576 57.5958C149.61 57.0903 149.913 56.3826 150.419 55.4389C150.958 54.4953 151.699 53.4842 152.643 52.3721C153.216 51.6981 153.688 51.024 154.058 50.35C154.395 49.676 154.665 49.0019 154.867 48.3279C155.07 47.6539 155.171 46.9798 155.272 46.3058C155.339 45.6318 155.373 44.9577 155.373 44.2837C155.373 42.9019 155.137 41.7561 154.699 40.8799C154.227 39.9362 153.519 39.2959 152.609 38.9589ZM150.318 57.461V57.5284C150.318 57.6295 150.385 57.7306 150.486 57.798C150.587 57.8654 150.756 57.9328 150.924 57.9665C151.093 58.0002 151.261 58.0339 151.43 58.0676C151.598 58.1013 151.733 58.1013 151.834 58.1013C152.137 58.1013 152.272 58.0339 152.272 57.8654C152.272 57.7643 152.205 57.5621 152.07 57.2925C151.935 57.0229 151.868 56.8881 151.868 56.787C151.868 56.5848 152.07 56.4837 152.475 56.4837C152.643 56.4837 152.879 56.5174 153.182 56.5511C153.486 56.5848 153.823 56.6859 154.126 56.787C154.429 56.8881 154.699 57.0229 154.935 57.1577C155.171 57.2925 155.272 57.461 155.272 57.6969C155.272 57.798 155.238 57.9328 155.171 58.0339C155.103 58.1351 154.968 58.2362 154.766 58.3373C154.564 58.4047 154.261 58.4721 153.89 58.5395C153.519 58.6069 152.98 58.6406 152.34 58.6069C151.261 58.6069 150.318 58.4384 149.542 58.0676V65.145H151.463V65.482H142.735V65.145H144.689L144.723 40.6776C144.723 40.071 144.824 39.5992 144.993 39.2285C145.161 38.8578 145.431 38.5544 145.835 38.3859C146.206 38.1837 146.712 38.0489 147.284 37.9815C147.857 37.9141 148.565 37.8804 149.408 37.8804C150.486 37.8804 151.666 37.9815 152.98 38.15C154.294 38.3522 155.508 38.6556 156.62 39.0937C157.732 39.5318 158.709 40.1384 159.451 40.8799C160.226 41.6213 160.597 42.5649 160.597 43.6771C160.597 44.4522 160.394 45.2611 160.024 46.0362C159.653 46.8113 159.147 47.5865 158.507 48.3279C157.867 49.0693 157.159 49.8445 156.316 50.5859C155.508 51.3273 154.631 52.0688 153.755 52.7765C152.576 53.7201 151.733 54.6301 151.16 55.4726C150.621 56.3489 150.318 56.9892 150.318 57.461ZM127.367 44.6544C129.355 44.4859 131.04 44.2163 132.422 43.7782C133.804 43.4075 134.512 43.0031 134.512 42.5649L134.478 42.4301C135.32 42.5312 136.028 42.6997 136.635 42.9019C137.241 43.1042 137.545 43.3738 137.545 43.7108C137.545 44.4522 134.208 44.8903 127.502 45.0588C127.67 45.4633 128.041 46.0699 128.614 46.9461C129.187 47.8224 129.928 48.9008 130.906 50.2152C132.456 52.3384 133.231 54.0572 133.231 55.3715C133.231 56.5511 132.557 57.461 131.243 58.1013C133.433 57.9328 134.882 56.6185 135.59 54.1246C135.792 53.4842 135.893 52.6754 135.994 51.7318C136.062 50.7881 136.096 49.6423 136.096 48.3616V47.0809L140.847 46.7776C140.713 48.1594 140.477 49.4401 140.106 50.6196C139.735 51.7655 139.196 52.8776 138.556 53.8887C137.949 54.7986 137.309 55.54 136.635 56.1804C135.961 56.787 135.253 57.2925 134.444 57.6295C133.635 58.0002 132.759 58.2362 131.782 58.4047C130.804 58.5732 129.692 58.6406 128.479 58.6406C125.783 58.6406 124.435 58.3373 124.435 57.7643C124.435 57.6632 124.502 57.5621 124.671 57.4273C124.839 57.2925 125.041 57.2251 125.311 57.2251C125.715 57.124 126.154 57.0229 126.659 56.9218C127.165 56.8207 127.738 56.6859 128.344 56.5848C128.749 56.5848 128.951 56.6859 128.951 56.8544C128.951 56.9555 128.883 57.124 128.782 57.2925C128.681 57.461 128.614 57.6295 128.614 57.7306C128.614 58.0339 128.883 58.1688 129.389 58.1688C129.591 58.1688 129.726 58.1688 129.793 58.1351C130.737 58.0676 131.175 57.5621 131.209 56.6522C131.209 55.6748 130.804 54.8323 129.996 54.1583C129.187 53.4842 128.479 52.8776 127.839 52.3384C127.232 51.7992 126.693 51.2936 126.221 50.8555C125.648 50.2826 125.21 49.7771 124.839 49.3052C124.469 48.8334 124.199 48.3953 123.997 47.9572C123.794 47.5191 123.626 47.0809 123.559 46.6428C123.457 46.2047 123.424 45.6992 123.424 45.1937C123.424 44.1489 123.592 43.2053 123.929 42.329C124.266 41.4528 124.772 40.7113 125.446 40.071C126.12 39.4307 126.962 38.9589 127.94 38.6218C128.917 38.2848 130.063 38.1163 131.377 38.1163C136.028 38.1163 138.758 39.3296 139.533 41.7561H134.646C134.006 39.6329 132.591 38.5882 130.467 38.5882C128.108 38.5882 126.929 39.7677 126.929 42.1268C126.861 42.8682 127.03 43.7445 127.367 44.6544ZM114.425 58.1688L114.459 42.3964C113.28 43.8793 112.37 45.1263 111.729 46.1373C111.089 47.1483 110.583 48.1594 110.28 49.1367C109.977 50.1141 109.808 51.2262 109.741 52.4058C109.674 53.5853 109.64 55.1019 109.64 56.9218V58.1688H109.909V58.5058H104.315V58.1688H104.585V54.529C104.585 53.5516 104.551 52.6417 104.416 51.7655C104.281 50.8892 104.113 49.9793 103.776 49.0356C103.439 48.092 102.967 47.0809 102.327 45.9688C101.686 44.8903 100.81 43.6434 99.7653 42.2616L99.7316 58.1351H100.001V58.4721H92.9239V58.1351H94.8449L94.8786 38.3859H92.9576V38.0489H100.035V38.3859H99.7653V41.2843C99.7653 41.318 99.9338 41.4865 100.271 41.7898C100.608 42.0931 101.046 42.4975 101.551 43.0031C102.057 43.5086 102.63 44.0815 103.27 44.7555C103.877 45.4296 104.483 46.171 105.023 46.9798C105.596 47.7887 106.067 48.6312 106.472 49.5075C106.876 50.3837 107.146 51.2936 107.247 52.2373C107.449 51.3273 107.786 50.4511 108.224 49.5412C108.662 48.6312 109.168 47.8224 109.707 47.0135C110.246 46.2047 110.786 45.4633 111.359 44.7892C111.932 44.1152 112.437 43.5423 112.875 43.0368C113.313 42.5312 113.718 42.1268 113.987 41.8572C114.291 41.5539 114.425 41.4191 114.425 41.3854V38.4196H114.156V38.0826H121.334V38.4196H119.346L119.312 58.1688H121.301V58.5058H114.122V58.1688H114.425ZM83.0156 38.8578C82.409 38.6556 81.8361 38.5544 81.2631 38.5544C80.4206 38.5544 80.0162 38.7904 80.0162 39.2622L79.9825 57.4947C80.0162 56.9892 80.3195 56.2815 80.825 55.3378C81.3642 54.3942 82.1057 53.3831 83.0493 52.271C83.6222 51.5969 84.0941 50.9229 84.4648 50.2489C84.8018 49.5749 85.0714 48.9008 85.2736 48.2268C85.4758 47.5528 85.5769 46.8787 85.6443 46.2047C85.7117 45.5307 85.7454 44.8566 85.7454 44.1826C85.7454 42.8008 85.5095 41.655 85.0714 40.7788C84.6333 39.8351 83.9256 39.1948 83.0156 38.8578ZM80.6902 57.3262V57.3936C80.6902 57.4947 80.7576 57.5958 80.8587 57.6632C80.9598 57.7306 81.1283 57.798 81.2968 57.8317C81.4653 57.8654 81.6339 57.8991 81.8024 57.9328C81.9709 57.9665 82.1057 57.9665 82.2068 57.9665C82.5101 57.9665 82.6449 57.8991 82.6449 57.7306C82.6449 57.6295 82.5775 57.4273 82.4427 57.1577C82.3079 56.8881 82.2405 56.7533 82.2405 56.6522C82.2405 56.45 82.4427 56.3489 82.8471 56.3489C83.0156 56.3489 83.2515 56.3826 83.5548 56.4163C83.8581 56.45 84.1952 56.5511 84.4985 56.6522C84.8018 56.7533 85.0714 56.8881 85.3073 57.0229C85.5432 57.1577 85.6443 57.3262 85.6443 57.5621C85.6443 57.6632 85.6106 57.798 85.5432 57.8991C85.4758 58.0002 85.341 58.1014 85.1388 58.2025C84.9366 58.2699 84.6333 58.3373 84.2626 58.4047C83.8919 58.4721 83.3526 58.4721 82.7123 58.4721C81.6338 58.4721 80.6902 58.3036 79.9151 57.9328V65.0102H81.8361V65.3472H73.1074V65.0102H75.062L75.0957 40.5428C75.0957 39.9362 75.1969 39.4644 75.3654 39.0937C75.5339 38.723 75.8035 38.4196 76.2079 38.2511C76.5786 38.0489 77.0841 37.9141 77.6571 37.8467C78.23 37.7793 78.9377 37.7456 79.7803 37.7456C80.8587 37.7456 82.0383 37.8467 83.3526 38.0152C84.667 38.2174 85.8802 38.5207 86.9924 38.9589C88.1045 39.397 89.0819 40.0036 89.8233 40.745C90.5985 41.4865 90.9692 42.4301 90.9692 43.5423C90.9692 44.3174 90.767 45.1263 90.3963 45.9014C90.0255 46.6765 89.52 47.4517 88.8797 48.1931C88.2394 48.9345 87.5316 49.7097 86.6891 50.4511C85.8802 51.1925 85.004 51.934 84.1278 52.6417C82.9482 53.5853 82.1057 54.4953 81.5327 55.3378C81.0272 56.2478 80.7239 56.8881 80.6902 57.3262ZM57.7731 44.5196C59.7615 44.3511 61.4466 44.0815 62.8284 43.6434C64.2101 43.2727 64.9179 42.8682 64.9179 42.4301L64.8842 42.2953C65.7267 42.3964 66.4344 42.5649 67.0411 42.7671C67.6477 42.9694 67.951 43.239 67.951 43.576C67.951 44.3174 64.6146 44.7555 57.908 44.924C58.0765 45.3285 58.4472 45.9351 59.0201 46.8113C59.593 47.6876 60.3345 48.766 61.3118 50.0804C62.8621 52.2036 63.6372 53.9224 63.6372 55.2367C63.6372 56.4163 62.9632 57.3262 61.6488 57.9665C63.8394 57.798 65.2886 56.4837 65.9963 53.9898C66.1985 53.3494 66.2996 52.5406 66.4007 51.5969C66.4682 50.6533 66.5019 49.5075 66.5019 48.2268V46.9461L71.2538 46.6428C71.119 48.0246 70.8831 49.3052 70.5123 50.4848C70.1416 51.6306 69.6024 52.7428 68.9621 53.7539C68.3554 54.6638 67.7151 55.4052 67.0411 56.0456C66.367 56.6522 65.6593 57.1577 64.8505 57.4947C64.0416 57.8654 63.1654 58.1013 62.1881 58.2699C61.2107 58.4384 60.0986 58.5058 58.8853 58.5058C56.1892 58.5058 54.8411 58.2025 54.8411 57.6295C54.8411 57.5284 54.9085 57.4273 55.077 57.2925C55.2455 57.1577 55.4477 57.0903 55.7174 57.0903C56.1218 56.9892 56.5599 56.8881 57.0654 56.787C57.5709 56.6859 58.1439 56.5511 58.7505 56.45C59.1549 56.45 59.3571 56.5511 59.3571 56.7196C59.3571 56.8207 59.2897 56.9892 59.1886 57.1577C59.0875 57.3262 59.0201 57.4947 59.0201 57.5958C59.0201 57.8991 59.2897 58.0339 59.7952 58.0339C59.9975 58.0339 60.1323 58.0339 60.1997 58.0002C61.1433 57.9328 61.5814 57.4273 61.6151 56.5174C61.6151 55.54 61.2107 54.6975 60.4019 54.0235C59.593 53.3494 58.8853 52.7428 58.245 52.2036C57.6383 51.6644 57.0991 51.1588 56.6273 50.7207C56.0544 50.1478 55.6162 49.6423 55.2455 49.1704C54.8748 48.6986 54.6052 48.2605 54.403 47.8224C54.2008 47.3843 54.0323 46.9461 53.9649 46.508C53.8638 46.0699 53.8301 45.5644 53.8301 45.0588C53.8301 44.0141 53.9986 43.0705 54.3356 42.1942C54.6726 41.318 55.1781 40.5765 55.8522 39.9362C56.5262 39.2959 57.3687 38.8241 58.3461 38.487C59.3234 38.15 60.4693 37.9815 61.7836 37.9815C66.4345 37.9815 69.1643 39.1948 69.9394 41.6213H65.0527C64.4124 39.4981 62.9969 38.4533 60.8737 38.4533C58.5146 38.4533 57.335 39.6329 57.335 41.992C57.2339 42.7671 57.4361 43.6097 57.7731 44.5196ZM35.5638 14.5926H36.0019L35.9682 26.6578H35.3616L35.3953 14.5926H35.5638ZM34.3843 10.9866H34.8224L34.7887 25.4445H34.2158L34.2495 10.9866H34.3843ZM33.2047 14.5926H33.6428L33.6091 26.6578H33.0025L33.0362 14.5926H33.2047ZM23.5661 49.4401C21.9147 45.3285 24.7119 39.5318 27.9136 32.96C27.981 32.96 28.0821 32.96 28.1495 32.96C29.0931 32.96 29.8683 32.1849 29.8683 31.2412C29.8683 30.2976 29.0931 29.5224 28.1495 29.5224C27.2058 29.5224 26.4307 30.2976 26.4307 31.2412C26.4307 31.713 26.5992 32.1175 26.9025 32.4208C23.5998 35.555 16.8932 44.3174 18.9827 50.6196C19.96 53.5853 25.0489 55.6748 30.7782 56.4837C31.7893 58.4384 33.9125 58.9776 34.4517 59.6516V59.719C34.4517 59.719 34.4517 59.6853 34.4854 59.6853L34.5191 59.719V59.6516C35.0583 58.9776 37.1478 58.4721 38.1926 56.5511C43.9218 55.7422 48.9433 53.7201 49.9544 50.7544C52.0776 44.4522 45.4047 35.6898 42.1019 32.5219C42.4052 32.2186 42.5738 31.7804 42.5738 31.3423C42.5738 30.3987 41.7986 29.6235 40.855 29.6235C39.9113 29.6235 39.1362 30.3987 39.1362 31.3423C39.1362 32.286 39.9113 33.0611 40.855 33.0611C40.9224 33.0611 41.0235 33.0611 41.0909 33.0611C44.2588 39.6329 47.0561 45.4633 45.371 49.5749C44.0566 52.7765 40.9561 54.7312 38.5633 55.7759C38.7992 55.1019 38.9003 54.2594 38.7992 53.2483C37.4848 55.2367 34.8898 54.5627 34.5191 59.3146C34.1821 54.5964 31.587 55.2367 30.2727 53.2483C30.1716 54.2257 30.2727 55.0682 30.4749 55.7422C28.0484 54.6301 24.8804 52.6754 23.5661 49.4401Z" fill="#FFEC00"/>
<path fill-rule="evenodd" clip-rule="evenodd" d="M60.6039 18.5695V28.8821H60.4691V29.0506H63.6707V28.8821H62.7945V18.2661H63.6707V18.0976H55.2791V18.2661H56.1553V28.8821H55.2791V29.0506H58.4807V28.8821H58.3459V18.4347C58.5144 18.4347 58.6492 18.401 58.7503 18.3673C58.8514 18.3336 59.0536 18.3336 59.3232 18.3336C59.7614 18.3336 60.0984 18.3673 60.3006 18.401C60.5028 18.4684 60.6039 18.5358 60.6039 18.5695ZM68.0182 27.1297C68.0182 26.86 68.5238 26.2197 69.5685 25.2087C69.9729 24.8042 70.3436 24.4335 70.7144 24.0965C71.0851 23.7258 71.4221 23.3888 71.6917 23.0518C71.9613 22.7148 72.1972 22.344 72.3994 21.9733C72.5679 21.6026 72.6691 21.1982 72.6691 20.7938C72.6691 20.4567 72.6016 20.1534 72.4331 19.8838C72.2646 19.6142 72.0624 19.3783 71.7928 19.2098C71.5232 19.0076 71.2199 18.8391 70.8829 18.7043C70.5459 18.5695 70.1751 18.4684 69.8044 18.3673C69.4337 18.2998 69.063 18.2324 68.6586 18.1987C68.2879 18.165 67.9171 18.1313 67.6138 18.1313C67.2431 18.1313 66.9398 18.1313 66.6702 18.165C66.4006 18.1987 66.1984 18.2661 66.0298 18.3673C65.8613 18.4684 65.7265 18.6032 65.6591 18.8054C65.5917 18.9739 65.5243 19.2435 65.5243 19.5805V28.9832H64.6144V29.1518H70.3099V28.9832H67.6812V27.5341C68.0182 27.7363 68.4564 27.8374 68.9282 27.8374C69.2315 27.8374 69.4674 27.8374 69.6359 27.8037C69.8044 27.77 69.9392 27.7363 70.0403 27.7026C70.1414 27.6689 70.2088 27.6015 70.2425 27.5341C70.2762 27.4667 70.2762 27.3993 70.2762 27.3319C70.2762 27.2308 70.2088 27.1297 70.1077 27.0623C70.0066 26.9948 69.8718 26.9274 69.737 26.86C69.6022 26.7926 69.4337 26.7589 69.2989 26.7589C69.1641 26.7252 69.063 26.7252 68.9619 26.7252C68.7934 26.7252 68.6923 26.7926 68.6923 26.8937C68.6923 26.9274 68.6923 26.9611 68.726 26.9948C68.7597 27.0623 68.7597 27.096 68.7934 27.1634C68.8271 27.2308 68.8271 27.2645 68.8608 27.3319C68.8945 27.3656 68.8945 27.433 68.8945 27.4667C68.8945 27.5678 68.8271 27.6015 68.6923 27.6015C68.6586 27.6015 68.5912 27.6015 68.4901 27.6015C68.4227 27.6015 68.3553 27.5678 68.2541 27.5341C68.1867 27.5004 68.1193 27.4667 68.0519 27.433C67.9845 27.3993 67.9845 27.1971 68.0182 27.1297ZM69.0293 18.5695C69.8718 18.9402 70.2762 19.749 70.2762 21.0297C70.2762 22.4788 69.8718 23.7932 69.0293 24.9391C68.5912 25.512 68.2542 26.0175 68.0182 26.3882C67.7823 26.7589 67.6475 27.0286 67.6475 27.1971V18.7717C67.6475 18.5358 67.8497 18.401 68.2204 18.401C68.5238 18.401 68.7597 18.4347 69.0293 18.5695ZM76.5447 26.7589C76.8817 27.096 77.0503 27.5341 77.0503 28.0733C77.0503 28.3766 76.9829 28.6125 76.848 28.7473C76.7132 28.8821 76.511 28.9495 76.2751 28.9495C76.0055 28.9495 75.8707 28.8484 75.8707 28.6799V28.3429C75.8707 28.1744 75.7696 28.107 75.5674 28.107C75.4663 28.107 75.3315 28.107 75.163 28.1407C74.9608 28.1744 74.7923 28.2081 74.59 28.2755C74.3878 28.3429 74.2193 28.4103 74.0845 28.4777C73.9497 28.5451 73.8823 28.6462 73.8823 28.7136C73.8823 28.8484 73.9497 28.9158 74.0845 28.9832C74.2193 29.0506 74.3878 29.1181 74.5563 29.1518C74.7248 29.1855 74.9271 29.2192 75.1293 29.2192C75.3315 29.2192 75.5 29.2192 75.6348 29.2192C76.7469 29.2192 77.6569 29.0843 78.3983 28.781C79.1398 28.4777 79.7127 28.0733 80.1845 27.5678C80.6226 27.0623 80.9259 26.4556 81.1281 25.7479C81.3304 25.0402 81.3978 24.2987 81.3978 23.4899C81.3978 22.7485 81.3303 22.0744 81.1955 21.4341C81.0607 20.7938 80.8248 20.2208 80.4878 19.7153C80.1508 19.2098 79.7127 18.8391 79.1735 18.5358C78.6342 18.2324 77.9602 18.0976 77.1851 18.0976C76.6121 18.0976 76.1066 18.1987 75.6348 18.3673C75.1967 18.5695 74.826 18.8054 74.5226 19.1761C74.2193 19.5131 73.9834 19.9175 73.8149 20.3893C73.6464 20.8612 73.579 21.3667 73.579 21.9396C73.579 22.4788 73.6801 22.9507 73.8486 23.4225C74.0508 23.8943 74.3878 24.3998 74.8597 24.9728C75.0619 25.2087 75.2978 25.4783 75.5674 25.7816C75.837 26.0849 76.174 26.3882 76.5447 26.7589ZM76.4099 18.3336C76.4773 18.3336 76.5447 18.3336 76.5784 18.3336C76.6121 18.3336 76.6795 18.3336 76.7132 18.3336C77.084 18.3336 77.421 18.4347 77.7243 18.6369C78.0276 18.8391 78.2972 19.1424 78.4994 19.5468C78.7016 19.9512 78.8701 20.4567 79.0049 21.0634C79.1397 21.67 79.1735 22.3777 79.1735 23.2203C79.1735 24.9728 79.0049 26.3208 78.6679 27.2645C78.3309 28.2081 77.7243 28.7473 76.8817 28.8821C77.4547 28.5114 77.758 27.9722 77.758 27.2308C77.758 26.3545 77.3536 25.3435 76.5784 24.1639C75.7022 22.8159 75.2641 21.5015 75.2641 20.1871C75.2978 19.1087 75.6685 18.4684 76.4099 18.3336ZM84.8016 28.9495C84.5994 28.9495 84.4983 28.8821 84.4983 28.7473L84.6331 28.2418C84.6331 28.1407 84.532 28.0733 84.3298 28.0733C83.7906 28.2081 83.3187 28.3092 82.9143 28.444C82.6784 28.5114 82.5773 28.6125 82.5773 28.7136C82.5773 29.0169 83.1839 29.1855 84.3972 29.1855C84.9364 29.1855 85.4419 29.1518 85.8801 29.0506C86.3182 28.9832 86.6889 28.8147 87.0596 28.6462C87.4303 28.444 87.7673 28.2081 88.0707 27.8711C88.374 27.5341 88.711 27.1297 89.0143 26.6578C89.385 26.0849 89.6546 25.5457 89.8231 25.0065C89.9916 24.4672 90.0928 23.8269 90.0928 23.1192L87.7673 23.3551V24.4335C87.7673 27.2308 87.0596 28.7136 85.6442 28.9495C86.2171 28.5788 86.5204 28.0396 86.5204 27.2982C86.5204 26.4219 86.1497 25.4109 85.3408 24.2313C84.4646 22.8833 84.0265 21.5689 84.0265 20.2545C84.0265 18.9739 84.532 18.3336 85.5093 18.3336C86.453 18.3336 87.0933 19.0413 87.4977 20.423H89.7557C89.6546 20.086 89.5198 19.7827 89.2839 19.4794C89.048 19.2098 88.7784 18.9402 88.4414 18.738C88.1044 18.5358 87.7336 18.3673 87.2955 18.2661C86.8574 18.165 86.4193 18.0976 85.9475 18.0976C85.3408 18.0976 84.8353 18.1987 84.3635 18.3673C83.9254 18.5358 83.5547 18.8054 83.2513 19.1424C82.948 19.4794 82.7121 19.8838 82.5773 20.3556C82.4088 20.8275 82.3414 21.3667 82.3414 21.9396C82.3414 22.4451 82.4425 22.9507 82.6447 23.4225C82.8469 23.8943 83.1839 24.3998 83.6558 24.9728C83.7906 25.1076 83.9591 25.3098 84.195 25.512C84.4309 25.7142 84.6668 25.9501 84.9027 26.2197C85.1386 26.4893 85.3408 26.7589 85.543 27.0286C85.7115 27.2982 85.8127 27.6015 85.8127 27.9048C85.8127 28.2081 85.7453 28.444 85.5767 28.6125C85.4419 28.781 85.206 28.8821 84.9701 28.8821H84.8016V28.9495ZM94.7773 18.3336V28.9495H91.5082V29.118H100.237V28.9495H96.9679V18.3336H98.2148V20.7264C98.2148 20.8275 98.3159 20.9623 98.5518 21.1308C98.7878 21.2993 99.0237 21.4678 99.327 21.6363C99.6303 21.8048 99.8999 21.9396 100.17 22.0407C100.439 22.1418 100.608 22.2092 100.709 22.2092C100.54 21.9733 100.405 21.7711 100.372 21.5352C100.304 21.333 100.271 21.0634 100.271 20.7264V18.165H91.5419V20.7264C91.5419 21.0634 91.5082 21.333 91.4071 21.5352C91.3397 21.7374 91.2049 21.9396 91.0027 22.1418C91.0701 22.1418 91.1712 22.1081 91.3397 22.0744C91.5082 22.0407 91.6767 21.9733 91.8452 21.8722C92.0474 21.8048 92.216 21.7037 92.4182 21.6026C92.6204 21.5015 92.7889 21.4004 92.9574 21.2993C93.1259 21.1982 93.2607 21.0971 93.3618 20.996C93.4629 20.8949 93.5303 20.8275 93.5303 20.7264V18.3336H94.7773ZM104.584 26.7926C104.921 27.1297 105.09 27.5678 105.09 28.107C105.09 28.4103 105.023 28.6462 104.888 28.781C104.753 28.9158 104.551 28.9832 104.315 28.9832C104.045 28.9832 103.91 28.8821 103.91 28.7136V28.3766C103.91 28.2081 103.809 28.1407 103.607 28.1407C103.506 28.1407 103.371 28.1407 103.203 28.1744C103 28.2081 102.832 28.2418 102.63 28.3092C102.428 28.3766 102.259 28.444 102.124 28.5114C101.989 28.5788 101.922 28.6799 101.922 28.7473C101.922 28.8821 101.989 28.9495 102.124 29.0169C102.259 29.0843 102.428 29.1517 102.596 29.1855C102.765 29.2192 102.967 29.2529 103.169 29.2529C103.371 29.2529 103.54 29.2529 103.674 29.2529C104.787 29.2529 105.697 29.1181 106.438 28.8147C107.179 28.5114 107.752 28.107 108.224 27.6015C108.662 27.096 108.966 26.4893 109.168 25.7816C109.37 25.0739 109.437 24.3324 109.437 23.5236C109.437 22.7822 109.37 22.1081 109.235 21.4678C109.1 20.8275 108.865 20.2545 108.528 19.749C108.19 19.2435 107.752 18.8728 107.213 18.5695C106.674 18.2661 106 18.1313 105.225 18.1313C104.652 18.1313 104.146 18.2324 103.674 18.401C103.236 18.6032 102.866 18.8391 102.562 19.2098C102.259 19.5805 102.023 19.9512 101.855 20.423C101.686 20.8949 101.619 21.4004 101.619 21.9733C101.619 22.5125 101.72 22.9844 101.888 23.4562C102.091 23.928 102.428 24.4335 102.899 25.0065C103.102 25.2424 103.337 25.512 103.607 25.8153C103.877 26.1186 104.18 26.4556 104.584 26.7926ZM104.45 18.401C104.517 18.401 104.584 18.401 104.618 18.401C104.652 18.401 104.719 18.401 104.753 18.401C105.124 18.401 105.461 18.5021 105.764 18.7043C106.067 18.9065 106.337 19.2098 106.539 19.6142C106.741 20.0186 106.91 20.5242 107.045 21.1308C107.179 21.7374 107.213 22.4451 107.213 23.2877C107.213 25.0402 107.045 26.3882 106.708 27.3319C106.371 28.2755 105.764 28.8147 104.921 28.9495C105.494 28.5788 105.798 28.0396 105.798 27.2982C105.798 26.4219 105.427 25.4109 104.618 24.2313C103.742 22.8833 103.304 21.5689 103.304 20.2545C103.337 19.1424 103.708 18.5021 104.45 18.401ZM121.637 18.6706V28.9832H121.503V29.1518H124.704V28.9832H123.828L123.862 18.3673H124.738V18.1987H116.346V18.3673H117.222V28.9832H116.346V29.1518H119.548V28.9832H119.413V18.5358C119.582 18.5358 119.716 18.5021 119.818 18.4684C119.919 18.4347 120.121 18.4347 120.39 18.4347C120.829 18.4347 121.166 18.4684 121.368 18.5021C121.57 18.5695 121.637 18.6369 121.637 18.6706ZM127.468 21.7374C127.4 21.5015 127.333 21.2319 127.299 21.0297C127.266 20.7938 127.232 20.5579 127.232 20.3556C127.232 19.075 127.771 18.4347 128.816 18.4347C129.793 18.4347 130.4 19.0076 130.703 20.1534H132.927C132.557 18.8391 131.343 18.1987 129.254 18.1987C128.681 18.1987 128.142 18.2998 127.704 18.4684C127.266 18.6369 126.861 18.9065 126.558 19.2435C126.255 19.5805 126.019 19.9849 125.85 20.4567C125.682 20.9286 125.614 21.4341 125.614 22.007C125.614 22.2766 125.648 22.5462 125.682 22.7822C125.715 23.0181 125.783 23.254 125.884 23.4899C125.985 23.7258 126.12 23.9617 126.288 24.2313C126.457 24.4672 126.659 24.7705 126.895 25.0402C127.097 25.2761 127.333 25.5457 127.603 25.849C127.872 26.1523 128.209 26.4893 128.58 26.8263C128.951 27.1971 129.119 27.6352 129.119 28.1744C129.119 28.6799 128.917 28.9495 128.479 28.9832C128.445 28.9832 128.378 28.9832 128.31 28.9832C128.209 28.9832 128.108 28.9495 128.041 28.9158C127.973 28.8821 127.94 28.8147 127.94 28.7473C127.94 28.7136 127.973 28.6125 128.007 28.5451C128.041 28.444 128.074 28.3766 128.074 28.3092C128.074 28.2081 127.973 28.1744 127.805 28.1744C127.535 28.2418 127.299 28.3092 127.063 28.3766C126.827 28.444 126.625 28.4777 126.423 28.5451C126.322 28.5451 126.221 28.5788 126.153 28.6462C126.086 28.7136 126.052 28.781 126.052 28.8484C126.052 29.1517 126.659 29.3203 127.872 29.3203C128.411 29.3203 128.917 29.2866 129.355 29.1855C129.793 29.0843 130.198 28.9495 130.568 28.7473C130.939 28.5451 131.242 28.2755 131.546 27.9385C131.849 27.6015 132.119 27.1971 132.388 26.6915C132.692 26.1523 132.927 25.5794 133.096 24.9391C133.264 24.2987 133.399 23.6247 133.433 22.8833L131.31 23.0518V23.7258C131.31 24.4335 131.276 25.0402 131.242 25.5457C131.209 26.0512 131.141 26.4893 131.074 26.86C130.771 28.1744 130.096 28.9158 129.119 28.9832C129.726 28.6462 130.029 28.1744 130.029 27.5341C130.029 26.8263 129.692 25.9164 128.984 24.7368C128.108 23.3214 127.603 22.3777 127.468 21.9733C130.501 21.8722 132.017 21.6363 132.017 21.2319C132.017 21.0297 131.883 20.8949 131.613 20.7938C131.343 20.6927 131.006 20.5916 130.636 20.5579V20.6253C130.636 20.8612 130.332 21.0634 129.692 21.2993C129.355 21.4004 129.018 21.5015 128.647 21.5689C128.344 21.6363 127.906 21.7037 127.468 21.7374ZM136.938 29.0169C136.736 29.0169 136.635 28.9495 136.635 28.8147L136.769 28.3092C136.769 28.2081 136.668 28.1407 136.466 28.1407C135.927 28.2755 135.455 28.3766 135.051 28.5114C134.815 28.5788 134.714 28.6799 134.714 28.781C134.714 29.0843 135.32 29.2529 136.533 29.2529C137.073 29.2529 137.578 29.2192 138.016 29.118C138.454 29.0506 138.825 28.8821 139.196 28.7136C139.567 28.5451 139.904 28.2755 140.207 27.9385C140.51 27.6015 140.847 27.1971 141.151 26.7252C141.521 26.1523 141.791 25.6131 141.959 25.0739C142.128 24.5346 142.229 23.8943 142.229 23.1866L139.904 23.4225V24.5009C139.904 27.2982 139.196 28.781 137.78 29.0169C138.353 28.6462 138.657 28.107 138.657 27.3656C138.657 26.4893 138.286 25.4783 137.477 24.2987C136.601 22.9507 136.163 21.6363 136.163 20.3219C136.163 19.0413 136.668 18.401 137.646 18.401C138.589 18.401 139.23 19.1087 139.634 20.4905H141.892C141.791 20.1534 141.656 19.8501 141.42 19.5468C141.184 19.2772 140.915 19.0076 140.578 18.8054C140.241 18.6032 139.87 18.4347 139.432 18.3336C138.994 18.2324 138.556 18.165 138.084 18.165C137.477 18.165 136.972 18.2661 136.5 18.4347C136.028 18.6032 135.691 18.8728 135.388 19.2098C135.084 19.5468 134.848 19.9512 134.714 20.423C134.545 20.8949 134.478 21.4341 134.478 22.007C134.478 22.5125 134.579 23.0181 134.781 23.4899C134.983 23.9617 135.32 24.4672 135.792 25.0402C135.927 25.175 136.095 25.3772 136.331 25.5794C136.567 25.7816 136.803 26.0175 137.039 26.2871C137.275 26.5567 137.477 26.8263 137.679 27.096C137.848 27.3656 137.949 27.6689 137.949 27.9722C137.949 28.2755 137.882 28.5114 137.713 28.6799C137.578 28.8484 137.342 28.9495 137.106 28.9495H136.938V29.0169ZM146.206 21.4004C146.475 21.4678 146.779 21.5352 147.183 21.5689C147.554 21.6026 147.958 21.6363 148.43 21.6363V29.0506H148.295V29.2192H151.497V29.0506H150.621V18.4347H151.497V18.2661H148.295V18.4347H148.43V21.3667C147.419 21.2993 146.678 21.0297 146.206 20.6253V18.4347H146.341V18.2661H143.139V18.4347H144.015V29.0506H143.139V29.2192H146.341V29.0506H146.206V21.4004ZM157.058 29.0843H156.923V29.2529H160.293V29.0843H159.282V19.5805C159.282 19.2772 159.248 19.0413 159.147 18.8391C159.046 18.6706 158.911 18.5358 158.743 18.4347C158.574 18.3336 158.338 18.2661 158.069 18.2324C157.799 18.1987 157.496 18.1987 157.125 18.1987C156.754 18.1987 156.35 18.1987 155.912 18.2324C155.507 18.2661 155.103 18.3336 154.766 18.4684C154.395 18.6032 154.126 18.7717 153.89 19.0076C153.654 19.2435 153.553 19.5805 153.519 20.0186C153.519 20.5579 153.688 20.9623 153.991 21.2319C154.328 21.5015 154.732 21.6363 155.204 21.6363C155.44 21.6363 155.676 21.6363 155.878 21.5689C156.114 21.5352 156.316 21.4678 156.552 21.4004C156.384 21.6026 156.148 21.8048 155.912 22.007C155.676 22.2092 155.373 22.4451 155.036 22.7148C153.249 24.0965 152.34 25.6468 152.34 27.3656C152.34 27.9722 152.441 28.6125 152.71 29.2866H155.373V29.118H155.238C154.766 28.1744 154.53 27.1634 154.53 26.0512C154.53 24.7368 154.867 23.7258 155.541 22.9844C156.316 22.1418 156.788 21.5352 156.99 21.1645L157.058 29.0843ZM157.058 20.2208C157.058 20.5579 157.024 20.7601 156.923 20.8949C156.822 21.0297 156.653 21.0971 156.384 21.0971C156.215 21.0971 156.047 21.0634 155.878 20.996C155.71 20.9286 155.541 20.8612 155.406 20.7264C155.272 20.6253 155.137 20.4567 155.036 20.3219C154.935 20.1534 154.901 19.9512 154.901 19.749C154.901 19.5468 154.935 19.3783 155.036 19.2098C155.137 19.0413 155.238 18.9065 155.373 18.8054C155.507 18.7043 155.676 18.6032 155.878 18.5358C156.08 18.4684 156.249 18.4347 156.451 18.4347C156.822 18.4347 157.024 18.5695 157.058 18.8054V20.2208Z" fill="#FFEC00"/>
</svg>
