<svg width="38" height="38" viewBox="0 0 38 38" fill="none" xmlns="http://www.w3.org/2000/svg">
<circle cx="19" cy="19" r="19" fill="#FD1327"/>
<path fill-rule="evenodd" clip-rule="evenodd" d="M10.2789 24.7759C9.34661 20.7494 14.7814 15.4733 13.869 16.6039C10.9929 20.2535 9.02925 25.4503 12.8574 27.5727C13.1748 27.7314 13.5517 27.89 13.9484 28.0487C13.5318 27.9099 13.1748 27.7512 12.8574 27.5727C10.1995 26.2636 10.2789 24.7759 10.2789 24.7759ZM14.8211 14.7989C14.7219 14.6799 14.5236 14.3625 14.6228 14.0253C14.7814 13.4699 15.5153 13.3509 15.5153 13.3509C15.5153 13.3509 14.96 13.4501 14.7418 13.946C14.6228 14.2038 14.7418 14.6203 14.8211 14.7989ZM25.3734 27.6322C25.056 27.8107 24.6792 27.9694 24.2825 28.0884C24.6792 27.9496 25.0362 27.7909 25.3734 27.6322C29.2016 25.5297 27.2577 20.313 24.4015 16.6634C23.5089 15.5328 28.904 20.8089 27.9718 24.8553C27.9718 24.8553 28.0511 26.3231 25.3734 27.6322ZM23.4692 14.8584C23.5089 14.6799 23.6477 14.2633 23.5287 14.0055C23.3105 13.4897 22.7552 13.4104 22.7552 13.4104C22.7552 13.4104 23.4891 13.5294 23.6477 14.0848C23.7469 14.4022 23.5684 14.7394 23.4692 14.8584ZM18.0146 11.8236C16.9038 13.9261 18.5898 15.0171 18.689 15.5923C19.5815 13.2517 18.2327 13.0137 18.0146 11.8236ZM17.9154 14.8782C18.1336 16.0683 19.4824 16.3063 18.5898 18.6469C18.4906 18.0915 16.8046 16.9807 17.9154 14.8782ZM17.4393 17.6353C16.5468 20.1345 18.6294 21.285 18.8476 21.9395C19.4229 19.1626 17.8955 18.9841 17.4393 17.6353ZM17.4988 20.7296C17.9551 22.1577 19.4824 22.2172 18.9071 25.252C18.689 24.5577 16.5864 23.4867 17.4988 20.7296ZM16.6856 23.3081C16.031 26.5016 18.5501 27.6322 18.8873 28.4058C19.1452 24.8949 17.3798 24.8949 16.6856 23.3081ZM20.3154 11.8236C21.4262 13.9261 19.7204 15.0171 19.6212 15.5923C18.7485 13.2517 20.0972 13.0137 20.3154 11.8236ZM20.4146 14.898C21.5254 17.0006 19.8196 18.0915 19.7204 18.6667C18.8476 16.3063 20.1766 16.0683 20.4146 14.898ZM20.8708 17.6353C20.4146 18.9841 18.8873 19.1626 19.4625 21.9395C19.6609 21.285 21.7634 20.1345 20.8708 17.6353ZM20.8113 20.7296C21.7039 23.4867 19.6014 24.5577 19.3832 25.252C18.808 22.2172 20.3551 22.1577 20.8113 20.7296ZM21.6047 23.3081C20.8907 24.9148 19.1452 24.8949 19.3832 28.4058C19.7402 27.6322 22.2593 26.5016 21.6047 23.3081ZM19.3832 33.4439H18.8675V31.3215H19.3832V33.4439ZM19.7799 4.42509H20.0377L20.0179 11.5261H19.6609L19.6807 4.42509H19.7799ZM19.0857 2.30273H19.3435L19.3237 10.812H18.9865L19.0063 2.30273H19.0857ZM18.3914 4.42509H18.6493L18.6294 11.5261H18.2724L18.2923 4.42509H18.3914ZM12.7186 24.9346C11.7467 22.5147 13.393 19.1031 15.2773 15.2352C15.317 15.2352 15.3765 15.2352 15.4162 15.2352C15.9715 15.2352 16.4278 14.779 16.4278 14.2236C16.4278 13.6683 15.9715 13.2121 15.4162 13.2121C14.8608 13.2121 14.4046 13.6683 14.4046 14.2236C14.4046 14.5013 14.5037 14.7394 14.6823 14.9179C12.7384 16.7625 8.79123 21.9197 10.021 25.6288C10.5962 27.3743 13.5913 28.6041 16.9633 29.0802C17.5584 30.2306 18.808 30.548 19.1253 30.9447V30.9843C19.1253 30.9843 19.1253 30.9645 19.1452 30.9645L19.165 30.9843V30.9447C19.4824 30.548 20.7121 30.2504 21.327 29.1198C24.699 28.6438 27.6544 27.4537 28.2495 25.7082C29.4991 21.999 25.5717 16.8419 23.6279 14.9774C23.8064 14.7989 23.9056 14.541 23.9056 14.2832C23.9056 13.7278 23.4494 13.2716 22.894 13.2716C22.3386 13.2716 21.8824 13.7278 21.8824 14.2832C21.8824 14.8385 22.3386 15.2947 22.894 15.2947C22.9337 15.2947 22.9932 15.2947 23.0328 15.2947C24.8973 19.1626 26.5437 22.5941 25.5519 25.014C24.7783 26.8983 22.9535 28.0487 21.5452 28.6636C21.6841 28.2669 21.7436 27.771 21.6841 27.176C20.9105 28.3463 19.3832 27.9496 19.165 30.7463C18.9666 27.9694 17.4393 28.3463 16.6658 27.176C16.6063 27.7512 16.6658 28.2471 16.7848 28.6438C15.3567 27.9892 13.4922 26.8388 12.7186 24.9346Z" fill="#FFEC00"/>
</svg>
