<!--Scalable Vector Graphic-->
 <svg class="helpIcon" width="20" height="20" viewBox="0 0 20 20" fill="none" xmlns="http://www.w3.org/2000/svg">
                                                <path d="M10 0C4.486 0 0 4.486 0 10C0 15.514 4.486 20 10 20C15.514 20 20 15.5138 20 10C20 4.486 15.514 0 10 0ZM10 18.9351C5.07333 18.9351 1.06489 14.9267 1.06489 10C1.06489 5.07333 5.07333 1.06489 10 1.06489C14.9267 1.06489 18.9351 5.07333 18.9351 10C18.9351 14.9267 14.9267 18.9351 10 18.9351Z" fill="#f2a900"></path>
                                                <path d="M10.0196 13.1426C9.47671 13.1426 9.03516 13.5846 9.03516 14.1279C9.03516 14.6706 9.47671 15.1115 10.0196 15.1115C10.5627 15.1115 11.0043 14.6708 11.0043 14.1279C11.0045 13.5846 10.5627 13.1426 10.0196 13.1426Z" fill="#f2a900"></path>
                                                <path d="M12.4335 5.62292C11.7464 5.1218 11.0017 4.88892 10.0886 4.88892C9.2677 4.88892 8.47548 5.16203 7.73392 5.70047C7.19259 6.09314 6.83681 6.68181 6.67637 7.45025L6.63281 7.65803L7.77948 7.78247L7.8217 7.62247C7.95659 7.11358 8.24126 6.67781 8.64637 6.36247C9.03659 6.05669 9.52348 5.90158 10.0924 5.90158C10.7221 5.90158 11.2355 6.05358 11.6188 6.35314C12.0119 6.66025 12.2197 7.10403 12.2197 7.63692C12.2197 7.89247 12.1475 8.13269 12.0046 8.35114C11.8644 8.56603 11.5761 8.83803 11.1237 9.18358C10.4824 9.67158 10.0553 10.0647 9.85415 10.3516C9.56903 10.7574 9.42481 11.2682 9.42503 11.8802L9.44015 12.162H10.5995L10.6097 11.9798C10.6364 11.4976 10.7117 11.1405 10.8335 10.9182C10.9728 10.6654 11.3135 10.3331 11.8761 9.90203C12.4975 9.41758 12.8073 9.00092 13.029 8.6558C13.2566 8.2938 13.3675 7.93558 13.3675 7.56069C13.3673 6.76225 13.0268 6.05603 12.4335 5.62292Z" fill="#f2a900"></path>
                                            </svg>

