<svg width="353" height="52" viewBox="0 0 353 52" fill="none" xmlns="http://www.w3.org/2000/svg">
<g clip-path="url(#clip0_276_1690)">
<path fill-rule="evenodd" clip-rule="evenodd" d="M46.2052 0C48.7559 0 49.4166 0.0153962 50.7227 0.0923828L47.7571 7.46766C45.8056 7.43688 43.9617 7.54463 42.0717 7.74483L46.4049 18.2919L53.6422 0.307945C65.2127 1.30876 75.2312 4.74235 81.9919 9.65408L79.5185 16.9061C75.1854 13.1184 68.1169 10.1468 59.5888 8.60707L72.1273 38.955C75.262 37.5385 77.9201 35.8756 79.918 34.0279L82.4379 41.3724C75.0164 47.8392 58.0522 51.396 45.2371 51.2266C40.7349 51.165 36.6015 50.9957 33.3132 50.3952L42.4252 28.2077L37.6617 16.6906L27.4588 41.1876C28.98 41.7573 31.1005 42.327 33.4976 42.8505L30.6396 49.8717C25.8761 48.9478 21.9732 47.5775 18.1317 45.8684L35.8486 0.754467C39.352 0.27715 43.6544 0 46.2052 0ZM15.7346 44.9445C7.23734 40.5256 0 34.2127 0 25.3901C0 16.5674 9.08121 6.69782 33.0981 1.04701L29.8251 9.20755C17.2712 12.1792 8.22074 19.7392 8.22074 25.6672C8.22074 31.5798 12.5693 34.9826 18.608 38.216L15.7346 44.9445ZM43.7774 43.836L54.9176 16.8446L65.0896 41.4648C59.5273 43.0045 53.0737 43.8822 46.1898 43.8822C45.3754 43.8668 44.561 43.8668 43.7774 43.836Z" fill="#002FA8"/>
<path fill-rule="evenodd" clip-rule="evenodd" d="M349.175 42.4036H321.562L325.404 20.6782H331.735L328.831 37.0762H333.102L335.991 20.6935H342.337L339.433 37.0762H343.751L346.655 20.6935H353.001L349.175 42.4036ZM312.482 38.8161H305.259L303.615 42.4036H297.131L308.686 20.6782H315.616L319.504 42.4036H312.85L312.482 38.8161ZM311.99 34.1199L311.083 26.3135L307.457 34.1199H311.99ZM275.895 20.6782H284.239L285.13 33.889L290.677 20.6782H298.99L295.148 42.4036H289.97L292.905 25.8362L285.944 42.4036H281.258L280.182 25.8362L277.247 42.4036H272.054L275.895 20.6782ZM268.535 47.1306H263.418L264.263 42.4036H247.514L251.356 20.6782H257.687L254.798 37.0608H261.79L264.693 20.6782H271.024L268.058 37.3995H270.271L268.535 47.1306ZM230.596 20.6782H247.591L246.777 25.3281H236.129L235.514 28.7771H245.394L244.61 33.2115H234.746L233.977 37.4919H244.948L244.073 42.4036H226.755L230.596 20.6782ZM222.529 42.4036H216.199L219.103 26.0364H212.127L209.238 42.4036H202.892L206.734 20.6782H226.386L222.529 42.4036ZM195.793 33.5194L201.048 35.3055C200.387 36.9684 199.542 38.3234 198.559 39.4474C197.576 40.5559 196.423 41.3874 195.132 41.9417C193.842 42.496 192.274 42.7886 190.446 42.7886C188.218 42.7886 186.435 42.4498 185.145 41.757C183.854 41.0795 182.839 39.8631 182.133 38.1386C181.411 36.4141 181.272 34.2123 181.764 31.5024C182.394 27.8994 183.792 25.1433 185.928 23.2187C188.08 21.2786 190.814 20.3086 194.103 20.3086C196.699 20.3086 198.636 20.8629 199.911 21.9715C201.201 23.0647 202.001 24.7892 202.323 27.068L196.485 28.3768C196.423 27.7147 196.3 27.2374 196.131 26.9294C195.87 26.4213 195.501 26.021 195.04 25.7438C194.579 25.4667 194.026 25.3281 193.381 25.3281C191.952 25.3281 190.753 25.944 189.754 27.1758C189.017 28.0842 188.479 29.5007 188.125 31.4562C187.695 33.8736 187.757 35.5057 188.279 36.3987C188.817 37.2917 189.708 37.7383 190.968 37.7383C192.167 37.7383 193.165 37.3688 193.918 36.6451C194.625 35.9522 195.27 34.9052 195.793 33.5194ZM176.355 42.4036H170.009L172.898 26.0364H167.934L166.767 32.7188C166.275 35.4595 165.783 37.4612 165.292 38.7545C164.785 40.0479 163.986 40.9871 162.849 41.603C161.727 42.2035 160.037 42.496 157.793 42.496C157.102 42.496 156.318 42.4191 155.442 42.265L156.226 37.8614H157.178C158.024 37.8614 158.685 37.6459 159.099 37.261C159.514 36.8606 159.837 36.1216 160.021 35.0592L162.557 20.6782H180.196L176.355 42.4036ZM148.436 38.8161H141.198L139.57 42.4036H133.085L144.64 20.6782H151.57L155.442 42.4036H148.804L148.436 38.8161ZM147.928 34.1199L147.037 26.3135L143.411 34.1199H147.928ZM118.257 20.6782H128.798C131.103 20.6782 132.716 21.2478 133.638 22.4334C134.576 23.5882 134.867 25.2357 134.498 27.3605C134.115 29.5469 133.193 31.256 131.717 32.5032C130.258 33.735 128.229 34.3509 125.694 34.3509H122.206L120.792 42.4036H114.415L118.257 20.6782ZM123.005 29.9473H124.557C125.771 29.9473 126.693 29.7163 127.261 29.2852C127.83 28.8233 128.183 28.2536 128.306 27.5607C128.429 26.8832 128.306 26.2981 127.952 25.8362C127.63 25.3435 126.862 25.1125 125.663 25.1125H123.85L123.005 29.9473ZM97.0828 20.6782H103.982L105.242 29.6393L109.621 20.6782H116.09L106.394 37.4457C105.595 38.7853 104.934 39.8015 104.397 40.4944C103.874 41.1411 103.168 41.6953 102.291 42.1419C101.4 42.5576 100.248 42.7732 98.8345 42.7732C98.0971 42.7732 96.8366 42.6654 95.0547 42.4344L95.8379 37.9385C96.8981 38.0616 97.6669 38.1232 98.1581 38.1232C99.6334 38.1232 100.617 37.5535 101.14 36.3987L97.0828 20.6782Z" fill="#002FA8"/>
<path fill-rule="evenodd" clip-rule="evenodd" d="M343.32 6.52821H344.888L344.196 8.93019H345.425C345.748 8.17577 346.209 7.57523 346.839 7.09792C347.469 6.63602 348.176 6.40505 349.021 6.40505C349.835 6.40505 350.45 6.68222 350.834 7.22114C351.203 7.76001 351.234 8.52991 350.942 9.56151C350.773 10.162 350.527 10.6855 350.189 11.1166C349.866 11.5786 349.451 11.9173 348.96 12.2098C348.468 12.487 347.899 12.6102 347.239 12.6102C346.301 12.6102 345.656 12.3638 345.333 11.8403C345.01 11.3322 344.934 10.7779 345.072 10.1928H343.812L343.151 12.487H341.584L343.32 6.52821ZM348.637 7.63684C348.206 7.63684 347.838 7.76001 347.561 8.03718C347.284 8.31429 347.054 8.77625 346.885 9.37673C346.654 10.162 346.609 10.6855 346.747 10.9627C346.885 11.2244 347.161 11.363 347.607 11.363C348.007 11.363 348.36 11.209 348.637 10.9165C348.929 10.5931 349.174 10.1466 349.343 9.53073C349.559 8.76083 349.605 8.25274 349.451 8.0064C349.297 7.76001 349.036 7.63684 348.637 7.63684ZM336.344 6.52821H337.912L337.174 8.9918H338.756C339.371 8.9918 339.832 9.038 340.139 9.13039C340.447 9.22278 340.662 9.4075 340.8 9.70009C340.923 9.99262 340.938 10.3468 340.831 10.7317C340.662 11.3014 340.339 11.7479 339.847 12.025C339.371 12.3176 338.756 12.4562 337.957 12.4562H334.592L336.344 6.52821ZM336.467 11.4708H337.927C338.373 11.4708 338.695 11.3938 338.864 11.2398C339.033 11.1013 339.156 10.9011 339.217 10.7163C339.31 10.4237 339.248 10.2236 339.064 10.1158C338.879 10.008 338.495 9.94643 337.927 9.94643H336.897L336.467 11.4708ZM330.013 6.52821H335.361L334.992 7.80621H333.102L331.734 12.4716H330.167L331.535 7.80621H329.645L330.013 6.52821ZM329.03 8.29893L327.386 8.56069C327.432 8.26816 327.37 8.03718 327.247 7.88318C327.109 7.72923 326.879 7.63684 326.587 7.63684C326.203 7.63684 325.849 7.77543 325.542 8.03718C325.234 8.31429 324.989 8.77625 324.789 9.4075C324.604 10.1004 324.559 10.6085 324.727 10.8856C324.881 11.1782 325.143 11.3168 325.542 11.3168C325.834 11.3168 326.11 11.2244 326.341 11.0704C326.587 10.9011 326.802 10.5931 327.002 10.1928L328.476 10.4545C328.108 11.1474 327.632 11.6863 327.078 12.0405C326.525 12.41 325.864 12.5794 325.112 12.5794C324.236 12.5794 323.636 12.3176 323.268 11.7787C322.914 11.2244 322.883 10.4699 323.16 9.48454C323.437 8.49907 323.929 7.76001 324.604 7.19031C325.281 6.65144 326.049 6.37427 326.94 6.37427C327.647 6.37427 328.169 6.52821 328.523 6.83616C328.846 7.17495 329.03 7.65226 329.03 8.29893ZM316.338 9.42292C316.491 8.89941 316.768 8.39133 317.152 7.8986C317.552 7.42128 318.028 7.03636 318.581 6.80539C319.119 6.54363 319.672 6.40505 320.256 6.40505C321.162 6.40505 321.808 6.69764 322.208 7.2827C322.607 7.88318 322.684 8.60688 322.438 9.49989C322.177 10.393 321.67 11.1474 320.917 11.7325C320.149 12.333 319.349 12.6102 318.474 12.6102C317.92 12.6102 317.444 12.5023 317.029 12.2406C316.599 11.9943 316.338 11.6555 316.215 11.1782C316.092 10.6701 316.138 10.1004 316.338 9.42292ZM317.92 9.49989C317.751 10.1004 317.751 10.5315 317.936 10.8395C318.12 11.1474 318.427 11.3168 318.842 11.3168C319.242 11.3168 319.626 11.1628 319.995 10.8395C320.379 10.5315 320.64 10.085 320.809 9.46912C320.978 8.89941 320.963 8.43752 320.794 8.12957C320.609 7.83698 320.302 7.68304 319.887 7.68304C319.488 7.68304 319.104 7.83698 318.719 8.12957C318.351 8.45288 318.089 8.89941 317.92 9.49989ZM310.575 6.52821H312.143L311.497 8.71463H313.741L314.371 6.52821H315.938L314.217 12.4716H312.65L313.387 9.9772H311.144L310.437 12.4716H308.855L310.575 6.52821ZM303.676 6.52821H305.244L304.614 8.71463H306.842L307.471 6.52821H309.054L307.333 12.4716H305.751L306.488 9.9772H304.245L303.538 12.4716H301.971L303.676 6.52821ZM299.635 10.5777L301.141 10.8395C300.757 11.4091 300.326 11.8557 299.804 12.1482C299.281 12.4408 298.713 12.5794 298.037 12.5794C297.008 12.5794 296.347 12.2406 296.055 11.5786C295.824 11.0396 295.824 10.3468 296.055 9.53073C296.347 8.52985 296.839 7.76001 297.499 7.20573C298.175 6.65144 298.913 6.37427 299.696 6.37427C300.573 6.37427 301.172 6.6668 301.525 7.25192C301.863 7.8524 301.848 8.73005 301.479 9.94643H297.56C297.438 10.4083 297.453 10.7625 297.607 11.0242C297.776 11.286 298.037 11.4091 298.406 11.4091C298.651 11.4091 298.882 11.3322 299.082 11.2244C299.281 11.1012 299.466 10.8856 299.635 10.5777ZM300.188 8.9918C300.311 8.52985 300.296 8.19113 300.142 7.94479C299.988 7.71381 299.758 7.59065 299.435 7.59065C299.112 7.59065 298.774 7.71381 298.482 7.97557C298.206 8.22196 297.975 8.54527 297.868 8.9918H300.188ZM290.538 6.52821H293.965C294.657 6.52821 295.148 6.65144 295.425 6.9132C295.701 7.17495 295.763 7.55987 295.609 8.08338C295.501 8.40668 295.333 8.68386 295.071 8.93019C294.795 9.17659 294.518 9.34595 294.196 9.42292C294.579 9.53073 294.826 9.71545 294.948 9.99262C295.071 10.2698 295.087 10.5623 294.979 10.9011C294.841 11.3476 294.564 11.7325 294.134 12.025C293.719 12.3176 293.181 12.4562 292.521 12.4562H288.787L290.538 6.52821ZM291.384 8.9918H292.397C292.889 8.9918 293.243 8.94561 293.519 8.82244C293.765 8.69927 293.934 8.49907 294.011 8.22196C294.088 7.97557 294.042 7.8062 293.873 7.69846C293.704 7.59065 293.35 7.54445 292.843 7.54445H291.829L291.384 8.9918ZM290.677 11.4553H291.906C292.367 11.4553 292.69 11.4091 292.936 11.3014C293.166 11.1936 293.335 11.0089 293.412 10.7317C293.504 10.4392 293.443 10.239 293.243 10.1158C293.027 10.008 292.597 9.96185 291.921 9.96185H291.122L290.677 11.4553ZM284.223 6.52821H289.586L289.217 7.80621H287.312L285.944 12.4716H284.392L285.729 7.80621H283.839L284.223 6.52821ZM283.224 8.29893L281.58 8.56069C281.626 8.26816 281.58 8.03718 281.442 7.88318C281.304 7.72923 281.073 7.63684 280.797 7.63684C280.397 7.63684 280.044 7.77543 279.736 8.03718C279.414 8.31429 279.183 8.77625 278.999 9.4075C278.784 10.1004 278.753 10.6085 278.906 10.8856C279.06 11.1782 279.321 11.3168 279.721 11.3168C280.013 11.3168 280.289 11.2244 280.52 11.0704C280.766 10.9011 280.996 10.5931 281.181 10.1928L282.64 10.4545C282.272 11.1474 281.795 11.6863 281.242 12.0405C280.689 12.41 280.028 12.5794 279.275 12.5794C278.399 12.5794 277.8 12.3176 277.447 11.7787C277.078 11.2244 277.047 10.4699 277.323 9.48454C277.616 8.49907 278.092 7.76001 278.768 7.19031C279.445 6.65144 280.213 6.37427 281.104 6.37427C281.811 6.37427 282.364 6.52821 282.687 6.83616C283.055 7.17495 283.224 7.65226 283.224 8.29893ZM272.422 6.52821H277.785L277.401 7.80621H275.511L274.159 12.4716H272.591L273.959 7.80621H272.053L272.422 6.52821ZM269.165 10.5777L270.639 10.8395C270.271 11.4091 269.84 11.8557 269.318 12.1482C268.796 12.4408 268.196 12.5794 267.551 12.5794C266.522 12.5794 265.861 12.2406 265.569 11.5786C265.323 11.0396 265.323 10.3468 265.569 9.53073C265.861 8.52985 266.337 7.76001 267.013 7.20573C267.689 6.65144 268.427 6.37427 269.211 6.37427C270.087 6.37427 270.686 6.6668 271.039 7.25192C271.362 7.8524 271.362 8.73005 270.993 9.94643H267.059C266.936 10.4083 266.952 10.7625 267.121 11.0242C267.29 11.286 267.551 11.4091 267.905 11.4091C268.166 11.4091 268.381 11.3322 268.581 11.2244C268.811 11.1012 268.996 10.8856 269.165 10.5777ZM269.717 8.9918C269.84 8.52985 269.84 8.19113 269.687 7.94479C269.533 7.71381 269.287 7.59065 268.98 7.59065C268.626 7.59065 268.319 7.71381 268.027 7.97557C267.736 8.22196 267.52 8.54527 267.397 8.9918H269.717ZM260.068 6.52821H263.479C264.186 6.52821 264.678 6.65144 264.939 6.9132C265.215 7.17495 265.293 7.55987 265.124 8.08338C265.016 8.40668 264.847 8.68386 264.585 8.93019C264.324 9.17659 264.048 9.34595 263.71 9.42292C264.094 9.53073 264.355 9.71545 264.478 9.99262C264.585 10.2698 264.601 10.5623 264.509 10.9011C264.37 11.3476 264.094 11.7325 263.679 12.025C263.249 12.3176 262.695 12.4562 262.035 12.4562H258.301L260.022 6.51286H260.068V6.52821ZM260.929 8.9918H261.942C262.434 8.9918 262.803 8.94561 263.064 8.82244C263.31 8.69927 263.479 8.49907 263.556 8.22196C263.617 7.97557 263.572 7.8062 263.403 7.69846C263.249 7.59065 262.895 7.54445 262.373 7.54445H261.359L260.929 8.9918ZM260.206 11.4553H261.435C261.866 11.4553 262.219 11.4091 262.465 11.3014C262.695 11.1936 262.849 11.0089 262.942 10.7317C263.033 10.4392 262.957 10.239 262.772 10.1158C262.557 10.008 262.127 9.96185 261.451 9.96185H260.652L260.206 11.4553ZM253.737 6.52821H259.1L258.731 7.80621H256.841L255.474 12.4716H253.906L255.274 7.80621H253.368L253.737 6.52821ZM246.561 9.42292C246.715 8.89941 246.976 8.39133 247.376 7.8986C247.775 7.42128 248.251 7.03636 248.79 6.80539C249.342 6.54363 249.911 6.40505 250.48 6.40505C251.386 6.40505 252.032 6.69764 252.431 7.2827C252.831 7.88318 252.907 8.60688 252.646 9.49989C252.385 10.393 251.878 11.1474 251.125 11.7325C250.372 12.333 249.573 12.6102 248.682 12.6102C248.144 12.6102 247.668 12.5023 247.238 12.2406C246.822 11.9943 246.561 11.6555 246.439 11.1782C246.316 10.6701 246.346 10.1004 246.561 9.42292ZM248.144 9.49989C247.975 10.1004 247.975 10.5315 248.16 10.8395C248.344 11.1474 248.651 11.3168 249.051 11.3168C249.465 11.3168 249.85 11.1628 250.219 10.8395C250.587 10.5315 250.864 10.085 251.033 9.46912C251.186 8.89941 251.186 8.43752 251.002 8.12957C250.833 7.83698 250.526 7.68304 250.111 7.68304C249.711 7.68304 249.312 7.83698 248.943 8.12957C248.574 8.45288 248.298 8.89941 248.144 9.49989ZM237.526 6.52821H239.017L237.941 10.2544L241.429 6.52821H242.981L241.244 12.4716H239.739L240.83 8.68386L237.296 12.4716H235.79L237.526 6.52821ZM241.982 4.12627H242.751C242.566 4.63438 242.259 5.03471 241.875 5.31186C241.475 5.6044 241.045 5.74298 240.538 5.74298C240.046 5.74298 239.692 5.6044 239.463 5.31186C239.232 5.03471 239.186 4.63438 239.278 4.12627H240.046C240 4.38802 240.031 4.60359 240.153 4.74216C240.277 4.86534 240.476 4.92693 240.799 4.92693C241.091 4.92693 241.352 4.84994 241.552 4.74216C241.736 4.58818 241.874 4.38802 241.982 4.12627ZM229.382 9.42292C229.521 8.89941 229.797 8.39133 230.196 7.8986C230.596 7.42128 231.073 7.03636 231.61 6.80539C232.164 6.54363 232.732 6.40505 233.3 6.40505C234.192 6.40505 234.852 6.69764 235.252 7.2827C235.651 7.88318 235.713 8.60688 235.467 9.49989C235.206 10.393 234.699 11.1474 233.946 11.7325C233.193 12.333 232.394 12.6102 231.503 12.6102C230.965 12.6102 230.473 12.5023 230.058 12.2406C229.644 11.9943 229.382 11.6555 229.259 11.1782C229.136 10.6701 229.167 10.1004 229.382 9.42292ZM230.98 9.49989C230.811 10.1004 230.811 10.5315 230.996 10.8395C231.18 11.1474 231.487 11.3168 231.887 11.3168C232.302 11.3168 232.686 11.1628 233.055 10.8395C233.424 10.5315 233.7 10.085 233.869 9.46912C234.023 8.89941 234.023 8.43752 233.838 8.12957C233.669 7.83698 233.362 7.68304 232.947 7.68304C232.547 7.68304 232.148 7.83698 231.779 8.12957C231.411 8.45288 231.134 8.89941 230.965 9.49989H230.98ZM223.62 6.52821H225.188L224.558 8.71463H226.801L227.431 6.52821H228.998L227.277 12.4716H225.71L226.417 9.9772H224.189L223.451 12.4716H221.884L223.62 6.52821ZM216.721 6.52821H218.288L217.643 8.71463H219.886L220.516 6.52821H222.084L220.363 12.4716H218.795L219.533 9.9772H217.289L216.583 12.4716H215.015L216.721 6.52821ZM212.68 10.5777L214.155 10.8395C213.786 11.4091 213.356 11.8557 212.833 12.1482C212.311 12.4408 211.711 12.5794 211.081 12.5794C210.052 12.5794 209.391 12.2406 209.084 11.5786C208.838 11.0396 208.838 10.3468 209.084 9.53073C209.376 8.52985 209.852 7.76001 210.529 7.20573C211.204 6.65144 211.942 6.37427 212.726 6.37427C213.601 6.37427 214.201 6.6668 214.554 7.25192C214.877 7.8524 214.862 8.73005 214.508 9.94643H210.59C210.451 10.4083 210.482 10.7625 210.636 11.0242C210.805 11.286 211.066 11.4091 211.435 11.4091C211.681 11.4091 211.911 11.3322 212.096 11.2244C212.311 11.1012 212.511 10.8856 212.68 10.5777ZM213.248 8.9918C213.356 8.52985 213.356 8.19113 213.202 7.94479C213.049 7.71381 212.802 7.59065 212.495 7.59065C212.142 7.59065 211.834 7.71381 211.542 7.97557C211.25 8.22196 211.036 8.54527 210.912 8.9918H213.248ZM203.613 6.52821H205.196L204.782 7.94479C204.689 8.28352 204.644 8.51449 204.659 8.68386C204.674 8.8378 204.751 8.97639 204.905 9.0842C205.058 9.20736 205.289 9.25356 205.565 9.25356C205.842 9.25356 206.18 9.19194 206.564 9.06878L207.302 6.54363H208.869L207.148 12.487H205.581L206.287 10.1158C205.626 10.2852 205.135 10.3621 204.828 10.3621C204.336 10.3621 203.936 10.2544 203.629 10.0696C203.306 9.85404 203.122 9.6077 203.076 9.26898C203.03 8.94561 203.076 8.51449 203.23 7.97557L203.613 6.52821ZM196.73 6.52821H198.251L197.176 10.2544L200.663 6.52821H202.2L200.479 12.4716H198.973L200.064 8.68386L196.53 12.4716H195.009L196.73 6.52821ZM189.815 6.52821H191.383L190.753 8.71463H192.996L193.626 6.52821H195.193L193.472 12.4716H191.905L192.612 9.9772H190.383L189.646 12.4716H188.079L189.815 6.52821ZM184.16 8.34513L182.824 8.08338C183.146 7.51367 183.561 7.08256 184.022 6.80539C184.498 6.52821 185.098 6.38969 185.881 6.38969C186.573 6.38969 187.065 6.48202 187.357 6.65144C187.649 6.80539 187.833 7.02094 187.894 7.2827C187.971 7.52903 187.894 7.99099 187.68 8.68386L187.141 10.5161C186.988 11.0396 186.896 11.4246 186.88 11.6709C186.865 11.9173 186.88 12.1944 186.927 12.4716H185.375C185.359 12.3638 185.359 12.2098 185.359 11.9943C185.359 11.9019 185.359 11.8403 185.359 11.8249C185.006 12.0867 184.668 12.2714 184.329 12.3946C183.976 12.5332 183.638 12.5794 183.285 12.5794C182.67 12.5794 182.255 12.4254 181.994 12.0867C181.733 11.7633 181.686 11.3322 181.84 10.8241C181.933 10.5007 182.102 10.1928 182.347 9.93101C182.578 9.66926 182.855 9.4537 183.193 9.31511C183.53 9.17659 183.976 9.05342 184.545 8.94561C185.313 8.80702 185.851 8.68386 186.189 8.56069L186.219 8.40668C186.312 8.11415 186.312 7.8986 186.189 7.76001C186.081 7.63684 185.82 7.57523 185.405 7.57523C185.128 7.57523 184.898 7.62142 184.714 7.74465C184.529 7.88318 184.345 8.06796 184.16 8.34513ZM185.881 9.62306C185.667 9.66926 185.328 9.76165 184.868 9.85404C184.391 9.96185 184.084 10.0388 183.93 10.1312C183.684 10.2852 183.53 10.4545 183.454 10.6855C183.407 10.9011 183.423 11.0858 183.546 11.2398C183.669 11.4091 183.838 11.4862 184.099 11.4862C184.376 11.4862 184.668 11.3938 184.99 11.209C185.221 11.0704 185.39 10.9011 185.513 10.6855C185.605 10.5623 185.682 10.3006 185.789 9.93101L185.881 9.62306ZM176.508 6.52821H177.968L177.707 7.40587C177.983 7.11334 178.322 6.867 178.69 6.6668C179.074 6.49744 179.459 6.38969 179.858 6.38969C180.535 6.38969 181.041 6.6668 181.379 7.20573C181.686 7.74465 181.702 8.49907 181.425 9.4537C181.149 10.4545 180.673 11.2244 180.027 11.7633C179.382 12.3176 178.721 12.5794 178.03 12.5794C177.692 12.5794 177.415 12.5332 177.2 12.3946C176.97 12.2714 176.739 12.0405 176.554 11.7325L175.679 14.7195H174.111L176.508 6.52821ZM177.215 9.39214C177.031 10.0542 177 10.5623 177.184 10.8703C177.353 11.1782 177.645 11.3476 177.999 11.3476C178.368 11.3476 178.706 11.209 179.043 10.9165C179.351 10.6239 179.612 10.1466 179.827 9.48454C179.996 8.85322 180.012 8.40668 179.843 8.08338C179.689 7.79079 179.428 7.65226 179.059 7.65226C178.675 7.65226 178.306 7.79079 177.968 8.08338C177.645 8.37591 177.4 8.82244 177.215 9.39214ZM171.729 6.52821H175.725L175.356 7.80621H172.928L171.56 12.4716H169.993L171.729 6.52821ZM163.601 9.42292C163.755 8.89941 164.031 8.39133 164.446 7.8986C164.831 7.42128 165.322 7.03636 165.86 6.80539C166.398 6.54363 166.951 6.40505 167.55 6.40505C168.441 6.40505 169.086 6.69764 169.486 7.2827C169.901 7.88318 169.978 8.60688 169.716 9.49989C169.455 10.393 168.948 11.1474 168.195 11.7325C167.443 12.333 166.628 12.6102 165.753 12.6102C165.199 12.6102 164.723 12.5023 164.308 12.2406C163.893 11.9943 163.616 11.6555 163.493 11.1782C163.37 10.6701 163.417 10.1004 163.601 9.42292ZM165.199 9.49989C165.015 10.1004 165.045 10.5315 165.214 10.8395C165.399 11.1474 165.706 11.3168 166.121 11.3168C166.521 11.3168 166.904 11.1628 167.273 10.8395C167.658 10.5315 167.919 10.085 168.088 9.46912C168.257 8.89941 168.242 8.43752 168.073 8.12957C167.888 7.83698 167.581 7.68304 167.181 7.68304C166.766 7.68304 166.383 7.83698 165.998 8.12957C165.629 8.45288 165.368 8.89941 165.199 9.49989ZM159.944 8.29893L158.3 8.56069C158.346 8.26816 158.3 8.03718 158.162 7.88318C158.023 7.72923 157.793 7.63684 157.516 7.63684C157.116 7.63684 156.763 7.77543 156.456 8.03718C156.149 8.31429 155.903 8.77625 155.718 9.4075C155.519 10.1004 155.473 10.6085 155.626 10.8856C155.78 11.1782 156.041 11.3168 156.441 11.3168C156.733 11.3168 157.009 11.2244 157.24 11.0704C157.486 10.9011 157.716 10.5931 157.9 10.1928L159.36 10.4545C158.991 11.1474 158.515 11.6863 157.962 12.0405C157.408 12.41 156.748 12.5794 155.995 12.5794C155.119 12.5794 154.52 12.3176 154.166 11.7787C153.798 11.2244 153.767 10.4699 154.043 9.48454C154.335 8.49907 154.812 7.76001 155.488 7.19031C156.164 6.65144 156.932 6.37427 157.824 6.37427C158.53 6.37427 159.084 6.52821 159.406 6.83616C159.775 7.17495 159.944 7.65226 159.944 8.29893ZM143.933 9.42292C144.071 8.89941 144.347 8.39133 144.747 7.8986C145.146 7.42128 145.623 7.03636 146.161 6.80539C146.698 6.54363 147.283 6.40505 147.851 6.40505C148.742 6.40505 149.388 6.69764 149.802 7.2827C150.202 7.88318 150.279 8.60688 150.018 9.49989C149.757 10.393 149.249 11.1474 148.497 11.7325C147.744 12.333 146.929 12.6102 146.053 12.6102C145.516 12.6102 145.024 12.5023 144.609 12.2406C144.194 11.9943 143.917 11.6555 143.81 11.1782C143.687 10.6701 143.733 10.1004 143.933 9.42292ZM145.5 9.49989C145.331 10.1004 145.346 10.5315 145.531 10.8395C145.7 11.1474 146.023 11.3168 146.422 11.3168C146.837 11.3168 147.221 11.1628 147.59 10.8395C147.958 10.5315 148.235 10.085 148.404 9.46912C148.558 8.89941 148.558 8.43752 148.373 8.12957C148.189 7.83698 147.882 7.68304 147.482 7.68304C147.067 7.68304 146.683 7.83698 146.315 8.12957C145.961 8.45288 145.685 8.89941 145.5 9.49989ZM138.278 6.52821H141.72C142.412 6.52821 142.903 6.65144 143.18 6.9132C143.456 7.17495 143.503 7.55987 143.364 8.08338C143.257 8.40668 143.088 8.68386 142.826 8.93019C142.565 9.17659 142.273 9.34595 141.951 9.42292C142.334 9.53073 142.581 9.71545 142.703 9.99262C142.826 10.2698 142.842 10.5623 142.734 10.9011C142.611 11.3476 142.334 11.7325 141.904 12.025C141.49 12.3176 140.952 12.4562 140.276 12.4562H136.542L138.278 6.52821ZM139.139 8.9918H140.153C140.629 8.9918 141.013 8.94561 141.243 8.82244C141.505 8.69927 141.659 8.49907 141.751 8.22196C141.813 7.97557 141.766 7.8062 141.597 7.69846C141.428 7.59065 141.09 7.54445 140.568 7.54445H139.553L139.139 8.9918ZM138.432 11.4553H139.661C140.107 11.4553 140.46 11.4091 140.691 11.3014C140.936 11.1936 141.09 11.0089 141.167 10.7317C141.259 10.4392 141.198 10.239 140.998 10.1158C140.813 10.008 140.368 9.96185 139.691 9.96185H138.893L138.432 11.4553ZM131.963 6.52821H137.325L136.941 7.80621H135.067L133.699 12.4716H132.132L133.499 7.80621H131.594L131.963 6.52821ZM130.964 8.29893L129.335 8.56069C129.366 8.26816 129.32 8.03718 129.182 7.88318C129.043 7.72923 128.828 7.63684 128.536 7.63684C128.137 7.63684 127.783 7.77543 127.491 8.03718C127.184 8.31429 126.923 8.77625 126.739 9.4075C126.523 10.1004 126.508 10.6085 126.646 10.8856C126.8 11.1782 127.076 11.3168 127.476 11.3168C127.768 11.3168 128.029 11.2244 128.275 11.0704C128.505 10.9011 128.721 10.5931 128.92 10.1928L130.395 10.4545C130.027 11.1474 129.581 11.6863 129.012 12.0405C128.459 12.41 127.799 12.5794 127.031 12.5794C126.154 12.5794 125.555 12.3176 125.202 11.7787C124.833 11.2244 124.802 10.4699 125.094 9.48454C125.371 8.49907 125.862 7.76001 126.523 7.19031C127.2 6.65144 127.983 6.37427 128.859 6.37427C129.596 6.37427 130.119 6.52821 130.442 6.83616C130.795 7.17495 130.964 7.65226 130.964 8.29893ZM122.359 10.5777L123.865 10.8395C123.496 11.4091 123.05 11.8557 122.528 12.1482C122.006 12.4408 121.437 12.5794 120.761 12.5794C119.732 12.5794 119.071 12.2406 118.779 11.5786C118.548 11.0396 118.548 10.3468 118.794 9.53073C119.071 8.52985 119.563 7.76001 120.223 7.20573C120.899 6.65144 121.637 6.37427 122.42 6.37427C123.312 6.37427 123.927 6.6668 124.249 7.25192C124.602 7.8524 124.572 8.73005 124.203 9.94643H120.285C120.162 10.4083 120.177 10.7625 120.362 11.0242C120.515 11.286 120.776 11.4091 121.145 11.4091C121.391 11.4091 121.622 11.3322 121.821 11.2244C122.006 11.1012 122.206 10.8856 122.359 10.5777ZM122.912 8.9918C123.035 8.52985 123.02 8.19113 122.866 7.94479C122.713 7.71381 122.482 7.59065 122.159 7.59065C121.836 7.59065 121.498 7.71381 121.222 7.97557C120.93 8.22196 120.715 8.54527 120.592 8.9918H122.912ZM110.435 6.52821H111.879L110.527 11.1936H112.34L113.693 6.52821H115.122L113.785 11.1936H115.598L116.966 6.52821H118.41L117.042 11.1936H117.688L116.873 14.0267H115.598L116.059 12.4716H108.714L110.435 6.52821ZM108.576 4.08008H109.636C109.467 4.5574 109.236 4.89613 108.945 5.15789C108.668 5.38885 108.1 5.51202 107.27 5.51202C107.162 5.51202 107.054 5.51202 106.963 5.51202H106.778C106.271 5.51202 105.856 5.55821 105.503 5.69679C105.164 5.80457 104.842 6.00471 104.565 6.32807C104.273 6.63602 104.028 7.17495 103.797 7.86782C104.166 7.4367 104.55 7.09792 104.98 6.88236C105.411 6.6668 105.887 6.55905 106.379 6.55905C107.162 6.55905 107.746 6.867 108.1 7.46748C108.453 8.08338 108.515 8.77625 108.284 9.57687C108.038 10.393 107.546 11.1166 106.794 11.7017C106.056 12.3176 105.226 12.6102 104.32 12.6102C103.69 12.6102 103.182 12.4562 102.783 12.1636C102.399 11.8557 102.184 11.4553 102.138 10.9318C102.061 10.4083 102.23 9.53073 102.568 8.32971C102.983 6.89778 103.551 5.88154 104.242 5.25027C104.95 4.63438 105.948 4.32644 107.254 4.32644H108.038C108.284 4.31104 108.468 4.24945 108.576 4.08008ZM103.828 9.56151C103.674 10.1004 103.69 10.5161 103.859 10.8395C104.028 11.1474 104.335 11.3168 104.719 11.3168C105.134 11.3168 105.533 11.1628 105.887 10.8241C106.255 10.5007 106.517 10.0696 106.671 9.56151C106.824 9.038 106.809 8.60688 106.624 8.28352C106.44 7.96021 106.163 7.79079 105.764 7.79079C105.364 7.79079 104.98 7.94479 104.612 8.28352C104.242 8.59147 103.982 9.00722 103.828 9.56151ZM95.2232 9.42292C95.3764 8.89941 95.6534 8.39133 96.0529 7.8986C96.4523 7.42128 96.9284 7.03636 97.4661 6.80539C98.0043 6.54363 98.5878 6.40505 99.1569 6.40505C100.048 6.40505 100.693 6.69764 101.108 7.2827C101.508 7.88318 101.584 8.60688 101.323 9.49989C101.062 10.393 100.555 11.1474 99.8019 11.7325C99.0488 12.333 98.2348 12.6102 97.3587 12.6102C96.821 12.6102 96.3292 12.5023 95.9147 12.2406C95.4995 11.9943 95.2232 11.6555 95.1001 11.1782C94.9927 10.6701 95.0385 10.1004 95.2232 9.42292ZM96.8059 9.49989C96.6364 10.1004 96.6521 10.5315 96.8361 10.8395C97.0057 11.1474 97.3279 11.3168 97.7273 11.3168C98.1425 11.3168 98.5269 11.1628 98.8956 10.8395C99.2643 10.5315 99.5406 10.085 99.7096 9.46912C99.8635 8.89941 99.8634 8.43752 99.6788 8.12957C99.4948 7.83698 99.1876 7.68304 98.7876 7.68304C98.373 7.68304 97.9886 7.83698 97.6199 8.12957C97.2663 8.45288 96.99 8.89941 96.8059 9.49989Z" fill="#002FA8"/>
</g>
<defs>
<clipPath id="clip0_276_1690">
<rect width="353" height="52" fill="white"/>
</clipPath>
</defs>
</svg>
