<svg width="32" height="32" viewBox="0 0 32 32" fill="none" xmlns="http://www.w3.org/2000/svg">
<path d="M11.6324 15.4894C13.063 15.4894 14.435 14.9211 15.4466 13.9095C16.4582 12.8979 17.0265 11.5259 17.0265 10.0953C17.0265 8.66468 16.4582 7.29266 15.4466 6.28106C14.435 5.26946 13.063 4.70117 11.6324 4.70117C10.2018 4.70117 8.82977 5.26946 7.81817 6.28106C6.80657 7.29266 6.23828 8.66468 6.23828 10.0953C6.23982 11.5253 6.80869 12.8966 7.8199 13.9078C8.8311 14.919 10.2024 15.4879 11.6324 15.4894V15.4894ZM11.6324 5.77975C12.7769 5.77975 13.8744 6.2344 14.6837 7.04371C15.493 7.85302 15.9477 8.95052 15.9477 10.095C15.9477 11.2395 15.493 12.3371 14.6837 13.1464C13.8744 13.9557 12.7769 14.4103 11.6324 14.4103C10.4879 14.4103 9.39036 13.9557 8.58106 13.1464C7.77176 12.3371 7.3171 11.2395 7.3171 10.095C7.31845 8.95092 7.77348 7.85414 8.58239 7.04504C9.3915 6.23613 10.4883 5.78108 11.6324 5.77975Z" fill="#C3D600"/>
<path d="M11.6306 16.5684C6.87163 16.5684 3 20.44 3 25.1989V26.2778C3 26.4209 3.05683 26.5581 3.15797 26.6592C3.25911 26.7603 3.39627 26.8172 3.53941 26.8172H19.7215C19.8646 26.8172 20.0018 26.7603 20.1029 26.6592C20.2041 26.5581 20.2609 26.4209 20.2609 26.2778V25.1989C20.2609 20.44 16.3893 16.5684 11.6303 16.5684H11.6306ZM19.1821 25.7385H4.07858V25.199C4.07858 21.0348 7.4661 17.6475 11.6301 17.6475C15.7941 17.6475 19.1816 21.0351 19.1816 25.199L19.1821 25.7385Z" fill="#C3D600"/>
<path d="M21.9857 15.5974C23.1587 15.5974 24.2838 15.1314 25.1133 14.3018C25.9428 13.4723 26.4089 12.3472 26.4089 11.1742C26.4089 10.0012 25.9429 8.87607 25.1133 8.04655C24.2838 7.21703 23.1587 6.75098 21.9857 6.75098C20.8127 6.75098 19.6876 7.21699 18.8581 8.04655C18.0286 8.87607 17.5625 10.0012 17.5625 11.1742C17.5638 12.3468 18.0302 13.4711 18.8594 14.3005C19.6887 15.1296 20.813 15.596 21.9857 15.5974ZM21.9857 7.82985C22.8726 7.82985 23.7234 8.1822 24.3504 8.80944C24.9777 9.43651 25.33 10.2872 25.33 11.1742C25.33 12.0611 24.9777 12.9118 24.3504 13.5389C23.7234 14.1662 22.8726 14.5185 21.9857 14.5185C21.0988 14.5185 20.248 14.1661 19.621 13.5389C18.9937 12.9118 18.6414 12.0611 18.6414 11.1742C18.6423 10.2874 18.9951 9.43745 19.622 8.81038C20.249 8.1835 21.099 7.83078 21.9857 7.8298L21.9857 7.82985Z" fill="#C3D600"/>
<path d="M21.9867 16.2443C20.5892 16.242 19.2232 16.6592 18.0657 17.4421C17.8188 17.609 17.7538 17.9444 17.9207 18.1912C18.0875 18.4381 18.4229 18.5029 18.6698 18.336C19.8658 17.5302 21.3145 17.1875 22.7449 17.372C24.1753 17.5564 25.4895 18.2555 26.442 19.3386C27.3944 20.4216 27.92 21.8143 27.9202 23.2566V23.5803H21.463C21.165 23.5803 20.9236 23.8218 20.9236 24.1197C20.9236 24.4175 21.165 24.6591 21.463 24.6591H28.4597C28.6029 24.6591 28.74 24.6023 28.8412 24.5012C28.9423 24.4 28.9991 24.2629 28.9991 24.1197V23.2567C28.997 21.3974 28.2576 19.615 26.943 18.3002C25.6284 16.9854 23.846 16.2463 21.9866 16.2441L21.9867 16.2443Z" fill="#C3D600"/>
</svg>
