<svg width="21" height="18" viewBox="0 0 21 18" fill="none" xmlns="http://www.w3.org/2000/svg">
<mask id="path-1-inside-1_7_2498" fill="white">
<path d="M18.5063 15.7382C18.5063 15.1386 18.2682 14.5634 17.8442 14.1393C17.4202 13.7151 16.8451 13.4768 16.2454 13.4764C15.6458 13.4763 15.0704 13.7142 14.6463 14.138C14.222 14.5618 13.9833 15.1368 13.9829 15.7366C13.9824 16.3363 14.2202 16.9116 14.6438 17.336C15.0674 17.7605 15.6424 17.9993 16.2421 18C16.8419 17.9993 17.4171 17.7608 17.8416 17.337C18.2659 16.913 18.5051 16.3381 18.5064 15.7382H18.5063ZM14.998 15.7382C14.998 15.4083 15.1289 15.0919 15.3623 14.8585C15.5957 14.6252 15.9121 14.4942 16.242 14.4942C16.5719 14.4942 16.8883 14.6252 17.1217 14.8585C17.355 15.0919 17.486 15.4084 17.486 15.7382C17.486 16.0681 17.355 16.3846 17.1217 16.6179C16.8883 16.8513 16.5719 16.9823 16.242 16.9823C15.9123 16.9817 15.5962 16.8504 15.363 16.6172C15.1298 16.384 14.9987 16.0679 14.9979 15.7382L14.998 15.7382Z"/>
</mask>
<path d="M18.5063 15.7382C18.5063 15.1386 18.2682 14.5634 17.8442 14.1393C17.4202 13.7151 16.8451 13.4768 16.2454 13.4764C15.6458 13.4763 15.0704 13.7142 14.6463 14.138C14.222 14.5618 13.9833 15.1368 13.9829 15.7366C13.9824 16.3363 14.2202 16.9116 14.6438 17.336C15.0674 17.7605 15.6424 17.9993 16.2421 18C16.8419 17.9993 17.4171 17.7608 17.8416 17.337C18.2659 16.913 18.5051 16.3381 18.5064 15.7382H18.5063ZM14.998 15.7382C14.998 15.4083 15.1289 15.0919 15.3623 14.8585C15.5957 14.6252 15.9121 14.4942 16.242 14.4942C16.5719 14.4942 16.8883 14.6252 17.1217 14.8585C17.355 15.0919 17.486 15.4084 17.486 15.7382C17.486 16.0681 17.355 16.3846 17.1217 16.6179C16.8883 16.8513 16.5719 16.9823 16.242 16.9823C15.9123 16.9817 15.5962 16.8504 15.363 16.6172C15.1298 16.384 14.9987 16.0679 14.9979 15.7382L14.998 15.7382Z" fill="#C3D600" stroke="#00061A" stroke-width="2" mask="url(#path-1-inside-1_7_2498)"/>
<mask id="path-2-inside-2_7_2498" fill="white">
<path d="M4.70926 3.40911L3.89254 0H0V1.01757H3.08859L5.68862 11.8811H18.2544L20.3432 3.40906L4.70926 3.40911ZM17.4681 10.8635H6.49243L4.95327 4.42677H19.0428L17.4681 10.8635Z"/>
</mask>
<path d="M4.70926 3.40911L3.89254 0H0V1.01757H3.08859L5.68862 11.8811H18.2544L20.3432 3.40906L4.70926 3.40911ZM17.4681 10.8635H6.49243L4.95327 4.42677H19.0428L17.4681 10.8635Z" fill="#C3D600" stroke="#00061A" stroke-width="2" mask="url(#path-2-inside-2_7_2498)"/>
<mask id="path-3-inside-3_7_2498" fill="white">
<path d="M9.37031 15.7382C9.37031 15.1386 9.13197 14.5634 8.70801 14.1393C8.28405 13.7151 7.70907 13.4768 7.10938 13.4764C6.50955 13.4763 5.93439 13.7142 5.51007 14.138C5.08574 14.5618 4.84723 15.1368 4.84668 15.7366C4.84633 16.3363 5.08395 16.9116 5.50757 17.336C5.93135 17.7605 6.50615 17.9993 7.10584 18C7.70585 17.9993 8.281 17.7608 8.70533 17.337C9.12983 16.913 9.36885 16.3381 9.37031 15.7382V15.7382ZM5.86198 15.7382H5.8618C5.8618 15.4083 5.99295 15.0919 6.22613 14.8585C6.4595 14.6252 6.77594 14.4942 7.10582 14.4942C7.4359 14.4942 7.7523 14.6252 7.98568 14.8585C8.21887 15.0919 8.35002 15.4084 8.35002 15.7382C8.35002 16.0681 8.21887 16.3846 7.98568 16.6179C7.75232 16.8513 7.43588 16.9823 7.10582 16.9823C6.77609 16.9817 6.46001 16.8504 6.227 16.6172C5.99381 16.384 5.86248 16.0679 5.86177 15.7382L5.86198 15.7382Z"/>
</mask>
<path d="M9.37031 15.7382C9.37031 15.1386 9.13197 14.5634 8.70801 14.1393C8.28405 13.7151 7.70907 13.4768 7.10938 13.4764C6.50955 13.4763 5.93439 13.7142 5.51007 14.138C5.08574 14.5618 4.84723 15.1368 4.84668 15.7366C4.84633 16.3363 5.08395 16.9116 5.50757 17.336C5.93135 17.7605 6.50615 17.9993 7.10584 18C7.70585 17.9993 8.281 17.7608 8.70533 17.337C9.12983 16.913 9.36885 16.3381 9.37031 15.7382V15.7382ZM5.86198 15.7382H5.8618C5.8618 15.4083 5.99295 15.0919 6.22613 14.8585C6.4595 14.6252 6.77594 14.4942 7.10582 14.4942C7.4359 14.4942 7.7523 14.6252 7.98568 14.8585C8.21887 15.0919 8.35002 15.4084 8.35002 15.7382C8.35002 16.0681 8.21887 16.3846 7.98568 16.6179C7.75232 16.8513 7.43588 16.9823 7.10582 16.9823C6.77609 16.9817 6.46001 16.8504 6.227 16.6172C5.99381 16.384 5.86248 16.0679 5.86177 15.7382L5.86198 15.7382Z" fill="#C3D600" stroke="#00061A" stroke-width="2" mask="url(#path-3-inside-3_7_2498)"/>
</svg>
