<svg width="31" height="32" viewBox="0 0 31 32" fill="none" xmlns="http://www.w3.org/2000/svg">
<path d="M11.8224 3.25695C11.5604 3.33268 11.3055 3.41538 11.0505 3.50866C10.8851 3.56732 10.699 3.54303 10.5576 3.44326C10.1234 3.13313 9.47529 2.67469 9.01346 2.3506C8.49298 1.98181 7.80706 1.95416 7.2558 2.2816H7.25244C6.48719 2.74006 5.76693 3.26392 5.09498 3.83942L5.09162 3.84279C4.60214 4.26663 4.41604 4.9458 4.61608 5.55909C4.78846 6.08991 5.02959 6.82747 5.18826 7.32709C5.24331 7.49586 5.20894 7.68217 5.1022 7.82329C4.95411 8.01273 4.81274 8.20939 4.67475 8.40917C4.57474 8.55726 4.40934 8.64357 4.2336 8.64357C3.6994 8.64694 2.90318 8.65054 2.33463 8.65391C1.6937 8.65727 1.11456 9.04 0.85946 9.63259V9.63596C0.518317 10.4493 0.242596 11.2972 0.0391902 12.1691V12.1725C-0.102172 12.8031 0.145934 13.4546 0.669779 13.8337L2.21732 14.9538C2.35869 15.0572 2.44138 15.2226 2.44138 15.3983V15.612L2.44836 16.0291C2.45533 16.2082 2.36902 16.3772 2.2243 16.484C1.79685 16.7941 1.16628 17.2492 0.714785 17.5767C0.187567 17.9558 -0.0571714 18.621 0.0909055 19.2552V19.2585C0.307993 20.1478 0.601057 21.0059 0.959488 21.8297C0.959488 21.8297 0.959488 21.8331 0.962854 21.8331C1.22129 22.412 1.79685 22.7844 2.42768 22.7877C3.01019 22.7911 3.83718 22.7947 4.38536 22.7981C4.55774 22.7981 4.71977 22.8841 4.81954 23.0221C4.92629 23.1702 5.03663 23.3186 5.15035 23.4633C5.2607 23.6047 5.29508 23.7907 5.24002 23.9631C5.07798 24.4629 4.84358 25.1902 4.67145 25.7174C4.47167 26.3342 4.66111 27.0132 5.15395 27.4373L5.15731 27.4406C5.86385 28.0438 6.62885 28.585 7.43546 29.0605C7.43546 29.0605 7.43882 29.0605 7.43882 29.0638C7.98671 29.3776 8.6659 29.3466 9.17937 28.9811C9.64817 28.6467 10.3167 28.1746 10.7613 27.8611C10.9026 27.7611 11.0817 27.7337 11.2471 27.7921C11.4125 27.8471 11.5779 27.9024 11.7469 27.9505C11.9157 27.9988 12.0503 28.1296 12.1054 28.2953C12.2742 28.7984 12.5259 29.543 12.705 30.0772C12.9084 30.6837 13.4529 31.1145 14.0905 31.1732C14.5557 31.2146 15.0278 31.2353 15.5036 31.2353C15.9791 31.2353 16.4513 31.2146 16.9131 31.1732H16.9165C17.554 31.1146 18.0986 30.6874 18.3053 30.0772C18.4844 29.543 18.7327 28.7985 18.9015 28.2953C18.9566 28.1299 19.0909 27.9988 19.26 27.9505C19.4287 27.9022 19.5944 27.8471 19.7598 27.7921C19.9218 27.737 20.1045 27.7611 20.2456 27.8611C20.6868 28.1748 21.359 28.6503 21.8311 28.9811C22.3447 29.343 23.0236 29.3776 23.5681 29.0605H23.5715C24.3814 28.5883 25.143 28.0471 25.853 27.4439L25.8563 27.4406C26.3492 27.0167 26.5389 26.3376 26.3388 25.7173C26.1665 25.1901 25.9321 24.4629 25.7703 23.963C25.7152 23.7943 25.7496 23.6046 25.8599 23.4632C25.9736 23.3185 26.0806 23.1738 26.1874 23.0221C26.2874 22.8807 26.4494 22.798 26.6215 22.7947C27.1694 22.7913 27.9967 22.7877 28.5792 22.7843C29.2098 22.781 29.782 22.4086 30.0404 21.833V21.8297C30.4022 21.006 30.6953 20.1478 30.9158 19.2585V19.2551C31.0675 18.6209 30.8194 17.9557 30.2886 17.5732L28.7791 16.4806C28.6343 16.3772 28.5516 16.2048 28.555 16.0291C28.5584 15.8913 28.562 15.7533 28.562 15.612V15.3982C28.5586 15.2225 28.6413 15.0571 28.786 14.9537C29.2202 14.64 29.8717 14.1678 30.3336 13.8337C30.8541 13.4579 31.1021 12.8066 30.9608 12.1758V12.1724C30.761 11.2971 30.4852 10.4492 30.1475 9.63584V9.63247C29.8924 9.03962 29.3135 8.65711 28.669 8.65378C28.1004 8.65042 27.3075 8.64681 26.7733 8.64345C26.5976 8.64345 26.4322 8.55378 26.3322 8.40905C26.1944 8.20927 26.0531 8.01261 25.9047 7.82317C25.7944 7.68181 25.7634 7.49573 25.8187 7.32696C25.9807 6.82715 26.2218 6.08622 26.3908 5.5554C26.5906 4.94187 26.4012 4.26634 25.9153 3.84248L25.9119 3.83911C25.2398 3.26357 24.5195 2.73974 23.7579 2.27791C23.7579 2.27791 23.7545 2.27791 23.7545 2.27454C23.2066 1.9471 22.5171 1.97475 21.9933 2.3469C21.5315 2.67434 20.8869 3.13283 20.4528 3.43957C20.308 3.54295 20.1253 3.56699 19.9599 3.50857C19.7082 3.4189 19.4498 3.33619 19.188 3.26047C19.0192 3.21215 18.8812 3.08136 18.8261 2.91572C18.6607 2.41591 18.4126 1.67836 18.2333 1.15111C18.0299 0.541184 17.4784 0.110383 16.8375 0.0550537C16.3997 0.0206753 15.9551 0 15.507 0C15.0589 0 14.6178 0.0173095 14.1802 0.0516878H14.1768C13.5359 0.106742 12.9844 0.537554 12.781 1.14774C12.6052 1.67496 12.3571 2.41255 12.1881 2.91235C12.1292 3.07776 11.9915 3.20878 11.8225 3.25686L11.8224 3.25695ZM12.1188 4.29096C12.629 4.14288 13.0356 3.75677 13.2046 3.25024C13.3733 2.75404 13.6181 2.01645 13.7974 1.48563C13.8664 1.28224 14.0491 1.13752 14.2626 1.1202C14.6727 1.08919 15.0863 1.07188 15.5033 1.07188C15.9204 1.07188 16.334 1.08919 16.7441 1.12357C16.9578 1.14088 17.1405 1.2856 17.2093 1.48899C17.3884 2.01621 17.6331 2.7538 17.8021 3.25361C17.9709 3.75678 18.3777 4.14625 18.8878 4.29095C19.1256 4.35994 19.36 4.43567 19.5944 4.51837C20.0906 4.69748 20.6421 4.62175 21.0729 4.31498C21.507 4.00822 22.1552 3.54974 22.617 3.22232C22.7894 3.09827 23.0202 3.09129 23.2029 3.19828C23.9128 3.62909 24.585 4.11499 25.2089 4.65277C25.3709 4.79413 25.433 5.01819 25.3673 5.22134C25.195 5.75216 24.9572 6.48971 24.7952 6.98934C24.6297 7.49949 24.7262 8.05769 25.0572 8.47817C25.1916 8.65054 25.3226 8.82964 25.4467 9.01236C25.7464 9.45014 26.2393 9.71194 26.7735 9.71557C27.3077 9.71893 28.1039 9.72254 28.6725 9.72591C28.8862 9.72591 29.0792 9.85332 29.1653 10.05C29.4824 10.8049 29.7339 11.5941 29.9202 12.4038C29.9649 12.6139 29.8858 12.8277 29.7101 12.9553C29.2483 13.2931 28.6004 13.7619 28.1659 14.0754C27.7385 14.3855 27.4904 14.8819 27.4974 15.4092V15.6056L27.4904 15.9881C27.4731 16.5223 27.7248 17.0324 28.159 17.3495L29.6685 18.4422C29.8442 18.5696 29.9269 18.7903 29.8786 19.0004C29.6752 19.8241 29.4031 20.6237 29.0653 21.3889C28.9792 21.5783 28.7895 21.7026 28.5794 21.706H28.576C27.9935 21.7094 27.1665 21.7163 26.6218 21.7163C26.1013 21.7197 25.6154 21.9714 25.3156 22.3952C25.2192 22.5296 25.1192 22.664 25.0158 22.795C24.685 23.2189 24.585 23.7774 24.7504 24.2909C24.9124 24.7871 25.1468 25.518 25.319 26.0452C25.3843 26.2519 25.3223 26.476 25.1605 26.6173C24.4987 27.1756 23.7888 27.6787 23.0375 28.1199C22.8548 28.2233 22.6307 28.2129 22.4586 28.0922C21.9864 27.7614 21.3212 27.2857 20.8767 26.9755C20.4528 26.6757 19.9117 26.5964 19.4188 26.7654C19.2707 26.8171 19.119 26.8654 18.964 26.9101C18.4574 27.0582 18.0576 27.4443 17.8886 27.9441C17.7198 28.444 17.4681 29.1918 17.289 29.726C17.22 29.9294 17.0409 30.0708 16.8272 30.0915C16.393 30.1295 15.9518 30.1465 15.5071 30.1465C15.0626 30.1465 14.6248 30.1258 14.1906 30.0879C13.9769 30.0672 13.7978 29.9258 13.7288 29.7224C13.5497 29.1882 13.298 28.4437 13.1292 27.9405C12.9604 27.4407 12.5606 27.0548 12.0538 26.9032C11.9021 26.8585 11.7504 26.8102 11.599 26.7585C11.1095 26.5897 10.5686 26.6688 10.1445 26.9686C9.70331 27.2787 9.03475 27.7545 8.56258 28.0886C8.39021 28.2093 8.16615 28.2197 7.98368 28.1163C7.2324 27.6751 6.52248 27.1686 5.86063 26.6101C5.69859 26.4687 5.63657 26.2447 5.7022 26.0379C5.87097 25.5107 6.10897 24.7835 6.27077 24.2836C6.43617 23.7701 6.33616 23.2119 6.00535 22.7878C5.90198 22.6568 5.80197 22.5224 5.70556 22.388C5.40577 21.9642 4.91964 21.7124 4.3994 21.7124C3.85487 21.7091 3.02424 21.7055 2.44172 21.7021C2.2316 21.7021 2.04192 21.578 1.95224 21.385C1.61783 20.6197 1.34569 19.8238 1.14231 18.9965C1.09399 18.7864 1.17669 18.5657 1.34907 18.4383C1.80056 18.1075 2.42777 17.656 2.85526 17.3456C3.28944 17.0319 3.54117 16.5219 3.52382 15.9842C3.52045 15.8567 3.51685 15.7291 3.51685 15.6017V15.4053C3.52382 14.878 3.27547 14.3816 2.84828 14.0715L1.30074 12.9514C1.12836 12.8274 1.0423 12.6103 1.09062 12.3999C1.28006 11.59 1.53177 10.8007 1.84885 10.0461C1.93492 9.84965 2.1246 9.72199 2.33832 9.72199C2.90689 9.71863 3.69976 9.71165 4.23397 9.71165C4.76479 9.70829 5.26103 9.44624 5.56081 9.00512C5.68486 8.8224 5.81588 8.6433 5.95027 8.47093C6.27771 8.05045 6.37411 7.49224 6.20871 6.9821C6.04668 6.48229 5.80891 5.74474 5.63654 5.21053C5.57115 5.00714 5.63317 4.77971 5.79497 4.63835C6.42217 4.10416 7.09079 3.61831 7.80428 3.18749C7.987 3.08075 8.21442 3.08748 8.38679 3.21153C8.84862 3.5356 9.49651 3.99383 9.93095 4.30057C10.3618 4.60733 10.9167 4.6797 11.4128 4.50035C11.6465 4.43568 11.8809 4.35995 12.1187 4.29096L12.1188 4.29096ZM15.5033 8.90584C11.8017 8.90584 8.79616 11.9112 8.79616 15.613C8.79616 19.3148 11.8015 22.3202 15.5033 22.3202C19.2051 22.3202 22.2105 19.3148 22.2105 15.613C22.2105 11.9112 19.2051 8.90584 15.5033 8.90584ZM15.5033 9.98122C18.6121 9.98122 21.1349 12.5041 21.1349 15.6128C21.1349 18.7216 18.6121 21.2444 15.5033 21.2444C12.3946 21.2444 9.87172 18.7216 9.87172 15.6128C9.87172 12.5041 12.3946 9.98122 15.5033 9.98122Z" fill="#C3D600"/>
</svg>
