<svg width="32" height="32" viewBox="0 0 32 32" fill="none" xmlns="http://www.w3.org/2000/svg">
<path d="M28.9045 5.91454H6.48939C5.73274 5.91454 5.11703 6.53024 5.11703 7.28689V8.65516L1.78951 5.14278C1.66106 5.00697 1.46235 4.96347 1.28815 5.03209C1.11436 5.10173 1 5.27001 1 5.45707V15.0635C1 15.2008 1.06167 15.3307 1.16787 15.4177L5.11705 18.6486V23.7551C5.11705 24.5118 5.73276 25.1275 6.48941 25.1275H8.12991L9.10017 26.0978C9.35912 26.3571 9.70385 26.4999 10.0704 26.4999H17.0106C17.0523 26.4999 17.0929 26.4943 17.1313 26.4839C17.1963 26.4943 17.2637 26.4999 17.3308 26.4999H18.3464C18.8533 26.4999 19.2897 26.2089 19.4831 25.74C19.5668 25.5386 19.592 25.3291 19.5691 25.1275H28.9042C29.6609 25.1275 30.2766 24.5118 30.2766 23.7552V7.28692C30.2766 6.53027 29.6609 5.91456 28.9042 5.91456L28.9045 5.91454ZM13.8086 6.82944H15.6384V10.0915L14.9773 9.65095C14.8236 9.54844 14.6236 9.54844 14.47 9.65095L13.8086 10.0915L13.8086 6.82944ZM6.03194 7.28689C6.03194 7.03488 6.23697 6.82944 6.48939 6.82944H12.8937V10.9465C12.8937 11.1154 12.9866 11.2704 13.1353 11.35C13.2836 11.4293 13.4647 11.4205 13.6046 11.3272L14.7235 10.5813L15.842 11.327C15.9184 11.3784 16.007 11.4039 16.0959 11.4039C16.17 11.4039 16.2441 11.3862 16.3117 11.35C16.4604 11.2704 16.5533 11.1154 16.5533 10.9465V6.82944H23.4151V24.2126H19.0299L15.5884 20.7707L15.1908 19.3795L15.9693 20.158C16.5392 20.728 17.4541 20.7922 18.0968 20.3094C18.4601 20.0372 18.6948 19.6218 18.7399 19.1698C18.7852 18.7183 18.6384 18.2645 18.3364 17.9251L15.9513 15.2417C15.6056 14.8524 15.132 14.5912 14.6177 14.5052L9.91744 13.7221L6.03198 9.62075L6.03194 7.28689ZM6.03194 23.7551V19.5407C6.09422 19.6577 6.14303 19.7817 6.16958 19.913L6.84697 23.3013C6.91334 23.6334 7.05099 23.9432 7.25051 24.2126H6.48937C6.23695 24.2126 6.03192 24.0071 6.03192 23.7551L6.03194 23.7551ZM18.6382 25.3901C18.6139 25.4485 18.5367 25.5849 18.3464 25.5849H17.3308C17.2463 25.5849 17.1674 25.552 17.1076 25.4926L14.1319 22.5169C14.0427 22.4277 13.9255 22.3828 13.8084 22.3828C13.6914 22.3828 13.5742 22.4277 13.485 22.5167C13.3061 22.6956 13.3061 22.9848 13.485 23.1635L15.9064 25.5849H14.8528L12.2421 22.9741C12.0632 22.7952 11.774 22.7952 11.5953 22.9741C11.4164 23.153 11.4164 23.4422 11.5953 23.6209L13.559 25.5848H12.5655L9.95475 22.9741C9.77585 22.7952 9.48668 22.7952 9.30799 22.9741C9.12909 23.153 9.12909 23.4421 9.30799 23.6208L11.2717 25.5848H10.0701C9.94985 25.5848 9.83181 25.5358 9.74665 25.4508L8.11901 23.8232C7.92643 23.6306 7.79695 23.3882 7.74386 23.1219L7.06647 19.7331C6.96272 19.2152 6.68029 18.7459 6.27186 18.4116L1.91463 14.8466V6.60514L9.35931 14.4634C9.42753 14.5357 9.518 14.5836 9.61643 14.6002L14.4677 15.4089C14.7764 15.4602 15.0605 15.6174 15.2682 15.8508L17.6532 18.5343C17.7872 18.6852 17.8499 18.8782 17.8299 19.0791C17.8097 19.2799 17.7096 19.4574 17.5481 19.5783C17.2673 19.7896 16.8664 19.7612 16.6162 19.5119L15.6301 18.5251C15.3556 18.251 14.9466 18.1985 14.6114 18.3956C14.2771 18.5923 14.1242 18.9756 14.2304 19.3485L14.7409 21.1362C14.7624 21.2108 14.8026 21.279 14.8575 21.3339L18.5698 25.0462C18.704 25.1806 18.6619 25.3315 18.6382 25.3901L18.6382 25.3901ZM29.3619 23.7551C29.3619 24.0071 29.1569 24.2126 28.9045 24.2126H24.33V6.82944H28.9045C29.1569 6.82944 29.3619 7.03488 29.3619 7.28689V23.7551Z" fill="#C3D600"/>
</svg>
