<svg width="24" height="25" viewBox="0 0 24 25" fill="none" xmlns="http://www.w3.org/2000/svg">
<path d="M3.96839 0.925831C3.15618 0.925831 2.37737 1.24837 1.80317 1.82256C1.22878 2.39695 0.90625 3.17576 0.90625 3.98777C0.90625 4.79997 1.22879 5.57879 1.80317 6.15298C2.37737 6.72737 3.15618 7.04991 3.96839 7.04991C4.78039 7.04991 5.55921 6.72737 6.1336 6.15298C6.70779 5.57879 7.03032 4.79997 7.03032 3.98777C7.02603 3.17711 6.70193 2.40085 6.1287 1.8274C5.55526 1.25416 4.77899 0.93008 3.96834 0.925781L3.96839 0.925831ZM3.96839 5.93051C3.45312 5.93051 2.959 5.7257 2.59469 5.36157C2.23056 4.99725 2.02574 4.50308 2.02574 3.98787C2.02574 3.47281 2.23055 2.97869 2.59469 2.61437C2.95901 2.25005 3.45317 2.04542 3.96839 2.04542C4.48345 2.04542 4.97757 2.25004 5.34189 2.61437C5.70621 2.97869 5.91083 3.47286 5.91083 3.98787C5.91005 4.50293 5.70524 4.9965 5.34114 5.36062C4.97701 5.72475 4.48325 5.92976 3.96839 5.93051Z" fill="#C3D600"/>
<path d="M9.95312 3.44434H23.9955V4.56383H9.95312V3.44434Z" fill="#C3D600"/>
<path d="M3.96839 9.61919C3.15618 9.61919 2.37737 9.94192 1.80317 10.5161C1.22878 11.0903 0.90625 11.8691 0.90625 12.6813C0.90625 13.4935 1.22879 14.2723 1.80317 14.8465C2.37737 15.4207 3.15618 15.7435 3.96839 15.7435C4.78039 15.7435 5.55921 15.4207 6.1336 14.8465C6.70779 14.2723 7.03032 13.4935 7.03032 12.6813C7.02603 11.8705 6.70193 11.0942 6.1287 10.521C5.55526 9.94772 4.77899 9.62364 3.96834 9.61914L3.96839 9.61919ZM3.96839 14.6239C3.45312 14.6239 2.959 14.4193 2.59469 14.0549C2.23056 13.6906 2.02574 13.1966 2.02574 12.6814C2.02574 12.1662 2.23055 11.6722 2.59469 11.3079C2.95901 10.9436 3.45317 10.739 3.96839 10.739C4.48345 10.739 4.97757 10.9436 5.34189 11.3079C5.70621 11.6722 5.91083 12.1662 5.91083 12.6814C5.91005 13.1965 5.70524 13.6901 5.34114 14.0542C4.97701 14.4183 4.48325 14.6231 3.96839 14.6239Z" fill="#C3D600"/>
<path d="M9.95312 12.1387H23.9955V13.2582H9.95312V12.1387Z" fill="#C3D600"/>
<path d="M3.96839 18.3126C3.15618 18.3126 2.37737 18.6351 1.80317 19.2095C1.22878 19.7837 0.90625 20.5625 0.90625 21.3747C0.90625 22.1867 1.22879 22.9655 1.80317 23.5399C2.37737 24.1141 3.15618 24.4366 3.96839 24.4366C4.78039 24.4366 5.55921 24.1141 6.1336 23.5399C6.70779 22.9655 7.03032 22.1867 7.03032 21.3747C7.02603 20.5638 6.70193 19.7876 6.1287 19.2143C5.55526 18.6409 4.77899 18.317 3.96834 18.3125L3.96839 18.3126ZM3.96839 23.3172C3.45312 23.3172 2.959 23.1126 2.59469 22.7483C2.23056 22.384 2.02574 21.8898 2.02574 21.3748C2.02574 20.8595 2.23055 20.3654 2.59469 20.0011C2.95901 19.637 3.45317 19.4321 3.96839 19.4321C4.48345 19.4321 4.97757 19.637 5.34189 20.0011C5.70621 20.3654 5.91083 20.8596 5.91083 21.3748C5.91005 21.8897 5.70524 22.3834 5.34114 22.7475C4.97701 23.1117 4.48325 23.3165 3.96839 23.3172Z" fill="#C3D600"/>
<path d="M9.95312 20.832H23.9955V21.9515H9.95312V20.832Z" fill="#C3D600"/>
</svg>
