<svg width="26" height="29" viewBox="0 0 26 29" fill="none" xmlns="http://www.w3.org/2000/svg">
<path d="M4.7426 15.4037H10.8628C11.1953 15.4037 11.4645 15.1344 11.4645 14.802C11.4645 14.4697 11.1952 14.2002 10.8628 14.2002H4.7426C4.41012 14.2002 4.14062 14.4697 4.14062 14.802C4.14062 15.1344 4.41013 15.4037 4.7426 15.4037Z" fill="#C3D600"/>
<path d="M14.1727 18.1113H4.7426C4.41012 18.1113 4.14062 18.3806 4.14062 18.7131C4.14062 19.0453 4.41013 19.3148 4.7426 19.3148H14.1727C14.505 19.3148 14.7745 19.0453 14.7745 18.7131C14.7745 18.3806 14.505 18.1113 14.1727 18.1113Z" fill="#C3D600"/>
<path d="M14.1727 22.0234H4.7426C4.41012 22.0234 4.14062 22.2927 4.14062 22.6252C4.14062 22.9575 4.41013 23.2269 4.7426 23.2269H14.1727C14.505 23.2269 14.7745 22.9574 14.7745 22.6252C14.7745 22.2927 14.505 22.0234 14.1727 22.0234Z" fill="#C3D600"/>
<path d="M25.2312 6.09963C25.2356 6.05765 25.2356 6.01526 25.2312 5.97328V5.95522C25.2194 5.90926 25.2022 5.86476 25.18 5.82278L25.1619 5.78962V5.78983C25.1353 5.7447 25.1029 5.70314 25.0656 5.66641L19.1797 0.156629C19.0669 0.0542036 18.9198 -0.00183993 18.7674 4.61029e-05H9.32815C8.53011 4.61029e-05 7.76485 0.317194 7.20043 0.881374C6.63602 1.44579 6.31911 2.21105 6.31911 3.00909V4.51362H3.00905C2.211 4.51362 1.44574 4.83077 0.881328 5.39495C0.317132 5.95936 0 6.72462 0 7.52266V25.5769C0 26.375 0.317148 27.1405 0.881328 27.7047C1.44574 28.2691 2.211 28.586 3.00905 28.586H15.9028C16.7009 28.586 17.4663 28.2691 18.0305 27.7047C18.5949 27.1405 18.9119 26.375 18.9119 25.5769V24.0724H22.2219C23.02 24.0724 23.7852 23.7555 24.3496 23.1911C24.9138 22.6269 25.231 21.8614 25.231 21.0634L25.2312 6.09963ZM19.3694 1.99535L23.1068 5.49788H19.9714C19.6389 5.49788 19.3694 5.22858 19.3694 4.89612V1.99535ZM17.7086 25.5831C17.7086 26.0618 17.5184 26.5211 17.1796 26.8596C16.8411 27.1982 16.382 27.3886 15.903 27.3886H3.00927C2.5305 27.3886 2.07125 27.1982 1.73268 26.8596C1.39412 26.5211 1.20396 26.0618 1.20396 25.5831V7.52877C1.20396 7.05 1.39413 6.59075 1.73268 6.25218C2.07124 5.91362 2.53051 5.72325 3.00927 5.72325H11.8467V9.40943C11.8467 9.88821 12.0371 10.3475 12.3757 10.686C12.7142 11.0246 13.1735 11.215 13.6523 11.215H17.7085L17.7086 25.5831ZM13.0506 9.40942V6.5087L16.7877 10.0112H13.6523C13.3198 10.0112 13.0506 9.74194 13.0506 9.40948V9.40942ZM22.2222 22.8749H18.9122V18.7133H20.4889C20.8214 18.7133 21.0909 18.4438 21.0909 18.1116C21.0909 17.7791 20.8214 17.5098 20.4889 17.5098H18.9122V14.8018H20.4889V14.8016C20.8214 14.8016 21.0909 14.5321 21.0909 14.1998C21.0909 13.8674 20.8214 13.5981 20.4889 13.5981H18.9122V10.6129C18.9132 10.4471 18.8459 10.2882 18.7256 10.1736L12.8612 4.6703C12.7484 4.56787 12.6011 4.51183 12.4489 4.51371H7.52291V3.00919C7.52291 2.53042 7.71328 2.07117 8.05184 1.7326C8.3904 1.39404 8.84967 1.20388 9.32843 1.20388H18.1659V4.89593C18.1659 5.3747 18.3561 5.83395 18.6946 6.17252C19.0332 6.51108 19.4924 6.70145 19.9714 6.70145H24.0274V21.0697C24.0274 21.5484 23.8372 22.0077 23.4987 22.3462C23.1601 22.6848 22.7009 22.8752 22.2221 22.8752L22.2222 22.8749Z" fill="#C3D600"/>
</svg>
