<svg width="32" height="31" viewBox="0 0 32 31" fill="none" xmlns="http://www.w3.org/2000/svg">
<path d="M28.7819 5.05648L30.373 1.51658L29.9845 0.561831L28.6116 0L27.6791 0.36721L25.914 4.28534L25.0037 3.69046H7.16401L6.27961 4.27799L4.51821 0.36721L3.58571 0L2.21285 0.561831L1.82431 1.51658L3.42289 5.06749L0 11.714L0.851096 12.5879L1.02131 12.6026H1.03612C1.04352 12.6026 1.05832 12.6026 1.07682 12.6026C1.15083 12.6063 1.29885 12.6136 1.50977 12.6136C2.44598 12.6136 4.24808 12.4998 5.99838 11.7654C6.27591 17.3066 6.46833 21.3532 6.56084 23.7989V23.8319C6.69406 25.0584 6.90868 28.0218 7.02339 29.6779C7.02709 29.7513 7.03079 29.7917 7.03079 29.7917L7.0419 29.9643L7.80048 30.6804L14.1097 30.7318H18.0099C20.2635 30.695 24.3302 30.6767 24.3599 30.6767H24.5338L25.2961 29.9643L25.6661 24.3533L26.2397 11.7581C28.0011 12.4998 29.8032 12.6136 30.7394 12.6136C30.9503 12.6136 31.102 12.6063 31.1723 12.6026C31.1908 12.6026 31.2056 12.6026 31.213 12.6026L31.398 12.5843L32.2491 11.7103L28.7819 5.05648ZM28.6116 0.947401L29.3036 1.23015L29.4109 1.49822L28.0122 4.60848L26.7762 4.53137L28.3452 1.05022L28.6116 0.947401ZM26.2841 10.8143L26.532 5.39798L28.0159 5.48978L31.1686 11.5524L30.9947 11.7323C30.4359 11.747 28.2379 11.736 26.2841 10.8143ZM24.7373 4.56809L25.655 5.16297V5.19969L24.8853 22.0069L19.8823 19.2051L19.8675 19.1977L19.0275 18.9664L13.0292 18.937H13.0107L12.1189 19.1794L7.37493 21.9848C7.14551 16.6309 6.69406 7.88032 6.55344 5.19602V5.19234C6.55344 5.18133 6.54974 5.17031 6.54974 5.15929L7.43784 4.56809H24.7373ZM12.4667 19.9946L13.1217 19.8146L18.8684 19.8367L19.4901 19.9982L24.8335 22.9873L24.7743 24.3056L24.4302 29.5604L24.1748 29.7954C23.3274 29.7954 19.9601 29.8137 17.9988 29.8468H14.1097L8.15572 29.7991L7.90409 29.5604C7.84489 28.7121 7.59696 25.1465 7.44524 23.7511L7.44154 23.6299C7.43414 23.4206 7.42304 23.2076 7.41564 22.9836L12.4667 19.9946ZM5.95027 10.8253C4.05936 11.7066 1.95012 11.747 1.25074 11.7323L1.07682 11.5524L4.19257 5.5008L5.66904 5.40165C5.71715 6.30866 5.82446 8.36136 5.95027 10.8253ZM2.89743 1.23015L3.5894 0.947401L3.85584 1.05389L5.42481 4.53871L4.19257 4.6195L2.78641 1.49822L2.89743 1.23015Z" fill="#C3D600"/>
<path d="M11.3344 14.1931C12.0079 14.1931 12.5556 13.6496 12.5556 12.9813C12.5556 12.313 12.0079 11.7695 11.3344 11.7695C10.6609 11.7695 10.1133 12.313 10.1133 12.9813C10.1133 13.6496 10.6609 14.1931 11.3344 14.1931ZM11.0014 12.9813C11.0014 12.7977 11.1531 12.6508 11.3344 12.6508C11.5157 12.6508 11.6675 12.8014 11.6675 12.9813C11.6675 13.1649 11.5157 13.3118 11.3344 13.3118C11.1531 13.3118 11.0014 13.1649 11.0014 12.9813Z" fill="#C3D600"/>
<path d="M19.9184 14.2478C20.5919 14.2478 21.1395 13.7043 21.1395 13.036C21.1395 12.3677 20.5919 11.8242 19.9184 11.8242C19.2449 11.8242 18.6973 12.3677 18.6973 13.036C18.6973 13.7043 19.2449 14.2478 19.9184 14.2478ZM19.5854 13.036C19.5854 12.8524 19.7371 12.7055 19.9184 12.7055C20.0997 12.7055 20.2514 12.8561 20.2514 13.036C20.2514 13.2196 20.0997 13.3665 19.9184 13.3665C19.7371 13.3665 19.5854 13.2196 19.5854 13.036Z" fill="#C3D600"/>
<path d="M13.1136 27.0375C14.0017 27.0375 14.7233 26.3214 14.7233 25.4401C14.7233 24.5588 14.0017 23.8428 13.1136 23.8428C12.2255 23.8428 11.5039 24.5588 11.5039 25.4401C11.5039 26.3214 12.2255 27.0375 13.1136 27.0375ZM12.3883 25.4401C12.3883 25.0435 12.7139 24.7204 13.1099 24.7204C13.5095 24.7204 13.8315 25.0435 13.8315 25.4401C13.8315 25.8367 13.5058 26.1562 13.1099 26.1562C12.7139 26.1562 12.3883 25.8367 12.3883 25.4401Z" fill="#C3D600"/>
<path d="M19.1136 27.0375C20.0017 27.0375 20.7233 26.3214 20.7233 25.4401C20.7233 24.5588 20.0017 23.8428 19.1136 23.8428C18.2255 23.8428 17.5039 24.5588 17.5039 25.4401C17.5039 26.3214 18.2255 27.0375 19.1136 27.0375ZM18.3883 25.4401C18.3883 25.0435 18.7139 24.7204 19.1099 24.7204C19.5095 24.7204 19.8315 25.0435 19.8315 25.4401C19.8315 25.8367 19.5058 26.1562 19.1099 26.1562C18.7139 26.1562 18.3883 25.8367 18.3883 25.4401Z" fill="#C3D600"/>
</svg>
