<svg width="32" height="32" viewBox="0 0 32 32" fill="none" xmlns="http://www.w3.org/2000/svg">
<path d="M13.7513 12.3721L12.9453 13.1719V16.644L13.7513 17.4438H18.2065L19.0125 16.644V13.1719L18.2065 12.3721H13.7513ZM14.0711 16.6821L13.7129 16.3267V13.4829L14.0711 13.1274H17.8931L18.2513 13.4829V16.3267L17.8931 16.6821H14.0711Z" fill="#C3D600"/>
<path d="M26.1493 9.21118L16.0747 3L6.09916 9.21435L3 18.4312L5.12368 19.2214V28.4351H27.0385V19.196L29.2485 18.4343L26.1493 9.21118ZM22.1994 20.4275H9.9979L9.33265 21.0876V27.6733H5.89127V19.0247L6.2143 18.866L8.72817 11.0298L16.0747 6.73242L23.3956 11.1218L25.8487 18.8723L26.2741 19.0881V27.6733H22.8647V21.0876L22.1994 20.4275ZM16.0779 5.84692L8.12689 10.4966L8.08531 10.522L5.58743 18.3264L5.29319 18.4661L3.96269 17.9709L6.73882 9.7063L16.0779 3.89502L25.5129 9.71265L28.2858 17.9646L26.7698 18.4851L26.4788 18.3391L24.0385 10.6235L16.0779 5.84692ZM22.1003 21.5701V27.5464L16.7495 24.5566L22.1003 21.5701ZM15.1919 24.5598L10.1002 27.4067V21.7129L15.1919 24.5598ZM10.7079 21.186H21.2304L15.9691 24.125L10.7079 21.186ZM20.7634 27.6733H11.1781L15.9691 24.9946L20.7634 27.6733Z" fill="#C3D600"/>
</svg>
