<svg width="31" height="29" viewBox="0 0 31 29" fill="none" xmlns="http://www.w3.org/2000/svg">
<path d="M16.2723 14.1655L16.6926 15.2922L17.5116 15.0772L17.0913 13.9262C17.2745 13.7687 17.3787 13.5597 17.3787 13.3416C17.3787 12.8843 16.9368 12.5117 16.3944 12.5117C15.852 12.5117 15.4102 12.8843 15.4102 13.3416C15.4102 13.7626 15.7873 14.114 16.2723 14.1655ZM16.2687 13.3416C16.2687 13.2841 16.3262 13.2356 16.3944 13.2356C16.4627 13.2356 16.5201 13.2841 16.5201 13.3416C16.5201 13.3992 16.4627 13.4476 16.3944 13.4476C16.3262 13.4476 16.2687 13.3992 16.2687 13.3416Z" fill="#C3D600"/>
<path d="M10.9257 8.78322L14.0096 5.58143L10.8333 5.54832L10.404 2.52533L7.88806 4.43912L5.59989 2.08496L5.81121 6.79659L5.15745 6.54164L4.40793 7.29987L0.693383 20.7129L0 23.0141L0.607535 24.2127L2.69099 25.0239L3.90936 24.5372L5.01217 22.4214L10.5064 12.0413L11.53 10.0977L11.5201 9.01168L10.9257 8.78322ZM1.17545 23.5836L0.848569 22.9413L1.4528 20.9381L1.76317 19.8123L4.86359 21.0176L4.31548 22.0539L3.34805 23.9147L2.68768 24.1763L1.17545 23.5836ZM6.78525 17.382L5.23669 20.309L1.97779 19.0409L2.85938 15.8556L6.78525 17.382ZM8.73002 13.7068L7.15835 16.6768L3.074 15.0875L3.96879 11.8493L8.73002 13.7068ZM6.61685 7.10452L6.48478 4.13119L7.80881 5.49535L9.80972 3.97226L10.1432 6.33966L12.1573 6.35622L10.1267 8.47198L6.61685 7.10452ZM5.93338 7.68726L10.2489 9.36928L10.7375 9.55801L10.7408 9.90567L9.10313 12.9982L4.18341 11.0844L5.11783 7.71044L5.35556 7.46542L5.93338 7.68726Z" fill="#C3D600"/>
<path d="M20.973 15.293L19.2034 15.8085L17.4232 15.4446L16.1171 15.8523L14.8881 17.0989L13.1466 17.6278L12.6094 18.834L16.8825 27.6175L16.9071 27.6647L18.0938 28.1431L19.4246 27.877L19.709 28.5003L22.0404 27.8062L21.893 27.0852L23.1219 26.6472L23.8171 25.5994L22.1247 15.9904L20.973 15.293ZM19.0735 27.129L18.1746 27.3076L17.5321 27.0481L13.5293 18.8239L13.7681 18.2882L14.8671 17.9513L19.0735 27.129ZM21.7279 26.2901L19.709 16.5093L20.8466 16.1757L21.3593 16.489L22.9323 25.4343L22.5601 25.9936L21.7279 26.2901ZM20.176 27.5232L15.6009 17.5503L16.5805 16.5598L17.4689 16.2801L18.8663 16.5632L21.0713 27.2537L20.176 27.5232Z" fill="#C3D600"/>
<path d="M29.8987 5.79866L30.0716 3.88548L29.4013 1.9097L27.602 0.800055L24.582 0.400028L23.1673 0.723528L21.2657 0L19.0431 0.504383L17.646 1.0679L17.3038 2.81759L16.323 3.96897L16.1113 6.14303L17.5261 7.77793L19.3218 7.9275L19.851 11.4269L19.8969 11.7052L23.0685 12.46L23.3508 12.5122L25.4464 9.56936L26.5753 10.0703L29.1472 9.30499L30.121 7.28398L29.8987 5.79866ZM26.6283 9.18672L24.6596 8.31362L22.9274 8.55711L21.8796 8.30666L21.3186 7.8475C21.2834 7.80228 21.241 7.76749 21.1952 7.74314L20.5425 7.19702L17.9424 6.98135L16.9863 5.87171L17.138 4.30638L18.0941 3.18978L18.3904 1.66968L19.2795 1.30792L21.2057 0.869625L23.1073 1.59315L24.6244 1.24878L27.3092 1.60359L28.7027 2.46278L29.2213 3.98636L29.0555 5.81953L29.2531 7.15875L28.551 8.61625L26.6283 9.18672ZM20.2073 8.00751L20.6201 8.3484L20.9658 10.0911C21.0011 10.2894 21.1775 10.432 21.3786 10.432C21.4104 10.432 21.4386 10.4251 21.4562 10.4216C21.5656 10.4007 21.6644 10.3381 21.7279 10.2442C21.7914 10.1503 21.8126 10.0424 21.7914 9.9346L21.6256 9.10672L22.7722 9.38152L22.377 10.112C22.3241 10.2094 22.3135 10.3242 22.3453 10.4285C22.377 10.5329 22.4511 10.6233 22.5499 10.6755L22.5534 10.679C22.6169 10.7103 22.6804 10.7242 22.7475 10.7242C22.9062 10.7242 23.0474 10.6407 23.1179 10.5051L23.7776 9.28412L24.5362 9.17976L24.6561 9.23194L22.9733 11.5938L20.6377 11.0373L20.1791 8.01099L20.2073 8.00751Z" fill="#C3D600"/>
</svg>
