<svg width="28" height="25" viewBox="0 0 28 25" fill="none" xmlns="http://www.w3.org/2000/svg">
<path d="M13.2879 0C5.96165 0 0 5.89341 0 13.1358C0 19.6779 5.38376 25 12.0016 25C17.9819 25 22.8474 20.1902 22.8474 14.2783C22.8474 8.9341 18.4479 4.58499 13.0418 4.58499C8.1502 4.58499 4.17204 8.51762 4.17204 13.3532C4.17204 17.6692 7.76991 21.2295 12.1955 21.2885C14.123 21.3143 15.7784 20.7062 16.9827 19.5341C18.2839 18.2626 18.9736 16.3939 18.9736 14.1235C18.9736 10.8138 15.8493 8.7535 12.833 8.6761C11.6399 8.64293 10.4991 9.09258 9.61917 9.94029C8.6498 10.8728 8.09427 12.1922 8.09427 13.5596C8.09427 15.5204 9.56325 17.5623 12.3744 17.6692C13.4333 17.7097 14.5182 17.1016 15.0738 16.158C15.4242 15.5646 15.8605 14.3226 14.8389 12.6935L14.7606 12.5682L14 13.0326L14.0783 13.1579C14.6525 14.0719 14.7308 14.9786 14.302 15.7121C13.9142 16.3718 13.135 16.8141 12.408 16.7846C10.1598 16.6998 8.98535 15.0966 8.98535 13.5596C8.98535 12.4281 9.44394 11.3409 10.2381 10.5705C10.9427 9.89238 11.8562 9.53118 12.8069 9.55698C15.3981 9.62332 18.0788 11.3519 18.0788 14.1235C18.0788 16.1507 17.4823 17.8019 16.3526 18.9039C15.3236 19.9101 13.8882 20.4297 12.2067 20.4039C8.2024 20.3523 5.06684 17.2527 5.06684 13.3495C5.06684 9.00044 8.64607 5.46218 13.0455 5.46218C17.9595 5.46218 21.9601 9.41692 21.9601 14.2747C21.9601 19.7 17.4935 24.1154 12.0053 24.1154C5.87963 24.1154 0.894807 19.1877 0.894807 13.1321C0.894807 6.37623 6.4538 0.880878 13.2879 0.880878C20.9087 0.880878 27.1089 7.01017 27.1089 14.5437V14.6911H28V14.5437C28 6.52366 21.4008 0 13.2879 0Z" fill="#C3D600"/>
</svg>
