<svg width="29" height="31" viewBox="0 0 29 31" fill="none" xmlns="http://www.w3.org/2000/svg">
<path d="M17.0715 18.5388L17.0941 18.4788L13.0706 13.2451L12.2773 13.3801L10.1465 20.0421L13.6071 27.1541L17.0715 18.5388ZM11.0343 19.9784L12.8477 14.3136L16.1534 18.61L13.5315 25.1146L11.0343 19.9784Z" fill="#C3D600"/>
<path d="M17.6077 18.6475L17.5434 18.6588L14.0488 27.3303L21.4952 24.5485L24.5478 18.3251L24.578 18.2651L24.0982 17.624L17.6077 18.6475ZM15.5185 25.9019L18.1404 19.3973L23.5202 18.5463L20.8983 23.8924L15.5185 25.9019Z" fill="#C3D600"/>
<path d="M19.8898 11.4908L19.9125 11.4308L16.0287 6.38086L15.2429 6.50833L13.0215 12.9717L17.1583 18.2616L19.8898 11.4908ZM13.9509 12.818L15.8021 7.43809L18.968 11.5583L16.9279 16.6232L13.9509 12.818Z" fill="#C3D600"/>
<path d="M19.4885 11.626L16.7344 18.4567L23.3458 17.467L23.4063 17.4595L26.2888 11.2586L25.809 10.625L19.4885 11.626ZM18.0415 17.4295L20.0816 12.3646L25.2386 11.5473L22.8396 16.7097L18.0415 17.4295Z" fill="#C3D600"/>
<path d="M22.5656 4.91125L22.5883 4.85126L18.9161 0L18.1265 0.127467L16.1205 6.14468L16.1016 6.20092L19.974 11.3296L22.5656 4.91125ZM17.0272 6.0547L18.6895 1.06848L21.6476 4.97498L19.7586 9.66503L17.0272 6.0547Z" fill="#C3D600"/>
<path d="M19.5117 11.5096L25.8814 10.4449L28.6355 4.66011L28.1519 4.03027L22.1223 5.03127L19.5117 11.5096ZM27.5739 4.96004L25.3147 9.70632L20.8302 10.4561L22.7192 5.76608L27.5739 4.96004Z" fill="#C3D600"/>
<path d="M12.107 30.4237C12.0239 30.6337 12.1259 30.8736 12.3375 30.9599C12.3866 30.9786 12.4395 30.9898 12.4924 30.9898C12.6586 30.9898 12.8135 30.8924 12.8777 30.7312L14.1849 27.4882L13.4142 27.1846L12.107 30.4237Z" fill="#C3D600"/>
<path d="M22.5384 3.56819L23.0824 2.21479C23.4413 2.18854 23.7511 1.96735 23.8871 1.63369C24.0798 1.15381 23.8456 0.606448 23.362 0.415247C23.1278 0.321521 22.8709 0.325271 22.6404 0.426495C22.41 0.52397 22.2324 0.707672 22.1379 0.940113C22.0019 1.27378 22.0737 1.64493 22.3155 1.91111L21.7715 3.26452L22.5384 3.56819ZM22.9087 1.24753C22.92 1.21754 22.9427 1.1988 22.9691 1.1838C22.9842 1.1763 22.9993 1.1763 23.0144 1.1763C23.0295 1.1763 23.0409 1.18005 23.056 1.1838C23.0711 1.1913 23.0824 1.1988 23.0938 1.21004C23.124 1.24004 23.1353 1.28877 23.1202 1.33001C23.1051 1.36375 23.0749 1.39 23.0409 1.3975C23.0371 1.3975 23.0333 1.3975 23.0258 1.3975C23.022 1.3975 23.022 1.3975 23.0182 1.3975C23.0031 1.3975 22.988 1.39375 22.9729 1.39C22.9464 1.37875 22.9238 1.36001 22.9124 1.33376C22.9087 1.32252 22.9049 1.30752 22.9049 1.29252C22.9011 1.27753 22.9011 1.26253 22.9087 1.24753Z" fill="#C3D600"/>
<path d="M9.49372 3.04785L9.20281 3.08909C8.99503 3.11908 7.15894 3.38527 6.62247 4.07509C5.84799 5.07233 6.08978 6.84938 6.10111 6.92436L6.14267 7.21679L6.43735 7.1793C6.52046 7.16805 8.48878 6.90562 9.28215 5.88213C9.8224 5.18481 9.56928 3.52398 9.53905 3.33653L9.49372 3.04785ZM8.80613 5.51472C8.32633 6.12956 7.21561 6.42199 6.67158 6.53071C6.64136 6.02459 6.64891 5.0236 7.10227 4.43875C7.35539 4.11258 8.29233 3.85015 8.98747 3.72643C9.05169 4.34877 9.0517 5.19605 8.80613 5.51472Z" fill="#C3D600"/>
<path d="M1.57815 6.64316L1.34014 6.4707L1.1588 6.70314C1.03035 6.8681 -0.0954799 8.33023 0.00652492 9.20001C0.153865 10.4522 1.57816 11.5544 1.6386 11.6031L1.87661 11.7831L2.06173 11.5507C2.11463 11.4869 3.3349 9.93107 3.18379 8.6489C3.08178 7.76787 1.72927 6.75563 1.57815 6.64316ZM1.77083 10.9171C1.39304 10.5759 0.694113 9.85234 0.60722 9.12128C0.558106 8.71263 1.04546 7.87659 1.45348 7.30674C1.93706 7.70414 2.53776 8.31148 2.58309 8.70888C2.67754 9.48118 2.0844 10.4634 1.77083 10.9171Z" fill="#C3D600"/>
<path d="M7.66431 11.6816L7.36963 11.7004C7.16184 11.7154 5.31064 11.8503 4.72506 12.5027C3.87879 13.4437 3.99591 15.232 3.99969 15.3107L4.01858 15.6069L4.31703 15.5881C4.40015 15.5844 6.38358 15.4569 7.24873 14.4934C7.83809 13.8336 7.70209 12.1615 7.68697 11.9703L7.66431 11.6816ZM6.79915 14.096C6.2778 14.6771 5.14819 14.8871 4.5966 14.9583C4.60416 14.4522 4.6835 13.4512 5.17463 12.9038C5.45042 12.5964 6.40247 12.4015 7.10517 12.3265C7.12784 12.9488 7.07117 13.7961 6.79915 14.096Z" fill="#C3D600"/>
</svg>
