<svg width="12" height="18" viewBox="0 0 12 18" fill="none" xmlns="http://www.w3.org/2000/svg">
<mask id="path-1-inside-1_7_2506" fill="white">
<path d="M0.00279982 6.05394C-0.212454 -2.01798 12.0566 -2.01798 11.7337 6.05394C11.7337 9.60551 7.75184 14.879 5.92196 18C3.98481 14.8789 0.110177 9.60521 0.00279982 6.05394ZM5.92196 16.3856C7.64401 13.5874 10.8729 9.0672 10.9802 5.94619C11.1955 -0.834222 0.648553 -0.834222 0.86368 5.94619C0.971307 9.06724 4.19997 13.5875 5.92196 16.3856Z"/>
</mask>
<path d="M0.00279982 6.05394C-0.212454 -2.01798 12.0566 -2.01798 11.7337 6.05394C11.7337 9.60551 7.75184 14.879 5.92196 18C3.98481 14.8789 0.110177 9.60521 0.00279982 6.05394ZM5.92196 16.3856C7.64401 13.5874 10.8729 9.0672 10.9802 5.94619C11.1955 -0.834222 0.648553 -0.834222 0.86368 5.94619C0.971307 9.06724 4.19997 13.5875 5.92196 16.3856Z" fill="white"/>
<path d="M11.7337 6.05394L10.7345 6.01397L10.7337 6.03395V6.05394H11.7337ZM5.92196 18L5.07231 18.5274L5.94633 19.9355L6.78462 18.5058L5.92196 18ZM5.92196 16.3856L5.0703 16.9097L5.92194 18.2936L6.7736 16.9097L5.92196 16.3856ZM10.9802 5.94619L11.9796 5.98057L11.9797 5.97792L10.9802 5.94619ZM0.86368 5.94619L-0.135821 5.9779L-0.135726 5.98065L0.86368 5.94619ZM1.00244 6.02728C0.955988 4.28517 1.57432 3.05771 2.46136 2.25493C3.36862 1.43387 4.62256 1 5.90863 1C7.19491 1 8.43935 1.43385 9.33124 2.25086C10.2023 3.04884 10.8042 4.27162 10.7345 6.01397L12.7329 6.0939C12.8247 3.80029 12.014 1.99611 10.6822 0.776104C9.37118 -0.424857 7.62234 -1 5.90863 -1C4.1947 -1 2.44191 -0.424881 1.11934 0.772035C-0.22343 1.98724 -1.05801 3.78675 -0.996845 6.08059L1.00244 6.02728ZM10.7337 6.05394C10.7337 7.537 9.87314 9.53435 8.64481 11.694C8.0462 12.7465 7.38872 13.791 6.75891 14.7785C6.13555 15.7558 5.52902 16.6931 5.0593 17.4942L6.78462 18.5058C7.22983 17.7464 7.80725 16.8541 8.44514 15.8539C9.0766 14.8638 9.7577 13.7828 10.3833 12.6828C11.6034 10.5376 12.7337 8.12244 12.7337 6.05394H10.7337ZM6.7716 17.4726C5.76023 15.8432 4.36204 13.833 3.14546 11.6939C1.92054 9.54023 1.0478 7.52697 1.00234 6.02371L-0.996743 6.08416C-0.934819 8.13218 0.183438 10.5314 1.40697 12.6827C2.63883 14.8486 4.14654 17.0358 5.07231 18.5274L6.7716 17.4726ZM6.7736 16.9097C7.60091 15.5654 8.88246 13.665 9.93135 11.7715C10.9698 9.89691 11.917 7.80173 11.9796 5.98057L9.98082 5.9118C9.9361 7.21166 9.21515 8.9371 8.18185 10.8024C7.15896 12.6489 5.96506 14.4076 5.07031 15.8615L6.7736 16.9097ZM11.9797 5.97792C12.0426 3.99854 11.3104 2.43714 10.1238 1.38423C8.95956 0.351135 7.42075 -0.13912 5.922 -0.13912C4.42326 -0.13912 2.88444 0.351135 1.72019 1.38422C0.533607 2.43712 -0.198618 3.99852 -0.135817 5.9779L1.86318 5.91448C1.81841 4.50364 2.32388 3.52239 3.04762 2.88019C3.79369 2.21818 4.83781 1.86088 5.922 1.86088C7.00619 1.86088 8.05031 2.21818 8.79636 2.88019C9.52007 3.52238 10.0255 4.50363 9.98074 5.91446L11.9797 5.97792ZM-0.135726 5.98065C-0.0729262 7.80178 0.874223 9.89693 1.91268 11.7716C2.96155 13.665 4.24303 15.5654 5.0703 16.9097L6.77361 15.8615C5.8789 14.4077 4.68505 12.6489 3.66219 10.8024C2.62891 8.93714 1.90791 7.21165 1.86309 5.91172L-0.135726 5.98065Z" fill="white" mask="url(#path-1-inside-1_7_2506)"/>
<mask id="path-3-inside-2_7_2506" fill="white">
<path d="M5.92162 3.75C7.53604 3.75 8.82743 5.14914 8.82743 6.76342C8.82743 8.37784 7.53589 9.66923 5.92162 9.66923C4.3072 9.66923 2.9082 8.37769 2.9082 6.76342C2.9082 5.149 4.30735 3.75 5.92162 3.75ZM5.92162 4.61103C4.73771 4.61103 3.76923 5.57966 3.76923 6.76342C3.76923 7.94732 4.73786 8.9158 5.92162 8.9158C7.10553 8.9158 8.07401 7.94717 8.07401 6.76342C8.07401 5.57951 7.10538 4.61103 5.92162 4.61103Z"/>
</mask>
<path d="M5.92162 3.75C7.53604 3.75 8.82743 5.14914 8.82743 6.76342C8.82743 8.37784 7.53589 9.66923 5.92162 9.66923C4.3072 9.66923 2.9082 8.37769 2.9082 6.76342C2.9082 5.149 4.30735 3.75 5.92162 3.75ZM5.92162 4.61103C4.73771 4.61103 3.76923 5.57966 3.76923 6.76342C3.76923 7.94732 4.73786 8.9158 5.92162 8.9158C7.10553 8.9158 8.07401 7.94717 8.07401 6.76342C8.07401 5.57951 7.10538 4.61103 5.92162 4.61103Z" fill="white"/>
<path d="M5.92162 4.75C6.9372 4.75 7.82743 5.65369 7.82743 6.76342H9.82743C9.82743 4.6446 8.13488 2.75 5.92162 2.75V4.75ZM7.82743 6.76342C7.82743 7.82552 6.98364 8.66923 5.92162 8.66923V10.6692C8.08814 10.6692 9.82743 8.93015 9.82743 6.76342H7.82743ZM5.92162 8.66923C4.81181 8.66923 3.9082 7.77891 3.9082 6.76342H1.9082C1.9082 8.97647 3.80259 10.6692 5.92162 10.6692V8.66923ZM3.9082 6.76342C3.9082 5.70131 4.8596 4.75 5.92162 4.75V2.75C3.7551 2.75 1.9082 4.59668 1.9082 6.76342H3.9082ZM5.92162 3.61103C4.18538 3.61103 2.76923 5.02742 2.76923 6.76342H4.76923C4.76923 6.1319 5.29004 5.61103 5.92162 5.61103V3.61103ZM2.76923 6.76342C2.76923 8.49965 4.18562 9.9158 5.92162 9.9158V7.9158C5.2901 7.9158 4.76923 7.39499 4.76923 6.76342H2.76923ZM5.92162 9.9158C7.65785 9.9158 9.07401 8.49941 9.07401 6.76342H7.07401C7.07401 7.39493 6.5532 7.9158 5.92162 7.9158V9.9158ZM9.07401 6.76342C9.07401 5.02718 7.65762 3.61103 5.92162 3.61103V5.61103C6.55314 5.61103 7.07401 6.13184 7.07401 6.76342H9.07401Z" fill="white" mask="url(#path-3-inside-2_7_2506)"/>
</svg>
