<svg width="15" height="29" viewBox="0 0 15 29" fill="none" xmlns="http://www.w3.org/2000/svg">
<path d="M12.3762 10.2764H2.51953V11.1724H12.3762V10.2764Z" fill="#C3D600"/>
<path d="M10.6689 11.5322H3.9668V12.4282H10.6689V11.5322Z" fill="#C3D600"/>
<path d="M14.7227 7.00696C14.7227 6.99946 14.7227 6.99571 14.7227 6.98822C14.7227 6.97322 14.7227 6.95447 14.7151 6.93573C14.7151 6.93198 14.7151 6.92823 14.7114 6.92448C14.7114 6.92073 14.7114 6.91698 14.7076 6.91323L13.4155 1.86702V0.974751C13.4155 0.854782 13.3702 0.74231 13.2833 0.659831L12.7544 0.131216C12.6713 0.0487375 12.5542 0 12.4333 0H2.20255C2.08165 0 1.96454 0.0487375 1.87765 0.134965L1.36006 0.659831C1.27695 0.74231 1.23161 0.854781 1.23161 0.971002V1.86702L0.011334 6.92073C0.011334 6.92448 0.0113338 6.92823 0.0075558 6.93198C0.00377784 6.95073 0 6.97322 0 6.99571C0 6.99946 0 7.00321 0 7.00696V7.01071V27.7317C0 27.9791 0.20401 28.1816 0.453355 28.1816H14.2731C14.4696 28.1816 14.6396 28.0503 14.7 27.8591C14.7038 27.8516 14.7038 27.8479 14.7076 27.8366C14.7189 27.7954 14.7265 27.7542 14.7265 27.7167V7.02196L14.7227 7.00696ZM2.13832 1.78454V1.15845L2.39523 0.896021H12.2481L12.5126 1.1622V1.78829H2.13832V1.78454ZM1.02383 6.57582L1.96454 2.68431H12.6939L13.6913 6.57582H1.02383ZM13.8047 17.2081L13.7895 27.2818H0.902932V7.47184H13.816L13.8047 17.2081Z" fill="#C3D600"/>
</svg>
