<svg width="26" height="21" viewBox="0 0 26 21" fill="none" xmlns="http://www.w3.org/2000/svg">
<path d="M24.553 1.66891V4.18764V4.54453C24.7251 4.37251 24.8945 4.20305 25.0666 4.031H24.417H22.6608H20.065H16.8864H13.4305H9.91814H6.65478H3.89726H1.9074C1.59416 4.031 1.28091 4.0233 0.967665 4.031H0.926584L1.44012 4.54453V1.76133V1.63295C1.44012 1.63809 1.44012 1.56363 1.44525 1.56106C1.43241 1.5662 1.42471 1.67917 1.44525 1.57647C1.45552 1.52511 1.47093 1.47633 1.48633 1.42755C1.51457 1.32998 1.47349 1.45836 1.47349 1.45579C1.46836 1.44809 1.50687 1.38903 1.51201 1.37877C1.52485 1.35309 1.54025 1.32998 1.55566 1.30688C1.56079 1.29661 1.56849 1.28891 1.57363 1.27864C1.60444 1.23499 1.5993 1.24269 1.55309 1.30174C1.54795 1.28891 1.63011 1.21701 1.64295 1.20418C1.66349 1.18621 1.6866 1.16823 1.70457 1.14769C1.74822 1.09634 1.60187 1.21188 1.6943 1.15796C1.73282 1.13486 1.76876 1.10918 1.80984 1.08864C1.83552 1.0758 1.90998 1.06553 1.84065 1.07067C1.76363 1.07837 1.8689 1.06296 1.89201 1.05526C1.94079 1.03985 1.99471 1.03729 2.04349 1.02188C1.94079 1.05526 1.9716 1.02958 2.01268 1.02958C1.94849 1.02958 2.14876 1.02702 2.08457 1.02702H2.08971H2.36443H4.03846H6.85505H10.3906H14.2291H17.9186H21.0459H23.1846H23.7495H23.883H23.9087H23.9472C23.9652 1.02702 24.0037 1.03472 24.0191 1.03215C23.9575 1.05012 23.9292 1.01418 23.9857 1.02702C24.0448 1.03985 24.1089 1.0681 24.168 1.0758C24.2348 1.08607 24.0602 1.01675 24.1552 1.07067C24.1757 1.08094 24.1962 1.09121 24.2142 1.10148C24.2348 1.11432 24.3708 1.19647 24.3015 1.15539C24.2322 1.11175 24.3169 1.1708 24.3272 1.1785C24.3426 1.19391 24.3606 1.20931 24.376 1.22472C24.3914 1.24012 24.4068 1.2581 24.4222 1.2735C24.4966 1.35053 24.3862 1.20161 24.4145 1.26323C24.435 1.30688 24.471 1.34796 24.4941 1.39161C24.4915 1.38904 24.5249 1.4481 24.5249 1.45323C24.5326 1.44296 24.4864 1.34283 24.5172 1.44296C24.5326 1.49175 24.5454 1.5431 24.5557 1.59445C24.5762 1.69458 24.5506 1.56107 24.5506 1.56107C24.5557 1.56364 24.5531 1.6612 24.5531 1.66891C24.5583 1.9385 24.7868 2.19526 25.0667 2.18244C25.3414 2.1696 25.5853 1.9565 25.5802 1.66891C25.5674 0.74457 24.8202 0.00769969 23.8985 0H23.5724H21.7879H18.8609H15.2073H11.3252H7.62281H4.55974H2.59045H2.14883C1.5506 0 1.01397 0.272161 0.682742 0.775415C0.359233 1.2581 0.418286 1.84351 0.418286 2.39296V4.18769V4.54458C0.418286 4.82188 0.654498 5.05812 0.931818 5.05812H1.58141H3.3376H5.93338H9.11199H12.5679H16.0803H19.3436H22.1011H24.091C24.4042 5.05812 24.7175 5.06325 25.0307 5.05812H25.0718C25.3491 5.05812 25.5853 4.8219 25.5853 4.54458V2.02585V1.66896C25.5853 1.39936 25.3491 1.14261 25.0718 1.15542C24.7894 1.16826 24.5532 1.38137 24.5532 1.66896L24.553 1.66891Z" fill="#C3D600"/>
<path d="M23.3746 4.54444V5.6562V8.43429V12.0443V15.6517V18.4221C23.3746 18.7995 23.3644 19.1769 23.3746 19.5543C23.3772 19.6647 23.4054 19.4799 23.3798 19.5389C23.3695 19.562 23.3644 19.598 23.3592 19.6211C23.3438 19.7007 23.3541 19.58 23.3746 19.5928C23.3772 19.5928 23.3413 19.657 23.3438 19.6519C23.3336 19.6724 23.3207 19.6904 23.3105 19.7084C23.2591 19.8008 23.3695 19.6545 23.3207 19.6955C23.3053 19.7084 23.2899 19.7264 23.2745 19.7443C23.2617 19.7572 23.2514 19.7674 23.2386 19.7777C23.295 19.7366 23.3079 19.7264 23.2771 19.7469C23.2719 19.7495 23.1513 19.8291 23.1461 19.8214C23.1333 19.7983 23.2565 19.788 23.1744 19.806C23.1538 19.8111 23.1282 19.8162 23.1076 19.8239C22.9998 19.8573 23.1949 19.8239 23.123 19.8214C23.1461 19.8214 23.0023 19.8239 23.0691 19.8239H23.0665H22.9921H22.5274H20.5349H17.5078H13.9055H10.1928H6.82932H4.27462H2.99342H2.92666H2.89071C2.77774 19.8265 2.97031 19.8496 2.90612 19.8291C2.88558 19.8214 2.86247 19.8188 2.83936 19.8137C2.73409 19.7905 2.8599 19.8111 2.8522 19.8265C2.8522 19.8291 2.78801 19.7931 2.79315 19.7957C2.77261 19.7854 2.75463 19.7726 2.73666 19.7623C2.64679 19.7135 2.80085 19.8316 2.73666 19.7623C2.72382 19.7469 2.70585 19.7289 2.69044 19.7161C2.61342 19.6468 2.72126 19.788 2.69815 19.7289C2.69558 19.7238 2.61855 19.6031 2.62369 19.598C2.63396 19.5903 2.65964 19.7238 2.6391 19.6262C2.63396 19.6057 2.62882 19.58 2.62112 19.5595C2.58774 19.4516 2.62112 19.6468 2.62369 19.5749C2.62369 19.5954 2.62112 19.4593 2.62112 19.521C2.61855 19.4183 2.62112 19.3156 2.62112 19.2128V17.146V13.839V10.1263V6.84245V4.82179V4.54706L2.10759 5.0606H2.68784H4.27458H6.6136H9.47897H12.6062H15.7617H18.7041H21.2024H22.9919C23.2744 5.0606 23.5594 5.06573 23.8418 5.0606H23.8778C24.1473 5.0606 24.4041 4.82438 24.3913 4.54706C24.3785 4.26974 24.1653 4.03353 23.8778 4.03353H23.2975H21.7108H19.3717H16.5064H13.3791H10.2236H7.2812H4.78298H2.99341C2.71098 4.03353 2.42598 4.0284 2.14354 4.03353H2.10759C1.8303 4.03353 1.59406 4.26974 1.59406 4.54706V5.67934V8.49339V12.1496V15.7673V18.5068V19.2848C1.59406 19.4902 1.58636 19.6956 1.64797 19.8959C1.83027 20.4916 2.37461 20.851 2.98566 20.851H3.43241H5.42226H8.46223H12.0876H15.826H19.2177H21.7673H23.0177C23.6339 20.851 24.227 20.4582 24.363 19.8317C24.4041 19.6417 24.399 19.4568 24.399 19.2643V17.2539V13.9546V10.2035V6.87336V4.82702V4.54716C24.399 4.27757 24.1628 4.02081 23.8855 4.03363C23.6107 4.0439 23.3745 4.25701 23.3745 4.54458L23.3746 4.54444Z" fill="#C3D600"/>
<path d="M16.2142 9.23258H13.0767C11.9829 9.23258 10.8866 9.24542 9.79026 9.23258H9.78512C9.82107 9.23258 9.67985 9.23001 9.71323 9.23001C9.59256 9.23258 9.82877 9.25569 9.71067 9.23258C9.65418 9.21974 9.60026 9.20433 9.54634 9.18893C9.43594 9.16069 9.64648 9.24285 9.54378 9.1915C9.50526 9.17096 9.46418 9.15042 9.42824 9.12731C9.43337 9.12987 9.37175 9.09136 9.37175 9.09136C9.37175 9.09136 9.46162 9.16839 9.37175 9.08879C9.35635 9.07596 9.22797 8.96042 9.23568 8.94501C9.23824 8.93988 9.29986 9.04771 9.24851 8.95528C9.23568 8.93217 9.22027 8.90907 9.20487 8.88339C9.2023 8.87569 9.15608 8.79866 9.16122 8.79353C9.19203 8.86542 9.1946 8.87569 9.17662 8.82177C9.16892 8.80123 9.16378 8.77812 9.15608 8.75758C9.14838 8.72934 9.14324 8.7011 9.13554 8.67542C9.115 8.57015 9.13041 8.69083 9.13554 8.69083C9.1227 8.68826 9.13297 8.53164 9.13297 8.51367C9.13041 8.39556 9.10473 8.62664 9.13041 8.5111C9.13554 8.48799 9.13811 8.46745 9.14581 8.44434C9.15351 8.41096 9.16635 8.38015 9.17405 8.34678C9.19459 8.29542 9.18946 8.30313 9.15865 8.37502C9.16635 8.35448 9.17662 8.33394 9.18689 8.3134C9.18946 8.30826 9.26649 8.16705 9.27162 8.17218C9.27162 8.17218 9.1946 8.26205 9.27419 8.17218C9.2973 8.14651 9.3204 8.1234 9.34351 8.1003C9.34865 8.09516 9.41284 8.03097 9.41797 8.03611C9.42824 8.04124 9.32554 8.09773 9.39486 8.05665C9.42311 8.04124 9.45135 8.0207 9.47959 8.00529C9.50013 7.99502 9.51811 7.98475 9.53865 7.97448C9.59 7.95137 9.57973 7.95651 9.50784 7.98732C9.50527 7.97705 9.65162 7.94367 9.66959 7.94111C9.67986 7.93854 9.6927 7.93597 9.70297 7.9334C9.75945 7.92313 9.74918 7.9257 9.66959 7.93854C9.66959 7.9334 9.76716 7.9334 9.77486 7.9334H9.79283H9.93148H10.54H14.8714H16.1578H16.1937H16.2014H16.2374C16.2605 7.9334 16.2836 7.93597 16.3067 7.93854C16.2271 7.9257 16.2168 7.9257 16.2733 7.9334C16.2913 7.93854 16.471 7.97448 16.471 7.98732C16.471 7.99502 16.3709 7.93853 16.4402 7.97448C16.471 7.98989 16.4992 8.00529 16.5275 8.0207C16.5326 8.02326 16.6122 8.07205 16.6122 8.07461C16.6122 8.07461 16.5224 7.99759 16.6122 8.07718C16.6276 8.09002 16.756 8.20556 16.7483 8.22096C16.7355 8.20299 16.7201 8.18759 16.7072 8.16961C16.7201 8.18758 16.7329 8.20556 16.7432 8.2261C16.7611 8.25434 16.7765 8.28258 16.7919 8.31339C16.7971 8.32366 16.8022 8.33393 16.8073 8.3442C16.8253 8.38528 16.8253 8.38528 16.8073 8.3442C16.8022 8.33393 16.7996 8.32366 16.7945 8.31339C16.8022 8.33393 16.8099 8.35704 16.8151 8.37758C16.8253 8.41096 16.833 8.44434 16.8407 8.47772C16.8433 8.48799 16.8459 8.50082 16.8484 8.51109C16.8587 8.56758 16.8561 8.55731 16.8433 8.47772C16.8561 8.48028 16.8459 8.6369 16.8459 8.65487C16.8484 8.77298 16.8741 8.5419 16.8484 8.65744C16.8407 8.69082 16.8356 8.7242 16.8253 8.75758C16.8228 8.76528 16.7971 8.85514 16.7945 8.85514C16.7919 8.85514 16.8536 8.73704 16.8074 8.82433C16.7996 8.83974 16.7175 9.00149 16.7072 8.99636C16.7072 8.99636 16.7842 8.90649 16.7046 8.99636C16.6815 9.02203 16.6584 9.04514 16.6353 9.06825C16.6302 9.07338 16.566 9.13757 16.5609 9.13244C16.5788 9.1196 16.5942 9.10419 16.6122 9.09136C16.5942 9.10419 16.5763 9.11703 16.5557 9.1273C16.5429 9.135 16.4171 9.2146 16.4094 9.20433C16.4299 9.19662 16.4505 9.18635 16.471 9.17865C16.4505 9.18635 16.4274 9.19406 16.4068 9.19919C16.3734 9.20946 16.3401 9.21716 16.3067 9.22487C16.2964 9.22743 16.2836 9.23 16.2733 9.23257C16.2168 9.24284 16.2271 9.24027 16.3067 9.22743C16.317 9.23257 16.222 9.23257 16.2142 9.23257C15.9447 9.2377 15.6879 9.46622 15.7007 9.7461C15.7136 10.0208 15.9267 10.2648 16.2142 10.2596C16.9511 10.2494 17.6033 9.76925 17.819 9.06318C18.0321 8.36992 17.7445 7.63047 17.1694 7.21196C16.6944 6.86534 16.1321 6.90899 15.5801 6.90899H11.092C10.6632 6.90899 10.2344 6.90643 9.80308 6.90899C9.23053 6.91156 8.717 7.18629 8.39094 7.65615C8.00838 8.20559 8.01608 8.99899 8.41148 9.54074C8.74269 9.9952 9.24337 10.2571 9.80822 10.2596H10.237H12.2346H16.1346H16.2091C16.4787 10.2596 16.7354 10.0234 16.7226 9.7461C16.7149 9.4688 16.5018 9.23256 16.2143 9.23256L16.2142 9.23258Z" fill="#C3D600"/>
</svg>
