<svg width="30" height="25" viewBox="0 0 30 25" fill="none" xmlns="http://www.w3.org/2000/svg">
<path d="M28.7697 1.98906V4.99098V5.41633C28.9747 5.2113 29.1767 5.00934 29.3817 4.80429H28.6075H26.5144H23.4207H19.6323H15.5135H11.3273H7.4379H4.15139H1.77981C1.40648 4.80429 1.03314 4.79511 0.659802 4.80429H0.610841L1.22289 5.41633V2.09921V1.94621C1.22289 1.95233 1.22289 1.86358 1.22901 1.86053C1.21371 1.86665 1.20453 2.00129 1.22901 1.87889C1.24125 1.81768 1.25961 1.75955 1.27797 1.7014C1.31163 1.58512 1.26267 1.73812 1.26267 1.73506C1.25655 1.72588 1.30245 1.6555 1.30857 1.64326C1.32387 1.61266 1.34223 1.58512 1.36059 1.55758C1.36671 1.54534 1.37589 1.53616 1.38201 1.52392C1.41873 1.4719 1.41261 1.48108 1.35753 1.55146C1.35141 1.53616 1.44933 1.45048 1.46463 1.43518C1.48912 1.41376 1.51666 1.39234 1.53808 1.36786C1.5901 1.30666 1.41567 1.44436 1.52584 1.3801C1.57174 1.35256 1.61458 1.32196 1.66354 1.29748C1.69414 1.28218 1.78288 1.26994 1.70026 1.27606C1.60846 1.28524 1.73392 1.26688 1.76146 1.25769C1.81961 1.23933 1.88387 1.23627 1.94201 1.21791C1.81961 1.25769 1.85633 1.22709 1.90529 1.22709C1.82879 1.22709 2.06747 1.22403 1.99097 1.22403H1.99709H2.32452H4.31968H7.67659H11.8903H16.4652H20.8625H24.5897H27.1388H27.812H27.9711H28.0017H28.0476C28.069 1.22403 28.1149 1.23321 28.1333 1.23015C28.0598 1.25157 28.0262 1.20873 28.0935 1.22403C28.1639 1.23933 28.2404 1.27299 28.3108 1.28218C28.3903 1.29442 28.1822 1.2118 28.2955 1.27606C28.3199 1.2883 28.3444 1.30054 28.3658 1.31278C28.3903 1.32808 28.5525 1.426 28.4699 1.37704C28.3873 1.32502 28.4882 1.3954 28.5005 1.40458C28.5188 1.42294 28.5403 1.4413 28.5586 1.45966C28.577 1.47802 28.5953 1.49944 28.6137 1.5178C28.7024 1.60961 28.5709 1.43212 28.6045 1.50556C28.629 1.55759 28.6718 1.60655 28.6994 1.65857C28.6963 1.65551 28.7361 1.72589 28.7361 1.73201C28.7453 1.71977 28.6902 1.60043 28.7269 1.71977C28.7453 1.77792 28.7606 1.83911 28.7728 1.90032C28.7973 2.01966 28.7667 1.86054 28.7667 1.86054C28.7728 1.8636 28.7698 1.97988 28.7698 1.98906C28.7759 2.31037 29.0482 2.61638 29.3818 2.60111C29.7092 2.58581 30 2.33182 29.9939 1.98906C29.9786 0.887404 29.088 0.00917676 27.9895 0H27.6009H25.4741H21.9856H17.6311H13.0043H8.59163H4.94096H2.59389H2.06756C1.35457 0 0.71499 0.32437 0.320222 0.924167C-0.0653474 1.49945 0.00503401 2.19716 0.00503401 2.85201V4.99104V5.41639C0.00503401 5.74688 0.286559 6.02844 0.617079 6.02844H1.39128H3.48437H6.57811H10.3665H14.4853H18.6715H22.5609H25.8474H28.219C28.5923 6.02844 28.9657 6.03456 29.339 6.02844H29.388C29.7184 6.02844 30 5.74691 30 5.41639V2.41447V1.98912C30 1.66781 29.7185 1.3618 29.388 1.37707C29.0513 1.39237 28.7698 1.64636 28.7698 1.98912L28.7697 1.98906Z" fill="#C3D600"/>
<path d="M27.3623 5.41657V6.7416V10.0526V14.3551V18.6545V21.9564C27.3623 22.4062 27.35 22.856 27.3623 23.3059C27.3653 23.4375 27.399 23.2171 27.3684 23.2875C27.3562 23.3151 27.35 23.3579 27.3439 23.3854C27.3256 23.4803 27.3378 23.3365 27.3623 23.3518C27.3653 23.3518 27.3225 23.4283 27.3256 23.4222C27.3133 23.4466 27.298 23.4681 27.2858 23.4895C27.2246 23.5996 27.3562 23.4252 27.298 23.4742C27.2797 23.4895 27.2613 23.5109 27.2429 23.5323C27.2276 23.5476 27.2154 23.5599 27.2001 23.5721C27.2674 23.5231 27.2827 23.5109 27.246 23.5354C27.2399 23.5384 27.0961 23.6333 27.0899 23.6241C27.0746 23.5966 27.2215 23.5843 27.1236 23.6058C27.0991 23.6119 27.0685 23.618 27.044 23.6272C26.9155 23.667 27.1481 23.6272 27.0624 23.6241C27.0899 23.6241 26.9186 23.6272 26.9981 23.6272H26.9951H26.9063H26.3525H23.9778H20.3699H16.0766H11.6517H7.64301H4.59822H3.07125H2.99168H2.94884C2.8142 23.6302 3.0437 23.6578 2.9672 23.6333C2.94272 23.6241 2.91518 23.6211 2.88764 23.6149C2.76217 23.5874 2.91212 23.6119 2.90294 23.6302C2.90294 23.6333 2.82644 23.5905 2.83256 23.5935C2.80808 23.5813 2.78666 23.566 2.76524 23.5537C2.65813 23.4956 2.84174 23.6364 2.76524 23.5537C2.74994 23.5354 2.72852 23.514 2.71015 23.4987C2.61835 23.416 2.74688 23.5843 2.71933 23.514C2.71627 23.5078 2.62447 23.364 2.63059 23.3579C2.64283 23.3487 2.67343 23.5078 2.64895 23.3916C2.64283 23.3671 2.63671 23.3365 2.62753 23.312C2.58775 23.1835 2.62753 23.416 2.63059 23.3304C2.63059 23.3548 2.62753 23.1927 2.62753 23.2661C2.62447 23.1437 2.62753 23.0213 2.62753 22.8989V20.4355V16.4941V12.0692V8.15541V5.74713V5.4197L2.01549 6.03174H2.70705H4.59819H7.38591H10.801H14.5281H18.289H21.7958H24.7733H26.9062C27.2428 6.03174 27.5824 6.03786 27.9191 6.03174H27.9619C28.2832 6.03174 28.5892 5.75022 28.574 5.4197C28.5587 5.08918 28.3047 4.80765 27.9619 4.80765H27.2704H25.3792H22.5915H19.1765H15.4493H11.6884H8.18158H5.20411H3.07124C2.73463 4.80765 2.39496 4.80153 2.05833 4.80765H2.01549C1.685 4.80765 1.40344 5.08918 1.40344 5.4197V6.76918V10.1231V14.4806V18.7923V22.0574V22.9846C1.40344 23.2294 1.39426 23.4742 1.4677 23.713C1.68497 24.4229 2.33373 24.8513 3.062 24.8513H3.59445H5.96603H9.58917H13.91H18.3655H22.4079H25.4466H26.9368C27.6712 24.8513 28.3781 24.3831 28.5403 23.6365C28.5893 23.41 28.5831 23.1897 28.5831 22.9602V20.5641V16.632V12.1612V8.19225V5.75336V5.41981C28.5831 5.09851 28.3016 4.79249 27.9711 4.80777C27.6437 4.82001 27.3621 5.074 27.3621 5.41674L27.3623 5.41657Z" fill="#C3D600"/>
<path d="M18.8308 11.0038H15.0914C13.7878 11.0038 12.4812 11.0191 11.1745 11.0038H11.1684C11.2112 11.0038 11.0429 11.0007 11.0827 11.0007C10.9389 11.0038 11.2204 11.0313 11.0796 11.0038C11.0123 10.9885 10.948 10.9701 10.8838 10.9517C10.7522 10.9181 11.0031 11.016 10.8807 10.9548C10.8348 10.9303 10.7858 10.9058 10.743 10.8783C10.7491 10.8814 10.6757 10.8355 10.6757 10.8355C10.6757 10.8355 10.7828 10.9273 10.6757 10.8324C10.6573 10.8171 10.5043 10.6794 10.5135 10.661C10.5166 10.6549 10.59 10.7834 10.5288 10.6733C10.5135 10.6457 10.4951 10.6182 10.4768 10.5876C10.4737 10.5784 10.4186 10.4866 10.4248 10.4805C10.4615 10.5662 10.4645 10.5784 10.4431 10.5141C10.4339 10.4897 10.4278 10.4621 10.4186 10.4376C10.4095 10.404 10.4033 10.3703 10.3942 10.3397C10.3697 10.2143 10.388 10.3581 10.3942 10.3581C10.3789 10.355 10.3911 10.1684 10.3911 10.1469C10.388 10.0062 10.3574 10.2816 10.388 10.1439C10.3942 10.1163 10.3972 10.0919 10.4064 10.0643C10.4156 10.0245 10.4309 9.98781 10.4401 9.94804C10.4645 9.88683 10.4584 9.89601 10.4217 9.9817C10.4309 9.95722 10.4431 9.93273 10.4554 9.90825C10.4584 9.90213 10.5502 9.73383 10.5563 9.73995C10.5563 9.73995 10.4645 9.84706 10.5594 9.73995C10.5869 9.70935 10.6145 9.68181 10.642 9.65427C10.6482 9.64815 10.7247 9.57165 10.7308 9.57777C10.743 9.58389 10.6206 9.65121 10.7032 9.60225C10.7369 9.58389 10.7706 9.55941 10.8042 9.54104C10.8287 9.5288 10.8501 9.51656 10.8746 9.50432C10.9358 9.47678 10.9236 9.4829 10.8379 9.51962C10.8348 9.50738 11.0092 9.4676 11.0307 9.46454C11.0429 9.46148 11.0582 9.45842 11.0704 9.45536C11.1378 9.44312 11.1255 9.44618 11.0307 9.46148C11.0307 9.45536 11.1469 9.45536 11.1561 9.45536H11.1775H11.3428H12.068H17.2304H18.7635H18.8063H18.8155H18.8583C18.8859 9.45536 18.9134 9.45842 18.941 9.46148C18.8461 9.44618 18.8339 9.44618 18.9012 9.45536C18.9226 9.46148 19.1368 9.50432 19.1368 9.51962C19.1368 9.5288 19.0175 9.46148 19.1001 9.50432C19.1368 9.52268 19.1705 9.54104 19.2041 9.5594C19.2103 9.56246 19.3051 9.62061 19.3051 9.62366C19.3051 9.62366 19.198 9.53186 19.3051 9.62672C19.3235 9.64202 19.4765 9.77973 19.4673 9.79809C19.452 9.77667 19.4336 9.75831 19.4183 9.73688C19.4336 9.7583 19.4489 9.77972 19.4612 9.8042C19.4826 9.83786 19.501 9.87152 19.5193 9.90825C19.5254 9.92049 19.5316 9.93273 19.5377 9.94497C19.5591 9.99393 19.5591 9.99393 19.5377 9.94497C19.5316 9.93273 19.5285 9.92049 19.5224 9.90825C19.5316 9.93273 19.5407 9.96027 19.5469 9.98475C19.5591 10.0245 19.5683 10.0643 19.5775 10.1041C19.5805 10.1163 19.5836 10.1316 19.5866 10.1439C19.5989 10.2112 19.5958 10.199 19.5805 10.1041C19.5958 10.1072 19.5836 10.2938 19.5836 10.3152C19.5866 10.456 19.6173 10.1806 19.5866 10.3183C19.5775 10.3581 19.5713 10.3979 19.5591 10.4376C19.556 10.4468 19.5254 10.5539 19.5224 10.5539C19.5193 10.5539 19.5928 10.4132 19.5377 10.5172C19.5285 10.5356 19.4306 10.7283 19.4183 10.7222C19.4183 10.7222 19.5101 10.6151 19.4153 10.7222C19.3877 10.7528 19.3602 10.7804 19.3327 10.8079C19.3265 10.814 19.25 10.8905 19.2439 10.8844C19.2653 10.8691 19.2837 10.8508 19.3051 10.8354C19.2837 10.8508 19.2623 10.8661 19.2378 10.8783C19.2225 10.8875 19.0726 10.9823 19.0634 10.9701C19.0879 10.9609 19.1123 10.9487 19.1368 10.9395C19.1123 10.9487 19.0848 10.9579 19.0603 10.964C19.0205 10.9762 18.9808 10.9854 18.941 10.9946C18.9287 10.9976 18.9134 11.0007 18.9012 11.0038C18.8339 11.016 18.8461 11.0129 18.941 10.9976C18.9532 11.0038 18.84 11.0038 18.8308 11.0038C18.5095 11.0099 18.2035 11.2822 18.2188 11.6158C18.2341 11.9432 18.4881 12.2339 18.8308 12.2278C19.709 12.2156 20.4863 11.6434 20.7434 10.8019C20.9974 9.97562 20.6546 9.09431 19.9692 8.59552C19.4031 8.18241 18.7329 8.23444 18.075 8.23444H12.7259C12.2149 8.23444 11.7038 8.23138 11.1898 8.23444C10.5074 8.2375 9.89533 8.56492 9.50672 9.12492C9.05077 9.77977 9.05994 10.7254 9.5312 11.371C9.92595 11.9127 10.5227 12.2248 11.1959 12.2278H11.7069H14.0877H18.7359H18.8247C19.146 12.2278 19.452 11.9463 19.4367 11.6158C19.4275 11.2853 19.1735 11.0037 18.8308 11.0037L18.8308 11.0038Z" fill="#C3D600"/>
</svg>
