<svg width="32" height="32" viewBox="0 0 32 32" fill="none" xmlns="http://www.w3.org/2000/svg">
<path d="M16.5151 5L2.91406 26.4354H29.8902L16.5151 5ZM16.5151 20.456C16.638 20.9556 16.7966 21.4788 16.9988 21.9981C17.4348 23.1231 18.0017 24.0555 18.6875 24.7754C18.961 25.0625 19.2544 25.3143 19.5636 25.5306H13.4627C13.7719 25.3143 14.0653 25.0625 14.3388 24.7754C15.0246 24.0594 15.5915 23.1231 16.0275 21.9981C16.2297 21.4788 16.3883 20.9556 16.5151 20.456ZM17.8471 21.6755C17.0106 19.5119 16.967 17.3207 16.967 16.9038V7.44684L28.253 25.5306H21.8231C20.0353 25.1727 18.6994 23.8745 17.8471 21.6755ZM16.0592 7.42324V16.9038C16.0592 17.3207 16.0156 19.5119 15.1792 21.6755C14.3269 23.8745 12.991 25.1727 11.2031 25.5306H4.56712L16.0592 7.42324Z" fill="#C3D600"/>
<path d="M5.24959 15.2196L5.75304 14.7751L3.71546 12.4895V10.916L5.24959 12.6351L5.75304 12.1905L3.71546 9.90499V9.84992H3.66392L3.3785 9.52734L3.08912 9.84992H3.04155V9.90499L1 12.1905L1.50741 12.6351L3.04155 10.916V12.4895L1 14.7751L1.50741 15.2196L3.04155 13.5005V15.2511L1 17.5406L1.50741 17.9811L3.04155 16.2621V19.8497H3.71546V16.2621L5.24959 17.9811L5.75304 17.5406L3.71546 15.2511V13.5005L5.24959 15.2196Z" fill="#C3D600"/>
<path d="M30.4078 15.2196L30.9112 14.7751L28.8737 12.4895V10.916L30.4078 12.6351L30.9112 12.1905L28.8737 9.90499V9.84992H28.8221L28.5367 9.52734L28.2473 9.84992H28.1997V9.90499L26.1582 12.1905L26.6656 12.6351L28.1997 10.916V12.4895L26.1582 14.7751L26.6656 15.2196L28.1997 13.5005V15.2511L26.1582 17.5406L26.6656 17.9811L28.1997 16.2621V19.8497H28.8737V16.2621L30.4078 17.9811L30.9112 17.5406L28.8737 15.2511V13.5005L30.4078 15.2196Z" fill="#C3D600"/>
</svg>
