<svg width="17" height="18" viewBox="0 0 17 18" fill="none" xmlns="http://www.w3.org/2000/svg">
<mask id="path-1-inside-1_7_2512" fill="white">
<path d="M14.0937 16.5307C14.5104 15.5705 16.0833 14.0866 15.1364 13.2645C14.5727 12.7765 12.4362 10.3815 11.9615 10.8471C11.0213 11.7673 10.1011 12.146 10.0968 12.146C9.95861 12.2039 9.80941 12.1883 9.68679 12.1193C8.66185 11.52 5.80343 8.11571 5.29335 7.01049C5.21984 6.84778 5.24657 6.66517 5.34681 6.53152C5.46493 6.34876 5.97279 5.61583 6.88863 4.93189C7.42107 4.53313 5.38039 2.05557 4.98378 1.42506C4.31535 0.36237 2.60882 1.69237 1.59507 1.9575C0.933328 2.12907 0.817554 2.81303 1.06931 3.78C2.08303 7.65218 8.5397 15.1803 12.211 16.7733C13.1289 17.1699 13.8218 17.1587 14.0937 16.5304L14.0937 16.5307ZM14.9515 16.9028C14.4167 18.1349 13.2827 18.2552 11.8413 17.6313C7.90224 15.9248 1.25173 8.16693 0.164415 4.01658C-0.232192 2.49716 0.0596693 1.39202 1.3586 1.05341C2.88924 0.652459 4.54683 -1.02519 5.77431 0.924265C6.50504 2.08717 8.91794 4.58029 7.45195 5.67855C6.84603 6.13078 6.4561 6.58755 6.26446 6.84599C6.98417 8.06691 8.87784 10.2748 9.97391 11.1726C10.2569 11.0211 10.7693 10.707 11.3084 10.1767C12.6162 8.89571 14.7126 11.6606 15.7508 12.5607C17.4907 14.069 15.5814 15.4526 14.9509 16.9028L14.9515 16.9028Z"/>
</mask>
<path d="M14.0937 16.5307C14.5104 15.5705 16.0833 14.0866 15.1364 13.2645C14.5727 12.7765 12.4362 10.3815 11.9615 10.8471C11.0213 11.7673 10.1011 12.146 10.0968 12.146C9.95861 12.2039 9.80941 12.1883 9.68679 12.1193C8.66185 11.52 5.80343 8.11571 5.29335 7.01049C5.21984 6.84778 5.24657 6.66517 5.34681 6.53152C5.46493 6.34876 5.97279 5.61583 6.88863 4.93189C7.42107 4.53313 5.38039 2.05557 4.98378 1.42506C4.31535 0.36237 2.60882 1.69237 1.59507 1.9575C0.933328 2.12907 0.817554 2.81303 1.06931 3.78C2.08303 7.65218 8.5397 15.1803 12.211 16.7733C13.1289 17.1699 13.8218 17.1587 14.0937 16.5304L14.0937 16.5307ZM14.9515 16.9028C14.4167 18.1349 13.2827 18.2552 11.8413 17.6313C7.90224 15.9248 1.25173 8.16693 0.164415 4.01658C-0.232192 2.49716 0.0596693 1.39202 1.3586 1.05341C2.88924 0.652459 4.54683 -1.02519 5.77431 0.924265C6.50504 2.08717 8.91794 4.58029 7.45195 5.67855C6.84603 6.13078 6.4561 6.58755 6.26446 6.84599C6.98417 8.06691 8.87784 10.2748 9.97391 11.1726C10.2569 11.0211 10.7693 10.707 11.3084 10.1767C12.6162 8.89571 14.7126 11.6606 15.7508 12.5607C17.4907 14.069 15.5814 15.4526 14.9509 16.9028L14.9515 16.9028Z" fill="white" stroke="white" stroke-width="2" mask="url(#path-1-inside-1_7_2512)"/>
</svg>
