<svg width="29" height="32" viewBox="0 0 29 32" fill="none" xmlns="http://www.w3.org/2000/svg">
<path d="M28.9747 16.4833L28.0646 15.6348L27.5185 16.0254L26.9344 15.7944L24.5639 17.042L24.0601 17.3066L20.1911 19.3439L17.2407 20.894L17.2238 20.9024L13.8543 23.8722L12.4023 29.0306L16.3264 32.7062L16.4026 32.7776L21.4399 31.0805L21.4864 31.0637L24.2676 27.5772L28.8308 17.7099L28.8604 17.6427L28.6022 17.0546L28.9747 16.4833ZM16.61 31.8534L16.1274 31.404L20.0218 29.6355L19.6874 28.9004L15.4882 30.8033L14.4977 29.8749L16.1401 25.5987L15.3782 25.313L13.8543 29.2742L13.3209 28.7744L14.5781 24.3133L17.6682 21.5787L26.9894 16.6807L27.6371 16.9328L27.7852 16.8277L27.6878 16.9748L27.9757 17.6259L23.5903 27.1277L20.9996 30.3748L16.61 31.8534Z" fill="#C3D600"/>
<path d="M9.86721 12.4416L7.86499 10.5765L4.50395 7.44285L2.24774 5.34253L1.65512 5.40974L1.25298 4.91406L0.190487 5.47275L0.385207 6.08604L0 6.55651L1.70168 16.8145L3.3695 20.7085L7.60677 23.5481L12.2335 21.1033L12.2081 16.0038L9.86721 12.4416ZM1.26991 6.24987L1.23181 6.12805L1.31648 6.22886L1.9726 6.15745L9.27882 12.9667L11.4207 16.239L11.4419 20.6371L10.8408 20.9563L10.4471 16.9489L9.65979 17.0245L10.0873 21.3554L8.95288 21.9561L5.58338 19.1626L5.07965 19.7633L8.20363 22.3509L7.6618 22.6366L4.01292 20.1918L2.4594 16.5708L0.838142 6.77495L1.26991 6.24987Z" fill="#C3D600"/>
<path d="M18.8153 17.361L22.625 14.2861L23.878 10.4425L23.8823 10.4215L24.623 0.470224L24.2124 0.0501599L24.3479 -0.554732L23.2812 -1L22.9425 -0.491723L22.3711 -0.504325L20.7413 1.31455L20.3942 1.69681L17.7359 4.65826L15.7125 6.91401L15.6998 6.93081L13.7695 10.535L14.1844 15.4161L18.8153 17.361ZM23.8357 0.755867L23.133 10.2451L21.9647 13.8325L18.6968 16.4747L18.1677 16.252L20.9276 13.5174L20.3858 12.9755L17.3972 15.9328L16.2713 15.4581L16.3051 11.2785L15.5347 11.2743L15.5008 15.1347L14.9125 14.8868L14.5526 10.6904L16.3136 7.38448L22.7055 0.264393L23.3404 0.276995L23.3912 0.197182L23.3701 0.285396L23.8357 0.755867Z" fill="#C3D600"/>
</svg>
