<svg width="30" height="25" viewBox="0 0 30 25" fill="none" xmlns="http://www.w3.org/2000/svg">
<path d="M0.645524 24.9997H13.434C13.5596 24.9997 13.6802 24.949 13.769 24.8589C13.8578 24.7688 13.9077 24.6464 13.9077 24.5189V13.4612C13.9077 13.3337 13.8578 13.2114 13.769 13.1213C13.6802 13.0311 13.5596 12.9805 13.434 12.9805H0.645524C0.383961 12.9805 0.171875 13.1957 0.171875 13.4612V24.5189C0.171875 24.6464 0.221778 24.7688 0.310586 24.8589C0.399395 24.949 0.519923 24.9997 0.645524 24.9997ZM5.85566 13.942H8.2239V17.3748L7.40917 16.3459C7.3193 16.2321 7.18334 16.166 7.03977 16.166C6.8962 16.166 6.76023 16.2321 6.67037 16.3459L5.85564 17.3748L5.85566 13.942ZM1.11917 13.942H4.90836V18.7497C4.90921 18.9534 5.03629 19.1343 5.22575 19.2017C5.41542 19.2687 5.62602 19.2071 5.75141 19.0478L7.03979 17.4085L8.32817 19.0478C8.4174 19.1626 8.55336 19.2298 8.69757 19.2305C8.75086 19.2298 8.80372 19.2202 8.85383 19.2017C9.04329 19.1343 9.17037 18.9534 9.17122 18.7497V13.942H12.9604V24.0382H1.11919L1.11917 13.942Z" fill="#C3D600"/>
<path d="M21.9624 11.5385V0.480769C21.9624 0.35328 21.9125 0.23094 21.8237 0.140797C21.7348 0.0506538 21.6143 0 21.4887 0H8.70021C8.43865 0 8.22656 0.215275 8.22656 0.480769V11.5385C8.22656 11.6659 8.27647 11.7883 8.36527 11.8784C8.45408 11.9686 8.57461 12.0192 8.70021 12.0192H21.4887C21.6143 12.0192 21.7349 11.9686 21.8237 11.8784C21.9125 11.7883 21.9624 11.6659 21.9624 11.5385ZM16.2786 0.961538V3.91357L15.4639 2.88462C15.374 2.77086 15.238 2.70476 15.0945 2.70476C14.9509 2.70476 14.8149 2.77086 14.7251 2.88462L13.9103 3.91357V0.961538H16.2786ZM21.0151 11.0577H9.17386V0.961538H12.963V5.28846C12.9639 5.49214 13.091 5.67308 13.2804 5.74047C13.4701 5.80744 13.6807 5.74584 13.8061 5.58658L15.0945 3.94724L16.3829 5.58658C16.4721 5.70141 16.6081 5.76859 16.7523 5.76923C16.8055 5.76859 16.8584 5.75893 16.9085 5.74047C17.098 5.67307 17.2251 5.49215 17.2259 5.28846V0.961536H21.0151L21.0151 11.0577Z" fill="#C3D600"/>
<path d="M29.0903 12.9805H16.3018C16.0402 12.9805 15.8281 13.1957 15.8281 13.4612V24.5189C15.8281 24.6464 15.878 24.7688 15.9668 24.8589C16.0556 24.949 16.1762 24.9997 16.3018 24.9997H29.0903C29.2159 24.9997 29.3364 24.949 29.4252 24.8589C29.514 24.7688 29.5639 24.6464 29.5639 24.5189V13.4612C29.5639 13.3337 29.514 13.2114 29.4252 13.1213C29.3364 13.0311 29.2159 12.9805 29.0903 12.9805ZM21.4881 13.942H23.8563V17.3748L23.0416 16.3459C22.9517 16.2321 22.8158 16.166 22.6722 16.166C22.5286 16.166 22.3927 16.2321 22.3028 16.3459L21.4881 17.3748L21.4881 13.942ZM28.5928 24.0382H16.7516V13.942H20.5408V18.7497C20.5416 18.9534 20.6687 19.1343 20.8582 19.2017C21.0479 19.2687 21.2585 19.2071 21.3838 19.0478L22.6722 17.4085L23.9606 19.0478C24.0498 19.1626 24.1858 19.2298 24.33 19.2305C24.3833 19.2298 24.4361 19.2202 24.4863 19.2017C24.6757 19.1343 24.8028 18.9534 24.8037 18.7497V13.942H28.5928L28.5928 24.0382Z" fill="#C3D600"/>
</svg>
