<svg width="20" height="30" viewBox="0 0 20 30" fill="none" xmlns="http://www.w3.org/2000/svg">
<path d="M9.84657 10.1234C9.68412 10.1234 9.51411 10.1122 9.33655 10.0897L9.15143 10.0297C8.7283 9.86471 7.78381 9.49356 7.71581 7.84023C6.79776 7.83273 5.93639 7.754 5.27524 6.51682L5.23369 6.4006L5.20346 6.26188C5.0939 5.74827 4.88612 4.78101 6.13284 4.0462C5.50192 3.75003 5.0259 3.26265 5.11657 2.03297C5.24124 0.375889 7.04711 0.000984473 7.37579 0.000984473C7.45135 0.000984473 9.89569 0.00848244 9.89569 0.00848244C9.87302 0.00848244 10.7155 -0.0964906 11.3464 0.432124C11.7544 0.773287 11.9698 1.27941 11.9925 1.93924V8.03143C11.9925 8.05018 12.034 8.98369 11.3578 9.60228C10.98 9.95094 10.4737 10.1234 9.84657 10.1234ZM9.499 9.27986C10.0808 9.3436 10.5153 9.25362 10.7911 9.00618C11.184 8.65377 11.1651 8.06142 11.1651 8.05393V1.95798C11.15 1.55684 11.0329 1.25316 10.8175 1.06946C10.4737 0.777036 9.95614 0.833272 9.94858 0.833272C9.89569 0.84077 7.45513 0.829523 7.37579 0.829523C7.38335 0.829523 6.03084 0.975736 5.94772 2.09295C5.87972 3.06395 6.18195 3.21391 6.87332 3.4501L8.56962 4.0312L7.38334 4.40611C5.77016 4.91223 5.89861 5.51208 6.02328 6.08943L6.04217 6.18315C6.50308 7.01169 6.97533 7.01544 7.90093 7.01919L8.5734 7.02669L8.55451 7.45033C8.49406 8.88247 9.07965 9.11116 9.465 9.26487L9.499 9.27986Z" fill="#C3D600"/>
<path d="M19.5115 29.2218H0.20239L0.0172701 13.8695C0.00593623 13.7795 -0.311412 10.6715 2.34827 7.33489C3.46277 5.97024 4.93239 4.93926 6.59469 4.35815L6.7307 4.30942L8.56679 4.93926L7.38051 5.31416C5.76732 5.82028 5.89577 6.42013 6.02044 6.99748L6.03933 7.09121C6.50025 7.91974 6.97249 7.92349 7.89431 7.92724L8.56679 7.93474L8.5479 8.35838C8.48745 9.79052 9.07304 10.0192 9.45839 10.1729L9.49994 10.1879C10.0817 10.2516 10.5162 10.1617 10.792 9.91424C11.1849 9.56183 11.166 8.96948 11.166 8.96198V3.86328L11.6534 3.94951C13.7388 4.30942 15.4805 5.29542 17.1239 7.05372C19.1602 9.8655 19.5153 11.1439 19.5153 13.3634V29.2218H19.5115ZM1.02221 28.397H18.6804V13.3596C18.6804 11.2676 18.3781 10.1954 16.4778 7.57108C15.1027 6.10521 13.6935 5.24668 11.9934 4.85303V8.93949C11.9934 8.95823 12.035 9.89174 11.3587 10.5103C10.8865 10.9452 10.2064 11.1064 9.34127 10.994L9.15615 10.934C8.73302 10.769 7.78853 10.3979 7.72053 8.74453C6.80248 8.73704 5.94111 8.65831 5.27996 7.42112L5.23841 7.3049L5.20818 7.16619C5.14396 6.85877 5.04195 6.39014 5.23841 5.90276C4.38837 6.41638 3.629 7.07246 2.99808 7.84851C0.565074 10.9002 0.844642 13.7907 0.84842 13.817L1.02221 28.397Z" fill="#C3D600"/>
<path d="M4.41719 15.1135C3.70693 15.1135 3.12891 14.5399 3.12891 13.8351C3.12891 13.1302 3.70693 12.5566 4.41719 12.5566C5.12744 12.5566 5.70547 13.1302 5.70547 13.8351C5.70547 14.5399 5.12744 15.1135 4.41719 15.1135ZM4.41719 13.3777C4.16407 13.3777 3.96006 13.5801 3.96006 13.8313C3.96006 14.0825 4.16407 14.2849 4.41719 14.2849C4.67031 14.2849 4.87432 14.0825 4.87432 13.8313C4.87432 13.5839 4.67031 13.3777 4.41719 13.3777Z" fill="#C3D600"/>
<path d="M14.177 15.174C13.4667 15.174 12.8887 14.6004 12.8887 13.8956C12.8887 13.1908 13.4667 12.6172 14.177 12.6172C14.8872 12.6172 15.4652 13.1908 15.4652 13.8956C15.4652 14.6004 14.891 15.174 14.177 15.174ZM14.177 13.442C13.9238 13.442 13.7198 13.6444 13.7198 13.8956C13.7198 14.1468 13.9238 14.3492 14.177 14.3492C14.4301 14.3492 14.6341 14.1468 14.6341 13.8956C14.6379 13.6444 14.4301 13.442 14.177 13.442Z" fill="#C3D600"/>
<path d="M9.84439 21.5055L8.23498 19.8859C7.09026 18.2963 7.0487 16.7555 7.0487 16.6917L7.04492 16.5155L9.85572 13.7188L12.693 16.5343L12.659 16.7442C12.4474 18.0451 12.0621 19.0611 11.4878 19.8484L9.84439 21.5055ZM7.89119 16.8417C7.93274 17.2428 8.11786 18.3076 8.8659 19.3573L9.84439 20.3358L10.8531 19.3236C11.2838 18.7275 11.6049 17.8914 11.8014 16.823L9.85195 14.8885L7.89119 16.8417Z" fill="#C3D600"/>
<path d="M7.90231 25.7129C7.77008 25.7129 7.65297 25.7054 7.56229 25.7017L7.44518 25.6792C6.2589 25.263 5.97177 24.1758 5.98689 23.6584L5.99066 23.5647L8.41611 18.8896L9.84796 20.333L11.2836 18.8934L13.7053 23.5685L13.709 23.6622C13.7241 24.1795 13.4332 25.2668 12.2545 25.6829L12.1374 25.7054C11.6349 25.7317 10.4864 25.7916 9.8404 24.8394C9.31149 25.6079 8.469 25.7129 7.90231 25.7129ZM7.6643 24.8844C8.68057 24.9219 9.2586 24.7269 9.43238 23.6134L9.42861 21.0903L8.6239 20.2805L6.81804 23.7634C6.8407 23.9846 6.9616 24.6069 7.6643 24.8844ZM10.2598 23.6734C10.4298 24.7194 11.0342 24.9219 12.0241 24.8844C12.723 24.6107 12.8477 23.9921 12.8665 23.7634L11.0607 20.2805L10.256 21.0903L10.2598 23.6734C10.2598 23.6697 10.2598 23.6697 10.2598 23.6734Z" fill="#C3D600"/>
</svg>
