<svg width="32" height="32" viewBox="0 0 32 32" fill="none" xmlns="http://www.w3.org/2000/svg">
<path d="M31.3483 5.73329C31.2652 5.69955 29.3045 4.93099 26.573 4.59358C24.9636 4.39488 23.426 4.39113 21.9941 4.58233C21.095 4.7023 20.2374 4.89725 19.4289 5.17093C18.8244 4.63857 16.9581 3.44262 12.9875 4.30115L12.383 4.43237L14.748 8.14392C12.5454 10.4683 11.1589 13.8575 10.6073 18.2626C9.04705 17.8614 4.21504 16.748 1.55536 17.509L1 17.6665L7.70587 28.1938L8.08367 27.9089C8.14034 27.8639 8.66548 27.4477 9.32662 26.1206C10.1464 24.4748 10.8189 22.1916 11.3327 19.3311C11.4045 19.3536 11.4838 19.3723 11.5632 19.3948C12.7494 19.7322 15.2882 20.4595 18.1859 20.4595C20.4943 20.4595 23.0331 19.9984 25.2998 18.5175C28.7378 16.2718 30.8648 12.1217 31.6203 6.18692L31.6619 5.85701L31.3483 5.73329ZM17.7401 5.19343C18.0461 5.30215 18.2917 5.42587 18.4768 5.54209C18.0197 5.74079 17.5777 5.96573 17.1583 6.21692C16.5236 6.59557 15.9305 7.03421 15.3827 7.52908L13.7884 5.02847C15.7189 4.69855 16.9883 4.92724 17.7401 5.19343ZM8.60881 25.622C8.32168 26.2106 8.07234 26.6042 7.88344 26.8554L2.37518 18.2101C4.96308 17.7902 9.20572 18.795 10.4865 19.1249C9.88198 22.5215 9.13772 24.5272 8.60881 25.622ZM24.8238 17.7977C20.0485 20.9207 13.8451 19.1474 11.805 18.5663C11.669 18.5288 11.5556 18.495 11.4612 18.4688C12.1412 12.8565 14.2077 8.98371 17.6041 6.95173C18.0235 6.70054 18.4542 6.4831 18.8924 6.29939C18.9264 7.10544 19.0813 8.57131 19.6744 10.2284C20.1958 11.6755 20.9476 12.9689 21.9148 14.0712C22.9839 15.2896 24.31 16.2756 25.8703 17.0029C25.5378 17.2953 25.1865 17.5578 24.8238 17.7977ZM26.5503 16.3693C23.6149 15.0946 21.5785 12.9427 20.5018 9.97346C19.8558 8.18516 19.7576 6.60682 19.75 5.97698C22.1415 5.18593 24.6085 5.22342 26.4445 5.44836C28.4544 5.69205 30.0601 6.19442 30.7136 6.41936C30.1054 10.8245 28.7075 14.1611 26.5503 16.3693Z" fill="#C3D600"/>
<path d="M23.8716 8.14363C23.49 8.38357 23.2255 8.75847 23.1235 9.19336C23.0215 9.62825 23.1009 10.0819 23.3427 10.4605C23.6638 10.9667 24.2154 11.2441 24.7783 11.2441C25.0881 11.2441 25.4016 11.1616 25.6812 10.9854C26.0628 10.7455 26.3272 10.3706 26.4293 9.93567C26.5313 9.50078 26.4519 9.04715 26.2101 8.66849C25.7077 7.88495 24.6612 7.64876 23.8716 8.14363ZM24.9559 8.76597C25.1712 8.81471 25.3525 8.94218 25.4734 9.12588C25.5905 9.30958 25.6283 9.53077 25.5792 9.74447C25.5301 9.95817 25.4017 10.1381 25.2165 10.2581C24.8312 10.498 24.3212 10.3856 24.0794 10.0032C23.9622 9.81945 23.9245 9.59826 23.9736 9.38456C24.0227 9.17087 24.1511 8.99091 24.3363 8.87094C24.4685 8.78846 24.6196 8.74348 24.7745 8.74348C24.835 8.74722 24.8954 8.75472 24.9559 8.76597Z" fill="#C3D600"/>
</svg>
