<svg width="26" height="26" viewBox="0 0 26 26" fill="none" xmlns="http://www.w3.org/2000/svg">
<path d="M25.029 12.3194C24.6701 10.1112 23.31 8.96771 22.3617 8.16916C22.1993 8.03045 22.0444 7.89923 21.9122 7.77926C21.3946 7.30313 21.3001 6.36587 21.2057 5.46235C21.1906 5.32739 21.1792 5.19242 21.1641 5.06121C21.0319 3.88776 20.4501 3.00673 19.5925 2.64682V2.60184L19.2827 2.53435C19.2223 2.51936 19.1618 2.51186 19.0976 2.50061V0.393649C19.0976 0.176205 18.92 0 18.7009 0C18.4818 0 18.3042 0.176205 18.3042 0.393649V2.50061C18.2438 2.50811 18.1795 2.51936 18.1191 2.53435L17.8093 2.60184V2.64682C16.9517 3.00673 16.3737 3.88776 16.2377 5.06121C16.2226 5.19242 16.2074 5.32739 16.1961 5.46235C16.1017 6.36587 16.0072 7.30313 15.4896 7.77926C15.3574 7.89923 15.2025 8.03045 15.0401 8.16916C14.4394 8.67528 13.6762 9.32012 13.102 10.2836C13.0755 10.2311 13.0491 10.1786 13.0188 10.1299C12.2557 8.73902 10.703 7.09319 7.58992 6.97697V4.75004C7.58992 4.53259 7.41235 4.35639 7.19323 4.35639C6.97411 4.35639 6.79655 4.53259 6.79655 4.75004V5.83726C6.51698 5.51484 6.15052 5.19242 5.67071 4.94874C4.51844 4.36014 3.07148 4.37888 1.36762 5.00872L1.07294 5.11744L1.11072 5.42486C1.32606 7.19441 2.22144 7.95172 2.93547 8.27788C2.93925 8.27788 2.94303 8.28163 2.94681 8.28163C2.21011 8.84774 1.70386 9.52632 1.36006 10.1487C0.918044 10.9435 0.691366 11.7345 0.57425 12.3231H0V25.0548H25.5654V12.3194H25.029ZM15.5539 8.76901C15.7239 8.62655 15.8863 8.48783 16.0299 8.35662C16.7666 7.67804 16.8799 6.54208 16.9857 5.54108C17.0008 5.40987 17.0121 5.27865 17.0273 5.15118C17.1368 4.18018 17.6166 3.49036 18.308 3.30665L18.4062 3.28041C18.4931 3.26542 18.58 3.25792 18.6669 3.25792H18.6971H18.7311C18.818 3.26167 18.9049 3.26916 18.9918 3.28041L19.09 3.30665C19.7814 3.49036 20.2612 4.18018 20.3708 5.15118C20.3859 5.27865 20.3972 5.40987 20.4123 5.54108C20.5143 6.54208 20.6314 7.67804 21.3681 8.35662C21.5117 8.48783 21.6741 8.62655 21.8442 8.76901C22.7169 9.50382 23.8654 10.4711 24.2129 12.3194H13.8047C13.7442 12.0082 13.6498 11.637 13.5138 11.2396C14.0162 10.0624 14.87 9.34261 15.5539 8.76901ZM1.94943 5.63856C3.29438 5.19617 4.42021 5.19617 5.30048 5.64231C6.00695 6.00222 6.41119 6.58332 6.62276 6.98821C5.4856 7.05945 4.56 7.33687 3.81196 7.73052C3.62306 7.69303 3.43794 7.6368 3.26793 7.56182C2.57279 7.2394 2.13077 6.59456 1.94943 5.63856ZM2.07032 10.4973C2.54257 9.65378 3.16971 9.00145 3.94797 8.54407C4.83579 8.02295 5.92384 7.75677 7.19701 7.75302H7.23101C7.24235 7.75302 7.25368 7.75302 7.26501 7.75302C9.61868 7.76052 11.315 8.67903 12.3124 10.4786C12.4484 10.726 12.5655 10.9772 12.6599 11.2209C12.8148 11.6183 12.9206 11.9969 12.9924 12.3194H1.38651C1.50363 11.8057 1.70764 11.1497 2.07032 10.4973ZM24.7721 18.2803H9.77358V19.0676H24.7721V24.2638H0.793371V19.0789H4.2162V18.2916H0.793371V13.1067H24.7721V18.2803Z" fill="#C3D600"/>
</svg>
