<svg width="29" height="25" viewBox="0 0 29 25" fill="none" xmlns="http://www.w3.org/2000/svg">
<path d="M14.4504 18.6445C13.4222 18.6445 12.5859 19.4808 12.5859 20.509C12.5859 21.5371 13.4222 22.3734 14.4504 22.3734C15.4785 22.3734 16.3148 21.5371 16.3148 20.509C16.3148 19.4808 15.4785 18.6445 14.4504 18.6445ZM14.4504 21.4412C13.9362 21.4412 13.5182 21.0231 13.5182 20.509C13.5182 19.9948 13.9362 19.5767 14.4504 19.5767C14.9645 19.5767 15.3826 19.9948 15.3826 20.509C15.3826 21.0231 14.9645 21.4412 14.4504 21.4412Z" fill="#C3D600"/>
<path d="M28.2305 14.2752C27.8124 13.9854 27.2772 13.9196 26.7999 14.0971L26.7462 14.1171L21.7045 1.74149L8.98802 6.28315L6.3703 0H1.39833C0.627356 0 0 0.627356 0 1.39833C0 2.1693 0.627356 2.79665 1.39833 2.79665H4.35356L10.9446 18.2097C10.5095 18.8708 10.2546 19.6598 10.2546 20.5086C10.2546 22.8219 12.1367 24.7036 14.4496 24.7036C16.7625 24.7036 18.6446 22.8219 18.6446 20.5086C18.6446 20.4624 18.639 20.4172 18.6375 20.3715L27.876 17.0122C28.4876 16.7895 28.8988 16.2031 28.8988 15.552C28.8988 15.0427 28.6489 14.5657 28.2304 14.2752H28.2305ZM15.6487 4.89392L17.0899 8.13671L15.6255 8.72267L14.1599 5.42577L15.6487 4.89392ZM13.2795 5.74L15.1379 9.92145L18.3345 8.64298L16.5287 4.57995L21.1777 2.91964L25.8734 14.4451L17.4642 17.5988C16.7005 16.8076 15.6322 16.3136 14.4493 16.3136C14.0293 16.3136 13.6246 16.3775 13.242 16.4926L9.34662 7.14432L13.2795 5.74ZM1.39821 1.86421C1.14143 1.86421 0.932101 1.65529 0.932101 1.3981C0.932101 1.14091 1.14143 0.931994 1.39821 0.931994H5.74842L12.3853 16.8607C12.1083 17.0178 11.853 17.2065 11.62 17.42L4.96871 1.86421H1.39821ZM14.4493 23.7713C12.6502 23.7713 11.1865 22.3073 11.1865 20.5086C11.1865 18.7099 12.6502 17.2458 14.4493 17.2458C16.2483 17.2458 17.712 18.7099 17.712 20.5086C17.712 22.3073 16.2483 23.7713 14.4493 23.7713ZM27.5578 16.1362L18.4993 19.4302C18.3991 19.0546 18.2486 18.6998 18.0543 18.3731L27.1277 14.9705C27.3216 14.8973 27.5295 14.9235 27.7001 15.0413C27.8695 15.1592 27.9669 15.3457 27.9669 15.5521C27.9669 15.8126 27.8023 16.0471 27.5582 16.1362L27.5578 16.1362Z" fill="#C3D600"/>
</svg>
