<svg width="47" height="45" viewBox="0 0 47 45" fill="none" xmlns="http://www.w3.org/2000/svg">
<path d="M43.4976 1.34655L22.7777 23.6557L16.413 14.8234H16.4134C16.1789 14.4694 15.8107 14.2265 15.3928 14.1501C14.9753 14.074 14.5448 14.1715 14.2008 14.4201C13.8565 14.6687 13.6289 15.0467 13.5699 15.4671C13.5108 15.8871 13.6257 16.3133 13.8881 16.6471L21.3646 27.0279C21.6379 27.4074 22.0669 27.6437 22.5334 27.6723H22.6269C23.064 27.6669 23.4789 27.4784 23.7699 27.1526L45.7785 3.46661C46.1568 3.05817 46.2891 2.47872 46.1246 1.94664C45.9604 1.41462 45.5248 1.01052 44.9816 0.886569C44.4387 0.76299 43.8711 0.938393 43.4924 1.34683L43.4976 1.34655Z" fill="#C4D600"/>
<path d="M42.4011 16.667C41.9962 16.7485 41.64 16.9877 41.4109 17.3313C41.1823 17.6752 41.0993 18.0959 41.1801 18.5011C41.4349 19.7684 41.5639 21.0582 41.5646 22.351C41.5646 27.4493 39.5395 32.3393 35.9341 35.9437C32.3293 39.549 27.4396 41.5742 22.3414 41.5742C17.2432 41.5742 12.353 39.549 8.7486 35.9437C5.14338 32.3389 3.11815 27.4492 3.11815 22.351C3.11778 17.894 4.66604 13.5755 7.49824 10.1341C10.3301 6.6926 14.2702 4.342 18.6436 3.48492C23.0175 2.62746 27.553 3.31677 31.4746 5.43436C31.9646 5.70181 32.56 5.68732 33.0362 5.3963C33.5128 5.10565 33.798 4.58269 33.7846 4.02496C33.7712 3.46685 33.461 2.9584 32.9707 2.69129C28.6689 0.363888 23.7223 -0.487434 18.8899 0.268235C14.0575 1.02386 9.6066 3.34435 6.22024 6.8735C2.83388 10.4026 0.699261 14.9455 0.144454 19.8048C-0.410761 24.6643 0.643854 29.5714 3.147 33.7733C5.65012 37.9754 9.46271 41.24 14.0001 43.0658C18.5374 44.8917 23.5487 45.1784 28.2645 43.8813C32.9802 42.5842 37.1403 39.7755 40.1057 35.8861C43.071 31.9967 44.6786 27.2415 44.6807 22.3509C44.6789 20.8523 44.5292 19.3573 44.2338 17.8878C44.1523 17.483 43.9135 17.1268 43.5695 16.8977C43.2256 16.669 42.8049 16.586 42.3997 16.6668L42.4011 16.667Z" fill="#C4D600"/>
</svg>
