<svg width="24" height="24" viewBox="0 0 24 24" fill="none" xmlns="http://www.w3.org/2000/svg">
<path d="M17.7049 18H6.29524C6.13222 18 6 17.8764 6 17.7242V16.8411C6 14.1445 8.23601 12.4021 11.6963 12.4021H12.3037C15.7639 12.4021 18 14.1445 18 16.8411V17.7241C18.0001 17.8764 17.8679 18 17.7049 18H17.7049ZM6.59051 17.4482H17.4096V16.841C17.4096 13.975 14.7723 12.9538 12.3039 12.9538H11.6964C9.22818 12.9538 6.59069 13.9749 6.59069 16.841L6.59051 17.4482ZM12.0002 11.7555C10.4972 11.7555 9.27452 10.6132 9.27452 9.20894V8.54659C9.27452 7.14223 10.4973 6 12.0002 6C13.5031 6 14.7259 7.14236 14.7259 8.54659V9.20894C14.7259 10.6131 13.5031 11.7555 12.0002 11.7555ZM12.0002 6.55151C10.8228 6.55151 9.865 7.4464 9.865 8.54642V9.20877C9.865 10.3088 10.8228 11.2037 12.0002 11.2037C13.1776 11.2037 14.1354 10.3088 14.1354 9.20877V8.54642C14.1354 7.4464 13.1776 6.55151 12.0002 6.55151Z" fill="#00061A"/>
<path fill-rule="evenodd" clip-rule="evenodd" d="M12 23.2C18.1856 23.2 23.2 18.1856 23.2 12C23.2 5.81441 18.1856 0.8 12 0.8C5.81441 0.8 0.8 5.81441 0.8 12C0.8 18.1856 5.81441 23.2 12 23.2ZM12 24C18.6274 24 24 18.6274 24 12C24 5.37258 18.6274 0 12 0C5.37258 0 0 5.37258 0 12C0 18.6274 5.37258 24 12 24Z" fill="black"/>
</svg>
