<svg width="26" height="23" viewBox="0 0 26 23" fill="none" xmlns="http://www.w3.org/2000/svg">
<path d="M8.62848 11.4894C10.0591 11.4894 11.4311 10.9211 12.4427 9.9095C13.4543 8.8979 14.0226 7.52589 14.0226 6.09528C14.0226 4.66468 13.4543 3.29266 12.4427 2.28106C11.4311 1.26946 10.0591 0.701172 8.62848 0.701172C7.19788 0.701172 5.82587 1.26946 4.81426 2.28106C3.80266 3.29266 3.23438 4.66468 3.23438 6.09528C3.23592 7.52529 3.80478 8.89657 4.81599 9.90778C5.8272 10.919 7.19847 11.4879 8.62848 11.4894ZM8.62848 1.77975C9.773 1.77975 10.8705 2.2344 11.6798 3.04371C12.4891 3.85302 12.9438 4.95052 12.9438 6.09504C12.9438 7.23955 12.4891 8.33706 11.6798 9.14636C10.8705 9.95566 9.773 10.4103 8.62848 10.4103C7.48397 10.4103 6.38646 9.95567 5.57716 9.14636C4.76786 8.33705 4.3132 7.23955 4.3132 6.09504C4.31455 4.95092 4.76958 3.85414 5.57849 3.04504C6.38759 2.23613 7.48437 1.78108 8.62848 1.77975Z" fill="#C3D600"/>
<path d="M8.63058 12.5684C3.87163 12.5684 0 16.44 0 21.1989V22.2778C0 22.4209 0.0568284 22.5581 0.157969 22.6592C0.259109 22.7603 0.396272 22.8172 0.539411 22.8172H16.7215C16.8646 22.8172 17.0018 22.7603 17.1029 22.6592C17.2041 22.5581 17.2609 22.4209 17.2609 22.2778V21.1989C17.2609 16.44 13.3893 12.5684 8.63033 12.5684H8.63058ZM16.1821 21.7385H1.07858V21.199C1.07858 17.0348 4.4661 13.6475 8.63008 13.6475C12.7941 13.6475 16.1816 17.0351 16.1816 21.199L16.1821 21.7385Z" fill="#C3D600"/>
<path d="M18.9857 11.5974C20.1587 11.5974 21.2838 11.1314 22.1133 10.3018C22.9428 9.47227 23.4089 8.34719 23.4089 7.17417C23.4089 6.00115 22.9429 4.87607 22.1133 4.04655C21.2838 3.21703 20.1587 2.75098 18.9857 2.75098C17.8127 2.75098 16.6876 3.21699 15.8581 4.04655C15.0286 4.87607 14.5625 6.00115 14.5625 7.17417C14.5638 8.34679 15.0302 9.47109 15.8594 10.3005C16.6887 11.1296 17.813 11.596 18.9857 11.5974ZM18.9857 3.82985C19.8726 3.82985 20.7234 4.1822 21.3504 4.80944C21.9777 5.43652 22.33 6.28724 22.33 7.17417C22.33 8.0611 21.9777 8.91183 21.3504 9.5389C20.7234 10.1662 19.8726 10.5185 18.9857 10.5185C18.0988 10.5185 17.248 10.1661 16.621 9.5389C15.9937 8.91183 15.6414 8.0611 15.6414 7.17417C15.6423 6.28744 15.9951 5.43745 16.622 4.81038C17.249 4.1835 18.099 3.83078 18.9857 3.8298L18.9857 3.82985Z" fill="#C3D600"/>
<path d="M18.9867 12.2443C17.5892 12.242 16.2232 12.6592 15.0657 13.4421C14.8188 13.609 14.7538 13.9444 14.9207 14.1912C15.0875 14.4381 15.4229 14.5029 15.6698 14.336C16.8658 13.5302 18.3145 13.1875 19.7449 13.372C21.1753 13.5564 22.4895 14.2555 23.442 15.3386C24.3944 16.4216 24.92 17.8143 24.9202 19.2566V19.5803H18.463C18.165 19.5803 17.9236 19.8218 17.9236 20.1197C17.9236 20.4175 18.165 20.6591 18.463 20.6591H25.4597C25.6029 20.6591 25.74 20.6023 25.8412 20.5012C25.9423 20.4 25.9991 20.2629 25.9991 20.1197V19.2567C25.997 17.3974 25.2576 15.615 23.943 14.3002C22.6284 12.9854 20.846 12.2463 18.9866 12.2441L18.9867 12.2443Z" fill="#C3D600"/>
</svg>
