<svg width="18" height="18" viewBox="0 0 18 18" fill="none" xmlns="http://www.w3.org/2000/svg">
<path d="M17.5573 18H0.442859C0.198332 18 0 17.8145 0 17.5862V16.2616C0 12.2168 3.35401 9.60317 8.54439 9.60317H9.45561C14.6458 9.60317 18 12.2167 18 16.2616V17.5861C18.0002 17.8146 17.8018 18 17.5573 18H17.5573ZM0.885758 17.1723H17.1144V16.2615C17.1144 11.9625 13.1584 10.4307 9.45585 10.4307H8.54463C4.84227 10.4307 0.886035 11.9623 0.886035 16.2615L0.885758 17.1723ZM9.0003 8.63329C6.74578 8.63329 4.91179 6.91975 4.91179 4.81341V3.81988C4.91179 1.71335 6.74598 0 9.0003 0C11.2546 0 13.0888 1.71353 13.0888 3.81988V4.81341C13.0888 6.91964 11.2546 8.63329 9.0003 8.63329ZM9.0003 0.827266C7.23424 0.827266 5.79751 2.1696 5.79751 3.81962V4.81315C5.79751 6.46317 7.23424 7.80551 9.0003 7.80551C10.7664 7.80551 12.2031 6.46317 12.2031 4.81315V3.81962C12.2031 2.1696 10.7664 0.827266 9.0003 0.827266Z" fill="#00061A"/>
</svg>
