<svg width="18" height="18" viewBox="0 0 18 18" fill="none" xmlns="http://www.w3.org/2000/svg">
<path d="M17.4885 17.9646H0.441123C0.197554 17.9646 0 17.7798 0 17.5524V16.233C0 12.204 3.34086 9.60066 8.51088 9.60066H9.41853C14.5884 9.60066 17.9294 12.2039 17.9294 16.233V17.5523C17.9296 17.7798 17.732 17.9646 17.4884 17.9646H17.4885ZM0.882285 17.1401H17.0473V16.2329C17.0473 11.9507 13.1068 10.4249 9.41877 10.4249H8.51112C4.82328 10.4249 0.88256 11.9506 0.88256 16.2329L0.882285 17.1401ZM8.965 8.63459C6.71933 8.63459 4.89253 6.92777 4.89253 4.82969V3.84006C4.89253 1.74179 6.71953 0.0351562 8.965 0.0351562C11.2105 0.0351562 13.0375 1.74197 13.0375 3.84006V4.82969C13.0375 6.92766 11.2105 8.63459 8.965 8.63459ZM8.965 0.859178C7.20587 0.859178 5.77477 2.19625 5.77477 3.8398V4.82943C5.77477 6.47298 7.20587 7.81005 8.965 7.81005C10.7241 7.81005 12.1552 6.47298 12.1552 4.82943V3.8398C12.1552 2.19625 10.7241 0.859178 8.965 0.859178Z" fill="#00061A"/>
</svg>
